SplineFontDB: 3.2
FontName: TF2
FullName: TF2
FamilyName: TF2
Weight: Book
Copyright: Free for non-comorcial use. Andrea Wicklund/Valve corporation \n Extended by: Jakadak
Version: 2.0
ItalicAngle: 0
UnderlinePosition: -100
UnderlineWidth: 50
Ascent: 750
Descent: 250
InvalidEm: 0
sfntRevision: 0x00010000
LayerCount: 2
Layer: 0 1 "Back" 1
Layer: 1 1 "Fore" 0
XUID: [1021 400 1947487990 15154]
StyleMap: 0x0040
FSType: 4
OS2Version: 3
OS2_WeightWidthSlopeOnly: 0
OS2_UseTypoMetrics: 0
CreationTime: 1262973209
ModificationTime: 1610455245
PfmFamily: 81
TTFWeight: 400
TTFWidth: 5
LineGap: 0
VLineGap: 0
Panose: 0 0 0 0 0 0 0 0 0 0
OS2TypoAscent: 750
OS2TypoAOffset: 0
OS2TypoDescent: -250
OS2TypoDOffset: 0
OS2TypoLinegap: 0
OS2WinAscent: 739
OS2WinAOffset: 0
OS2WinDescent: 104
OS2WinDOffset: 0
HheadAscent: 750
HheadAOffset: 0
HheadDescent: -250
HheadDOffset: 0
OS2SubXSize: 700
OS2SubYSize: 650
OS2SubXOff: 0
OS2SubYOff: 140
OS2SupXSize: 700
OS2SupYSize: 650
OS2SupXOff: 0
OS2SupYOff: 477
OS2StrikeYSize: 50
OS2StrikeYPos: 250
OS2CapHeight: 695
OS2XHeight: 688
OS2Vendor: 'pyrs'
OS2CodePages: 00000001.00000000
OS2UnicodeRanges: 80000027.0000004a.00000000.00000000
Lookup: 258 0 0 "'kern' Horizontal Kerning in Latin lookup 0" { "'kern' Horizontal Kerning in Latin lookup 0 subtable"  } ['kern' ('latn' <'dflt' > ) ]
MarkAttachClasses: 1
DEI: 91125
TtTable: prep
PUSHW_1
 50
CALL
PUSHW_1
 40
CALL
PUSHW_1
 30
CALL
PUSHW_1
 20
CALL
PUSHW_1
 10
CALL
PUSHW_1
 0
CALL
EndTTInstrs
TtTable: fpgm
PUSHW_1
 0
FDEF
MPPEM
PUSHW_1
 9
LT
IF
PUSHB_2
 1
 1
INSTCTRL
EIF
PUSHW_1
 511
SCANCTRL
PUSHW_1
 68
SCVTCI
PUSHW_2
 9
 3
SDS
SDB
ENDF
PUSHW_1
 1
FDEF
DUP
DUP
RCVT
ROUND[Black]
WCVTP
PUSHB_1
 1
ADD
ENDF
PUSHW_1
 2
FDEF
PUSHW_1
 1
LOOPCALL
POP
ENDF
PUSHW_1
 3
FDEF
DUP
GC[cur]
PUSHB_1
 3
CINDEX
GC[cur]
GT
IF
SWAP
EIF
DUP
ROLL
DUP
ROLL
MD[grid]
ABS
ROLL
DUP
GC[cur]
DUP
ROUND[Grey]
SUB
ABS
PUSHB_1
 4
CINDEX
GC[cur]
DUP
ROUND[Grey]
SUB
ABS
GT
IF
SWAP
NEG
ROLL
EIF
MDAP[rnd]
DUP
PUSHB_1
 0
GTEQ
IF

StartChar: exclam
Encoding: 33 33 4
Width: 180
VWidth: 950
GlyphClass: 2
Flags: W
LayerCount: 2
Fore
SplineSet
88 106 m 1,0,-1
 50 112 l 1,1,-1
 61 650 l 1,2,-1
 151 642 l 1,3,-1
 88 106 l 1,0,-1
65 55 m 0,4,5
 79 57 79 57 91.5 48 c 128,-1,6
 104 39 104 39 107 22 c 0,7,8
 110 6 110 6 102 -7 c 128,-1,9
 94 -20 94 -20 80 -23 c 0,10,11
 66 -25 66 -25 53.5 -16 c 128,-1,12
 41 -7 41 -7 38 10 c 0,13,14
 35 26 35 26 43 39 c 128,-1,15
 51 52 51 52 65 55 c 0,4,5
EndSplineSet
Validated: 1
EndChar

StartChar: quotedbl
Encoding: 34 34 5
Width: 130
VWidth: 950
GlyphClass: 2
Flags: W
LayerCount: 2
Fore
SplineSet
18 580 m 1,0,-1
 1 672 l 1,1,-1
 41 673 l 1,2,-1
 39 580 l 1,3,-1
 18 580 l 1,0,-1
54 681 m 1,4,-1
 93 674 l 1,5,-1
 81 599 l 1,6,-1
 60 599 l 1,7,-1
 54 681 l 1,4,-1
EndSplineSet
Validated: 1
EndChar

StartChar: numbersign
Encoding: 35 35 6
Width: 320
VWidth: 950
GlyphClass: 2
Flags: W
LayerCount: 2
Fore
SplineSet
264 361 m 1,0,-1
 214 357 l 1,1,-1
 207 316 l 1,2,-1
 250 314 l 1,3,-1
 246 287 l 1,4,-1
 201 285 l 1,5,-1
 194 205 l 1,6,-1
 167 206 l 1,7,-1
 175 284 l 1,8,-1
 104 280 l 1,9,-1
 104 200 l 1,10,-1
 80 198 l 1,11,-1
 76 279 l 1,12,-1
 14 276 l 1,13,-1
 16 312 l 1,14,-1
 74 312 l 1,15,-1
 72 350 l 1,16,-1
 0 343 l 1,17,-1
 0 379 l 1,18,-1
 71 381 l 1,19,-1
 67 456 l 1,20,-1
 99 453 l 1,21,-1
 99 380 l 1,22,-1
 183 381 l 1,23,-1
 187 437 l 1,24,-1
 225 432 l 1,25,-1
 217 381 l 1,26,-1
 268 382 l 1,27,-1
 264 361 l 1,0,-1
178 316 m 1,28,-1
 181 355 l 1,29,-1
 104 349 l 1,30,-1
 104 315 l 1,31,-1
 178 316 l 1,28,-1
EndSplineSet
Validated: 1
EndChar

StartChar: dollar
Encoding: 36 36 7
Width: 765
VWidth: 950
GlyphClass: 2
Flags: W
LayerCount: 2
Fore
SplineSet
384 705 m 0,0,1
 461 705 461 705 529.5 674.5 c 128,-1,2
 598 644 598 644 650 592 c 128,-1,3
 702 540 702 540 732 470 c 128,-1,4
 762 400 762 400 762 321 c 0,5,6
 762 244 762 244 732 175.5 c 128,-1,7
 702 107 702 107 650 55 c 128,-1,8
 598 3 598 3 529.5 -27 c 128,-1,9
 461 -57 461 -57 384 -57 c 0,10,11
 368 -57 368 -57 357.5 -56.5 c 128,-1,12
 347 -56 347 -56 336 -54 c 1,13,-1
 455 235 l 1,14,15
 501 249 501 249 537.5 281 c 128,-1,16
 574 313 574 313 589 364 c 1,17,18
 608 411 608 411 599 458.5 c 128,-1,19
 590 506 590 506 561 542 c 1,20,-1
 507 393 l 1,21,-1
 387 369 l 1,22,-1
 306 459 l 1,23,-1
 354 609 l 1,24,25
 310 598 310 598 274 567 c 128,-1,26
 238 536 238 536 224 485 c 1,27,28
 206 438 206 438 216 387.5 c 128,-1,29
 226 337 226 337 258 302 c 1,30,-1
 167 9 l 1,31,32
 91 60 91 60 45.5 142 c 128,-1,33
 0 224 0 224 0 321 c 0,34,35
 0 400 0 400 30.5 470 c 128,-1,36
 61 540 61 540 113 592 c 128,-1,37
 165 644 165 644 235 674.5 c 128,-1,38
 305 705 305 705 384 705 c 0,0,1
EndSplineSet
Validated: 33
EndChar

StartChar: percent
Encoding: 37 37 8
Width: 380
VWidth: 950
GlyphClass: 2
Flags: W
LayerCount: 2
Fore
SplineSet
281 291 m 0,0,1
 310 291 310 291 322.5 266.5 c 128,-1,2
 335 242 335 242 332.5 213 c 128,-1,3
 330 184 330 184 311.5 159 c 128,-1,4
 293 134 293 134 260 134 c 256,5,6
 227 134 227 134 215 159 c 128,-1,7
 203 184 203 184 207.5 213.5 c 128,-1,8
 212 243 212 243 231 267 c 128,-1,9
 250 291 250 291 281 291 c 0,0,1
264 169 m 0,10,11
 282 169 282 169 292 183.5 c 128,-1,12
 302 198 302 198 304.5 215.5 c 128,-1,13
 307 233 307 233 301 246.5 c 128,-1,14
 295 260 295 260 281 259 c 0,15,16
 264 257 264 257 252.5 244 c 128,-1,17
 241 231 241 231 237 214.5 c 128,-1,18
 233 198 233 198 239 184 c 128,-1,19
 245 170 245 170 264 169 c 0,10,11
71 406 m 0,20,21
 44 405 44 405 27.5 414.5 c 128,-1,22
 11 424 11 424 5.5 438.5 c 128,-1,23
 0 453 0 453 4 470.5 c 128,-1,24
 8 488 8 488 20.5 503.5 c 128,-1,25
 33 519 33 519 53.5 528.5 c 128,-1,26
 74 538 74 538 100 538 c 0,27,28
 125 538 125 538 136.5 517.5 c 128,-1,29
 148 497 148 497 144.5 472.5 c 128,-1,30
 141 448 141 448 123.5 427.5 c 128,-1,31
 106 407 106 407 71 406 c 0,20,21
94 497 m 0,32,33
 76 499 76 499 60.5 490 c 128,-1,34
 45 481 45 481 38 469.5 c 128,-1,35
 31 458 31 458 36 448 c 128,-1,36
 41 438 41 438 64 438 c 0,37,38
 80 436 80 436 94 444.5 c 128,-1,39
 108 453 108 453 114 464 c 128,-1,40
 120 475 120 475 116 484.5 c 128,-1,41
 112 494 112 494 94 497 c 0,32,33
295 555 m 1,42,-1
 58 24 l 1,43,-1
 1 52 l 1,44,-1
 250 573 l 1,45,-1
 295 555 l 1,42,-1
EndSplineSet
Validated: 33
EndChar

StartChar: ampersand
Encoding: 38 38 9
Width: 465
VWidth: 950
GlyphClass: 2
Flags: W
LayerCount: 2
Fore
SplineSet
395 115 m 1,0,-1
 345 53 l 1,1,2
 258 109 258 109 190 175 c 0,3,4
 161 203 161 203 133.5 237 c 128,-1,5
 106 271 106 271 85 307.5 c 128,-1,6
 64 344 64 344 51 384 c 128,-1,7
 38 424 38 424 39 466 c 0,8,9
 39 496 39 496 46 511.5 c 128,-1,10
 53 527 53 527 62.5 533.5 c 128,-1,11
 72 540 72 540 80 541 c 128,-1,12
 88 542 88 542 90 542 c 0,13,14
 91 542 91 542 104 539.5 c 128,-1,15
 117 537 117 537 135 527.5 c 128,-1,16
 153 518 153 518 170 504 c 128,-1,17
 187 490 187 490 198 467 c 0,18,19
 205 451 205 451 199.5 430 c 128,-1,20
 194 409 194 409 181.5 385.5 c 128,-1,21
 169 362 169 362 152 336 c 128,-1,22
 135 310 135 310 119 281.5 c 128,-1,23
 103 253 103 253 91 223.5 c 128,-1,24
 79 194 79 194 77 162 c 1,25,26
 82 116 82 116 108 99.5 c 128,-1,27
 134 83 134 83 165 83 c 0,28,29
 182 83 182 83 203 88.5 c 128,-1,30
 224 94 224 94 242 112.5 c 128,-1,31
 260 131 260 131 268.5 166.5 c 128,-1,32
 277 202 277 202 270 263 c 1,33,-1
 191 261 l 1,34,-1
 187 306 l 1,35,-1
 317 305 l 1,36,37
 322 233 322 233 308 176 c 0,38,39
 302 152 302 152 292 128.5 c 128,-1,40
 282 105 282 105 264.5 87 c 128,-1,41
 247 69 247 69 223 59 c 128,-1,42
 199 49 199 49 165 49 c 0,43,44
 125 49 125 49 98 57.5 c 128,-1,45
 71 66 71 66 54.5 80.5 c 128,-1,46
 38 95 38 95 31 115 c 128,-1,47
 24 135 24 135 24 162 c 0,48,49
 24 177 24 177 33.5 200.5 c 128,-1,50
 43 224 43 224 57.5 251 c 128,-1,51
 72 278 72 278 89 306 c 128,-1,52
 106 334 106 334 120 359.5 c 128,-1,53
 134 385 134 385 143.5 405 c 128,-1,54
 153 425 153 425 153 436 c 0,55,56
 153 452 153 452 146 464.5 c 128,-1,57
 139 477 139 477 130.5 483.5 c 128,-1,58
 122 490 122 490 111 490 c 128,-1,59
 100 490 100 490 91 481 c 0,60,61
 75 465 75 465 80 431.5 c 128,-1,62
 85 398 85 398 106.5 358 c 128,-1,63
 128 318 128 318 162.5 275.5 c 128,-1,64
 197 233 197 233 236.5 198 c 128,-1,65
 276 163 276 163 318 139.5 c 128,-1,66
 360 116 360 116 395 115 c 1,0,-1
EndSplineSet
Validated: 37
EndChar

StartChar: quotesingle
Encoding: 39 39 10
Width: 129
VWidth: 950
GlyphClass: 2
Flags: W
LayerCount: 2
Fore
SplineSet
62 674 m 0,0,1
 78 660 78 660 83 643 c 0,2,3
 88 627 88 627 82.5 606 c 128,-1,4
 77 585 77 585 50 557 c 1,5,-1
 31 569 l 1,6,7
 51 584 51 584 56.5 594.5 c 128,-1,8
 62 605 62 605 61 612 c 1,9,10
 51 607 51 607 39.5 609 c 128,-1,11
 28 611 28 611 18 619 c 0,12,13
 5 630 5 630 2.5 646 c 128,-1,14
 0 662 0 662 10 673 c 256,15,16
 20 684 20 684 34.5 684 c 128,-1,17
 49 684 49 684 62 674 c 0,0,1
EndSplineSet
Validated: 33
EndChar

StartChar: parenleft
Encoding: 40 40 11
Width: 295
VWidth: 950
GlyphClass: 2
Flags: W
LayerCount: 2
Fore
SplineSet
209 3 m 1,0,-1
 164 -49 l 1,1,2
 137 -28 137 -28 109 4 c 0,3,4
 87 31 87 31 62.5 71 c 128,-1,5
 38 111 38 111 18 168 c 0,6,7
 5 206 5 206 12.5 258 c 128,-1,8
 20 310 20 310 43.5 363.5 c 128,-1,9
 67 417 67 417 98.5 468.5 c 128,-1,10
 130 520 130 520 158 557.5 c 128,-1,11
 186 595 186 595 210.5 622 c 128,-1,12
 235 649 235 649 237 649 c 2,13,-1
 253 616 l 1,14,15
 204 554 204 554 165 492 c 0,16,17
 135 441 135 441 107.5 379 c 128,-1,18
 80 317 80 317 78 246 c 0,19,20
 79 186 79 186 100.5 142.5 c 128,-1,21
 122 99 122 99 146 67 c 0,22,23
 174 30 174 30 209 3 c 1,0,-1
EndSplineSet
Validated: 33
EndChar

StartChar: parenright
Encoding: 41 41 12
Width: 290
VWidth: 950
GlyphClass: 2
Flags: W
LayerCount: 2
Fore
SplineSet
44 597 m 1,0,-1
 89 649 l 1,1,2
 116 628 116 628 144 596 c 0,3,4
 166 569 166 569 190.5 529 c 128,-1,5
 215 489 215 489 235 432 c 0,6,7
 248 394 248 394 240.5 342 c 128,-1,8
 233 290 233 290 209.5 236.5 c 128,-1,9
 186 183 186 183 154.5 131.5 c 128,-1,10
 123 80 123 80 95 42.5 c 128,-1,11
 67 5 67 5 42.5 -22 c 128,-1,12
 18 -49 18 -49 16 -49 c 2,13,-1
 0 -16 l 1,14,15
 49 46 49 46 88 108 c 0,16,17
 118 159 118 159 145.5 221 c 128,-1,18
 173 283 173 283 175 354 c 0,19,20
 174 414 174 414 152.5 457.5 c 128,-1,21
 131 501 131 501 107 533 c 0,22,23
 79 570 79 570 44 597 c 1,0,-1
EndSplineSet
Validated: 33
EndChar

StartChar: asterisk
Encoding: 42 42 13
Width: 265
VWidth: 950
GlyphClass: 2
Flags: W
LayerCount: 2
Fore
SplineSet
215 491 m 1,0,-1
 181 462 l 1,1,-1
 117 549 l 1,2,-1
 84 460 l 1,3,-1
 66 468 l 1,4,-1
 95 555 l 1,5,-1
 8 518 l 1,6,-1
 0 546 l 1,7,-1
 95 580 l 1,8,-1
 40 659 l 1,9,-1
 55 670 l 1,10,-1
 110 609 l 1,11,-1
 137 695 l 1,12,-1
 168 683 l 1,13,-1
 137 597 l 1,14,-1
 201 619 l 1,15,-1
 206 601 l 1,16,-1
 141 573 l 1,17,-1
 215 491 l 1,0,-1
EndSplineSet
Validated: 1
EndChar

StartChar: plus
Encoding: 43 43 14
Width: 300
VWidth: 950
GlyphClass: 2
Flags: W
LayerCount: 2
Fore
SplineSet
250 312 m 1,0,-1
 154 310 l 1,1,-1
 153 167 l 1,2,-1
 119 166 l 1,3,-1
 117 310 l 1,4,-1
 0 308 l 1,5,-1
 -1 345 l 1,6,-1
 117 347 l 1,7,-1
 115 461 l 1,8,-1
 156 461 l 1,9,-1
 154 347 l 1,10,-1
 248 349 l 1,11,-1
 250 312 l 1,0,-1
EndSplineSet
Validated: 1
EndChar

StartChar: comma
Encoding: 44 44 15
Width: 135
VWidth: 950
GlyphClass: 2
Flags: W
LayerCount: 2
Fore
SplineSet
82 2 m 0,0,1
 94 -23 94 -23 83 -47 c 128,-1,2
 72 -71 72 -71 47 -100 c 1,3,-1
 26 -85 l 1,4,5
 40 -72 40 -72 53.5 -58 c 128,-1,6
 67 -44 67 -44 67 -37 c 1,7,8
 48 -46 48 -46 28 -32 c 0,9,10
 15 -23 15 -23 11 -9 c 128,-1,11
 7 5 7 5 15 18 c 0,12,13
 25 29 25 29 39 30.5 c 128,-1,14
 53 32 53 32 67 23 c 0,15,16
 78 15 78 15 82 2 c 0,0,1
EndSplineSet
Validated: 33
EndChar

StartChar: hyphen
Encoding: 45 45 16
Width: 280
VWidth: 950
GlyphClass: 2
Flags: W
LayerCount: 2
Fore
SplineSet
0 298 m 1,0,-1
 226 318 l 1,1,-1
 222 252 l 1,2,-1
 3 260 l 1,3,-1
 0 298 l 1,0,-1
EndSplineSet
Validated: 1
EndChar

StartChar: period
Encoding: 46 46 17
Width: 141
VWidth: 950
GlyphClass: 2
Flags: W
LayerCount: 2
Fore
SplineSet
36 0 m 0,0,1
 23 9 23 9 19 23.5 c 128,-1,2
 15 38 15 38 23 51 c 0,3,4
 33 63 33 63 48 64 c 128,-1,5
 63 65 63 65 77 55 c 0,6,7
 90 46 90 46 94 31 c 128,-1,8
 98 16 98 16 89 4 c 256,9,10
 80 -8 80 -8 65.5 -9 c 128,-1,11
 51 -10 51 -10 36 0 c 0,0,1
EndSplineSet
Validated: 1
EndChar

StartChar: slash
Encoding: 47 47 18
Width: 344
VWidth: 950
GlyphClass: 2
Flags: W
LayerCount: 2
Fore
SplineSet
225 615 m 1,0,-1
 298 603 l 1,1,-1
 40 12 l 1,2,-1
 0 25 l 1,3,-1
 225 615 l 1,0,-1
EndSplineSet
Validated: 1
EndChar

StartChar: zero
Encoding: 48 48 19
Width: 529
VWidth: 950
GlyphClass: 2
Flags: W
LayerCount: 2
Fore
SplineSet
477 290 m 0,0,1
 477 218 477 218 463 171 c 128,-1,2
 449 124 449 124 428.5 93.5 c 128,-1,3
 408 63 408 63 381 45.5 c 128,-1,4
 354 28 354 28 328.5 20 c 128,-1,5
 303 12 303 12 287 11 c 128,-1,6
 271 10 271 10 253 11 c 0,7,8
 247 11 247 11 226 14.5 c 128,-1,9
 205 18 205 18 178.5 29 c 128,-1,10
 152 40 152 40 121.5 60 c 128,-1,11
 91 80 91 80 65.5 115.5 c 128,-1,12
 40 151 40 151 20.5 202 c 128,-1,13
 1 253 1 253 -1 326 c 0,14,15
 1 383 1 383 12.5 423.5 c 128,-1,16
 24 464 24 464 41.5 494.5 c 128,-1,17
 59 525 59 525 79.5 543.5 c 128,-1,18
 100 562 100 562 123 572 c 0,19,20
 173 600 173 600 237 596 c 0,21,22
 243 596 243 596 261 594 c 128,-1,23
 279 592 279 592 304.5 583 c 128,-1,24
 330 574 330 574 360 555 c 128,-1,25
 390 536 390 536 415.5 502 c 128,-1,26
 441 468 441 468 458.5 416 c 128,-1,27
 476 364 476 364 477 290 c 0,0,1
403 253 m 0,28,29
 408 314 408 314 398 368.5 c 128,-1,30
 388 423 388 423 366.5 463.5 c 128,-1,31
 345 504 345 504 311.5 528 c 128,-1,32
 278 552 278 552 237 554 c 0,33,34
 198 557 198 557 167 540 c 0,35,36
 140 523 140 523 115.5 481 c 128,-1,37
 91 439 91 439 86 358 c 0,38,39
 79 277 79 277 99 218 c 128,-1,40
 119 159 119 159 149.5 120 c 128,-1,41
 180 81 180 81 210.5 63 c 128,-1,42
 241 45 241 45 266 45 c 0,43,44
 284 44 284 44 306 54 c 128,-1,45
 328 64 328 64 347 87 c 128,-1,46
 366 110 366 110 381 150.5 c 128,-1,47
 396 191 396 191 403 253 c 0,28,29
EndSplineSet
Validated: 33
EndChar

StartChar: one
Encoding: 49 49 20
Width: 250
VWidth: 950
GlyphClass: 2
Flags: W
LayerCount: 2
Fore
SplineSet
71 48 m 1,0,-1
 83 502 l 1,1,2
 65 487 65 487 53 483 c 0,3,4
 38 476 38 476 18 470 c 1,5,-1
 0 513 l 1,6,7
 24 519 24 519 41 528.5 c 128,-1,8
 58 538 58 538 70 553 c 0,9,10
 83 571 83 571 93 590 c 1,11,-1
 153 589 l 1,12,13
 146 67 146 67 149 64 c 0,14,15
 151 58 151 58 199 10 c 1,16,-1
 26 10 l 1,17,-1
 71 48 l 1,0,-1
EndSplineSet
Validated: 33
EndChar

StartChar: two
Encoding: 50 50 21
Width: 510
VWidth: 950
GlyphClass: 2
Flags: W
LayerCount: 2
Fore
SplineSet
0 545 m 1,0,1
 20 558 20 558 57.5 571.5 c 128,-1,2
 95 585 95 585 139.5 592.5 c 128,-1,3
 184 600 184 600 232 600 c 128,-1,4
 280 600 280 600 321 587.5 c 128,-1,5
 362 575 362 575 392.5 548 c 128,-1,6
 423 521 423 521 434 473 c 0,7,8
 441 439 441 439 435.5 403.5 c 128,-1,9
 430 368 430 368 416 333 c 128,-1,10
 402 298 402 298 380.5 264 c 128,-1,11
 359 230 359 230 337 200 c 0,12,13
 282 130 282 130 209 63 c 1,14,15
 250 64 250 64 287 66 c 0,16,17
 318 69 318 69 347 70 c 128,-1,18
 376 71 376 71 388 73 c 0,19,20
 398 76 398 76 410.5 85.5 c 128,-1,21
 423 95 423 95 434 104 c 0,22,23
 447 116 447 116 458 130 c 1,24,-1
 458 13 l 1,25,-1
 267 13 l 2,26,27
 231 13 231 13 196 13 c 128,-1,28
 161 13 161 13 134.5 13 c 128,-1,29
 108 13 108 13 91 13 c 128,-1,30
 74 13 74 13 74 13 c 1,31,32
 107 40 107 40 145 81.5 c 128,-1,33
 183 123 183 123 218 165 c 128,-1,34
 253 207 253 207 280 244 c 128,-1,35
 307 281 307 281 318 299 c 0,36,37
 325 311 325 311 334.5 331.5 c 128,-1,38
 344 352 344 352 349.5 377 c 128,-1,39
 355 402 355 402 353.5 428.5 c 128,-1,40
 352 455 352 455 340 477 c 128,-1,41
 328 499 328 499 303.5 514 c 128,-1,42
 279 529 279 529 235 532 c 0,43,44
 191 534 191 534 158.5 526 c 128,-1,45
 126 518 126 518 102.5 507 c 128,-1,46
 79 496 79 496 64 484.5 c 128,-1,47
 49 473 49 473 40 467 c 0,48,49
 39 467 39 467 33 479 c 128,-1,50
 27 491 27 491 20 506 c 0,51,52
 12 523 12 523 0 545 c 1,0,1
EndSplineSet
Validated: 33
EndChar

StartChar: three
Encoding: 51 51 22
Width: 468
VWidth: 950
GlyphClass: 2
Flags: W
LayerCount: 2
Fore
SplineSet
0 571 m 1,0,1
 44 586 44 586 92 592.5 c 128,-1,2
 140 599 140 599 186.5 598 c 128,-1,3
 233 597 233 597 276.5 588 c 128,-1,4
 320 579 320 579 353 563.5 c 128,-1,5
 386 548 386 548 405 527 c 128,-1,6
 424 506 424 506 425 478 c 0,7,8
 427 426 427 426 403 393 c 128,-1,9
 379 360 379 360 349.5 340.5 c 128,-1,10
 320 321 320 321 294.5 312.5 c 128,-1,11
 269 304 269 304 269 303 c 2,12,13
 269 303 269 303 287 296 c 128,-1,14
 305 289 305 289 328 272.5 c 128,-1,15
 351 256 351 256 372 229 c 128,-1,16
 393 202 393 202 396 163 c 0,17,18
 397 127 397 127 382 103 c 128,-1,19
 367 79 367 79 342 62 c 128,-1,20
 317 45 317 45 284.5 35 c 128,-1,21
 252 25 252 25 218 20 c 0,22,23
 138 7 138 7 37 15 c 1,24,-1
 37 66 l 1,25,26
 113 59 113 59 173 67 c 0,27,28
 199 71 199 71 223.5 78 c 128,-1,29
 248 85 248 85 267.5 97.5 c 128,-1,30
 287 110 287 110 298.5 127.5 c 128,-1,31
 310 145 310 145 310 171 c 0,32,33
 310 193 310 193 300.5 208.5 c 128,-1,34
 291 224 291 224 277 234.5 c 128,-1,35
 263 245 263 245 244 251 c 128,-1,36
 225 257 225 257 206 261 c 0,37,38
 160 268 160 268 103 262 c 1,39,-1
 103 320 l 2,40,41
 104 321 104 321 122 320.5 c 128,-1,42
 140 320 140 320 166.5 322 c 128,-1,43
 193 324 193 324 224 330.5 c 128,-1,44
 255 337 255 337 281.5 352 c 128,-1,45
 308 367 308 367 325 391 c 128,-1,46
 342 415 342 415 341 453 c 0,47,48
 341 486 341 486 318.5 505 c 128,-1,49
 296 524 296 524 263 531.5 c 128,-1,50
 230 539 230 539 190.5 537 c 128,-1,51
 151 535 151 535 115.5 528 c 128,-1,52
 80 521 80 521 55 510 c 128,-1,53
 30 499 30 499 21 492 c 1,54,-1
 0 571 l 1,0,1
EndSplineSet
Validated: 33
EndChar

StartChar: four
Encoding: 52 52 23
Width: 483
VWidth: 950
GlyphClass: 2
Flags: W
LayerCount: 2
Fore
SplineSet
344 251 m 1,0,1
 345 61 345 61 349.5 52.5 c 128,-1,2
 354 44 354 44 359 36 c 0,3,4
 366 25 366 25 376 12 c 1,5,-1
 227 11 l 1,6,-1
 252 30 l 2,7,8
 275 49 275 49 278 54 c 0,9,10
 280 55 280 55 280 251 c 1,11,-1
 0 251 l 1,12,-1
 294 599 l 1,13,-1
 340 598 l 1,14,-1
 344 307 l 1,15,-1
 444 315 l 1,16,-1
 445 253 l 1,17,-1
 344 251 l 1,0,1
121 295 m 1,18,-1
 279 302 l 1,19,-1
 284 501 l 1,20,-1
 121 295 l 1,18,-1
EndSplineSet
Validated: 1
EndChar

StartChar: five
Encoding: 53 53 24
Width: 411
VWidth: 950
GlyphClass: 2
Flags: W
LayerCount: 2
Fore
SplineSet
347 606 m 1,0,-1
 347 518 l 1,1,-1
 57 517 l 1,2,-1
 58 352 l 1,3,4
 74 352 74 352 102 352.5 c 128,-1,5
 130 353 130 353 162 351 c 128,-1,6
 194 349 194 349 227.5 342 c 128,-1,7
 261 335 261 335 289.5 321 c 128,-1,8
 318 307 318 307 337 284.5 c 128,-1,9
 356 262 356 262 360 227 c 0,10,11
 362 201 362 201 352 178.5 c 128,-1,12
 342 156 342 156 323.5 135.5 c 128,-1,13
 305 115 305 115 280 98 c 128,-1,14
 255 81 255 81 228 67 c 0,15,16
 167 35 167 35 86 11 c 1,17,-1
 62 70 l 1,18,19
 121 88 121 88 167 110 c 0,20,21
 193 122 193 122 211.5 132.5 c 128,-1,22
 230 143 230 143 244 157.5 c 128,-1,23
 258 172 258 172 267 187.5 c 128,-1,24
 276 203 276 203 275 224 c 0,25,26
 274 244 274 244 262 256 c 128,-1,27
 250 268 250 268 230.5 276 c 128,-1,28
 211 284 211 284 184 288.5 c 128,-1,29
 157 293 157 293 132 294 c 0,30,31
 75 296 75 296 0 288 c 1,32,-1
 2 577 l 1,33,-1
 347 606 l 1,0,-1
EndSplineSet
Validated: 33
EndChar

StartChar: six
Encoding: 54 54 25
Width: 420
VWidth: 950
GlyphClass: 2
Flags: W
LayerCount: 2
Fore
SplineSet
218 329 m 0,0,1
 234 329 234 329 259 323 c 128,-1,2
 284 317 284 317 308.5 300.5 c 128,-1,3
 333 284 333 284 351.5 253.5 c 128,-1,4
 370 223 370 223 370 173 c 0,5,6
 370 121 370 121 344.5 89 c 128,-1,7
 319 57 319 57 286.5 41.5 c 128,-1,8
 254 26 254 26 221.5 22 c 128,-1,9
 189 18 189 18 174 18 c 0,10,11
 159 19 159 19 131 27 c 128,-1,12
 103 35 103 35 74.5 56 c 128,-1,13
 46 77 46 77 25 117 c 128,-1,14
 4 157 4 157 4 222 c 1,15,16
 6 208 6 208 6 203 c 256,17,18
 6 198 6 198 6 199.5 c 128,-1,19
 6 201 6 201 4 220 c 0,20,21
 2 248 2 248 11 298 c 128,-1,22
 20 348 20 348 48 406 c 128,-1,23
 76 464 76 464 132.5 523 c 128,-1,24
 189 582 189 582 283 630 c 1,25,26
 297 610 297 610 305 595 c 0,27,28
 312 581 312 581 319 570.5 c 128,-1,29
 326 560 326 560 325 560 c 0,30,31
 265 535 265 535 221 504 c 128,-1,32
 177 473 177 473 146 438 c 128,-1,33
 115 403 115 403 98 367 c 128,-1,34
 81 331 81 331 74 300 c 1,35,36
 159 332 159 332 218 329 c 0,0,1
165 63 m 0,37,38
 202 59 202 59 227.5 73.5 c 128,-1,39
 253 88 253 88 267.5 112 c 128,-1,40
 282 136 282 136 285.5 164.5 c 128,-1,41
 289 193 289 193 282.5 219 c 128,-1,42
 276 245 276 245 258.5 263 c 128,-1,43
 241 281 241 281 215 284 c 0,44,45
 175 287 175 287 151 275 c 128,-1,46
 127 263 127 263 113.5 246 c 128,-1,47
 100 229 100 229 94 209.5 c 128,-1,48
 88 190 88 190 86 177 c 0,49,50
 82 160 82 160 86 139.5 c 128,-1,51
 90 119 90 119 101 102.5 c 128,-1,52
 112 86 112 86 129 75 c 128,-1,53
 146 64 146 64 165 63 c 0,37,38
EndSplineSet
Validated: 37
EndChar

StartChar: seven
Encoding: 55 55 26
Width: 431
VWidth: 950
GlyphClass: 2
Flags: W
LayerCount: 2
Fore
SplineSet
1 587 m 1,0,-1
 382 595 l 1,1,-1
 328 9 l 1,2,-1
 256 11 l 1,3,-1
 327 529 l 1,4,-1
 7 513 l 1,5,-1
 1 587 l 1,0,-1
EndSplineSet
Validated: 1
EndChar

StartChar: eight
Encoding: 56 56 27
Width: 489
VWidth: 950
GlyphClass: 2
Flags: W
LayerCount: 2
Fore
SplineSet
327 349 m 1,0,1
 383 345 383 345 412 318 c 128,-1,2
 441 291 441 291 447.5 254.5 c 128,-1,3
 454 218 454 218 439.5 176 c 128,-1,4
 425 134 425 134 393.5 97.5 c 128,-1,5
 362 61 362 61 313 36.5 c 128,-1,6
 264 12 264 12 203 11 c 0,7,8
 159 10 159 10 120 25.5 c 128,-1,9
 81 41 81 41 55 66.5 c 128,-1,10
 29 92 29 92 18 125 c 128,-1,11
 7 158 7 158 16 193 c 128,-1,12
 25 228 25 228 56 259.5 c 128,-1,13
 87 291 87 291 145 315 c 1,14,15
 109 326 109 326 86 351.5 c 128,-1,16
 63 377 63 377 54.5 408 c 128,-1,17
 46 439 46 439 52 473.5 c 128,-1,18
 58 508 58 508 78 536 c 128,-1,19
 98 564 98 564 131.5 584 c 128,-1,20
 165 604 165 604 212 607 c 0,21,22
 270 610 270 610 309.5 582.5 c 128,-1,23
 349 555 349 555 365.5 513.5 c 128,-1,24
 382 472 382 472 373 426.5 c 128,-1,25
 364 381 364 381 327 349 c 1,0,1
221 564 m 0,26,27
 190 564 190 564 169 547 c 128,-1,28
 148 530 148 530 138 504.5 c 128,-1,29
 128 479 128 479 128 450.5 c 128,-1,30
 128 422 128 422 138 397 c 128,-1,31
 148 372 148 372 168 357.5 c 128,-1,32
 188 343 188 343 220 346 c 0,33,34
 247 347 247 347 266.5 364 c 128,-1,35
 286 381 286 381 294.5 405.5 c 128,-1,36
 303 430 303 430 302.5 457.5 c 128,-1,37
 302 485 302 485 292.5 508.5 c 128,-1,38
 283 532 283 532 264.5 548 c 128,-1,39
 246 564 246 564 221 564 c 0,26,27
229 60 m 0,40,41
 273 60 273 60 305.5 79 c 128,-1,42
 338 98 338 98 354.5 127 c 128,-1,43
 371 156 371 156 373 189.5 c 128,-1,44
 375 223 375 223 363 249.5 c 128,-1,45
 351 276 351 276 322.5 293 c 128,-1,46
 294 310 294 310 250 305 c 0,47,48
 204 301 204 301 171 280.5 c 128,-1,49
 138 260 138 260 118.5 231.5 c 128,-1,50
 99 203 99 203 94 172.5 c 128,-1,51
 89 142 89 142 102.5 115.5 c 128,-1,52
 116 89 116 89 146.5 73 c 128,-1,53
 177 57 177 57 229 60 c 0,40,41
EndSplineSet
Validated: 33
EndChar

StartChar: nine
Encoding: 57 57 28
Width: 377
VWidth: 950
GlyphClass: 2
Flags: W
LayerCount: 2
Fore
SplineSet
334 381 m 0,0,1
 334 343 334 343 325 304 c 128,-1,2
 316 265 316 265 299 230.5 c 128,-1,3
 282 196 282 196 261.5 165.5 c 128,-1,4
 241 135 241 135 220 110 c 0,5,6
 168 50 168 50 102 0 c 1,7,-1
 48 64 l 1,8,9
 102 99 102 99 144 140 c 0,10,11
 181 174 181 174 211 215 c 128,-1,12
 241 256 241 256 244 296 c 1,13,14
 186 270 186 270 140.5 275.5 c 128,-1,15
 95 281 95 281 64.5 302.5 c 128,-1,16
 34 324 34 324 17 352.5 c 128,-1,17
 0 381 0 381 0 407 c 0,18,19
 0 442 0 442 8.5 476 c 128,-1,20
 17 510 17 510 36 538 c 128,-1,21
 55 566 55 566 87.5 584.5 c 128,-1,22
 120 603 120 603 163 604 c 0,23,24
 165 604 165 604 179.5 602 c 128,-1,25
 194 600 194 600 213 594.5 c 128,-1,26
 232 589 232 589 252.5 575 c 128,-1,27
 273 561 273 561 290.5 536 c 128,-1,28
 308 511 308 511 320.5 475 c 128,-1,29
 333 439 333 439 334 381 c 0,0,1
191 325 m 0,30,31
 214 328 214 328 230 347.5 c 128,-1,32
 246 367 246 367 250.5 393.5 c 128,-1,33
 255 420 255 420 250.5 448 c 128,-1,34
 246 476 246 476 231.5 501 c 128,-1,35
 217 526 217 526 193 540 c 128,-1,36
 169 554 169 554 137 551 c 0,37,38
 107 547 107 547 90 528 c 128,-1,39
 73 509 73 509 66.5 482.5 c 128,-1,40
 60 456 60 456 65.5 426 c 128,-1,41
 71 396 71 396 87 372.5 c 128,-1,42
 103 349 103 349 129 334.5 c 128,-1,43
 155 320 155 320 191 325 c 0,30,31
EndSplineSet
Validated: 33
EndChar

StartChar: colon
Encoding: 58 58 29
Width: 155
VWidth: 950
GlyphClass: 2
Flags: W
LayerCount: 2
Fore
SplineSet
82 179 m 0,0,1
 101 165 101 165 104 145.5 c 128,-1,2
 107 126 107 126 96 108 c 0,3,4
 84 91 84 91 63.5 87.5 c 128,-1,5
 43 84 43 84 26 96 c 0,6,7
 8 109 8 109 4.5 128.5 c 128,-1,8
 1 148 1 148 13 167 c 0,9,10
 25 184 25 184 45 187 c 128,-1,11
 65 190 65 190 82 179 c 0,0,1
38 382 m 0,12,13
 23 393 23 393 20 411 c 128,-1,14
 17 429 17 429 27 444 c 0,15,16
 38 458 38 458 55.5 461.5 c 128,-1,17
 73 465 73 465 88 454 c 0,18,19
 103 444 103 444 106.5 426 c 128,-1,20
 110 408 110 408 99 394 c 0,21,22
 89 379 89 379 70.5 375.5 c 128,-1,23
 52 372 52 372 38 382 c 0,12,13
EndSplineSet
Validated: 33
EndChar

StartChar: semicolon
Encoding: 59 59 30
Width: 149
VWidth: 950
GlyphClass: 2
Flags: W
LayerCount: 2
Fore
SplineSet
75 177 m 0,0,1
 81 174 81 174 88.5 161.5 c 128,-1,2
 96 149 96 149 96 129.5 c 128,-1,3
 96 110 96 110 85 86.5 c 128,-1,4
 74 63 74 63 43 37 c 1,5,-1
 16 51 l 1,6,7
 36 66 36 66 45.5 85.5 c 128,-1,8
 55 105 55 105 54 111 c 1,9,10
 44 106 44 106 33 111 c 128,-1,11
 22 116 22 116 18 118 c 0,12,13
 4 126 4 126 2 143 c 128,-1,14
 0 160 0 160 10 171 c 256,15,16
 20 182 20 182 37 185 c 128,-1,17
 54 188 54 188 75 177 c 0,0,1
78 445 m 0,18,19
 95 434 95 434 98 414.5 c 128,-1,20
 101 395 101 395 90 379 c 0,21,22
 79 362 79 362 60 359 c 128,-1,23
 41 356 41 356 25 368 c 0,24,25
 7 379 7 379 4 398.5 c 128,-1,26
 1 418 1 418 12 434 c 256,27,28
 23 450 23 450 42.5 453 c 128,-1,29
 62 456 62 456 78 445 c 0,18,19
EndSplineSet
Validated: 33
EndChar

StartChar: less
Encoding: 60 60 31
Width: 199
VWidth: 950
GlyphClass: 2
Flags: W
LayerCount: 2
Fore
SplineSet
127 418 m 1,0,-1
 149 387 l 1,1,-1
 41 296 l 1,2,-1
 145 215 l 1,3,-1
 117 175 l 1,4,-1
 1 286 l 1,5,-1
 127 418 l 1,0,-1
EndSplineSet
Validated: 1
EndChar

StartChar: equal
Encoding: 61 61 32
Width: 307
VWidth: 950
GlyphClass: 2
Flags: W
LayerCount: 2
Fore
SplineSet
5 245 m 1,0,-1
 3 274 l 1,1,-1
 248 286 l 1,2,-1
 248 246 l 1,3,-1
 5 245 l 1,0,-1
254 336 m 1,4,-1
 256 308 l 1,5,-1
 9 315 l 1,6,-1
 13 355 l 1,7,-1
 254 336 l 1,4,-1
EndSplineSet
Validated: 1
EndChar

StartChar: greater
Encoding: 62 62 33
Width: 200
VWidth: 950
GlyphClass: 2
Flags: W
LayerCount: 2
Fore
SplineSet
24 176 m 1,0,-1
 1 207 l 1,1,-1
 110 298 l 1,2,-1
 3 381 l 1,3,-1
 33 421 l 1,4,-1
 151 308 l 1,5,-1
 24 176 l 1,0,-1
EndSplineSet
Validated: 1
EndChar

StartChar: question
Encoding: 63 63 34
Width: 531
VWidth: 950
GlyphClass: 2
Flags: W
LayerCount: 2
Fore
SplineSet
466 529 m 0,0,1
 483 498 483 498 482.5 469 c 128,-1,2
 482 440 482 440 469.5 415.5 c 128,-1,3
 457 391 457 391 435.5 369 c 128,-1,4
 414 347 414 347 388 329 c 0,5,6
 329 287 329 287 243 254 c 1,7,-1
 293 106 l 1,8,-1
 233 92 l 1,9,-1
 187 285 l 1,10,11
 260 305 260 305 310 338 c 0,12,13
 333 351 333 351 351.5 367.5 c 128,-1,14
 370 384 370 384 381.5 404.5 c 128,-1,15
 393 425 393 425 394 449.5 c 128,-1,16
 395 474 395 474 382 501 c 0,17,18
 366 536 366 536 337 550 c 128,-1,19
 308 564 308 564 270 566.5 c 128,-1,20
 232 569 232 569 178 551 c 128,-1,21
 124 533 124 533 58 466 c 1,22,-1
 -1 525 l 1,23,24
 17 540 17 540 52 558.5 c 128,-1,25
 87 577 87 577 131 594 c 128,-1,26
 175 611 175 611 224 616 c 128,-1,27
 273 621 273 621 319.5 616 c 128,-1,28
 366 611 366 611 404 590.5 c 128,-1,29
 442 570 442 570 466 529 c 0,0,1
291 42 m 0,30,31
 304 38 304 38 311 22 c 128,-1,32
 318 6 318 6 313 -13 c 0,33,34
 308 -31 308 -31 294.5 -41.5 c 128,-1,35
 281 -52 281 -52 267 -48 c 0,36,37
 254 -45 254 -45 247 -29 c 128,-1,38
 240 -13 240 -13 245 6 c 0,39,40
 250 24 250 24 263.5 34.5 c 128,-1,41
 277 45 277 45 291 42 c 0,30,31
EndSplineSet
Validated: 33
EndChar

StartChar: at
Encoding: 64 64 35
Width: 475
VWidth: 950
GlyphClass: 2
Flags: W
LayerCount: 2
Fore
SplineSet
232 448 m 0,0,1
 235 448 235 448 250.5 447 c 128,-1,2
 266 446 266 446 287 440.5 c 128,-1,3
 308 435 308 435 332.5 424 c 128,-1,4
 357 413 357 413 376.5 392.5 c 128,-1,5
 396 372 396 372 409.5 341 c 128,-1,6
 423 310 423 310 423 266 c 0,7,8
 420 229 420 229 407.5 208.5 c 128,-1,9
 395 188 395 188 381.5 177.5 c 128,-1,10
 368 167 368 167 355.5 165 c 128,-1,11
 343 163 343 163 341 163 c 1,12,13
 345 163 345 163 340 162.5 c 128,-1,14
 335 162 335 162 326 164 c 128,-1,15
 317 166 317 166 306 171.5 c 128,-1,16
 295 177 295 177 285 189 c 1,17,18
 284 183 284 183 276 175 c 128,-1,19
 268 167 268 167 257 161 c 128,-1,20
 246 155 246 155 234 151 c 128,-1,21
 222 147 222 147 212 147 c 0,22,23
 198 147 198 147 182 156 c 128,-1,24
 166 165 166 165 153.5 180.5 c 128,-1,25
 141 196 141 196 135.5 217.5 c 128,-1,26
 130 239 130 239 137 266 c 0,27,28
 140 279 140 279 148 295.5 c 128,-1,29
 156 312 156 312 169 327 c 128,-1,30
 182 342 182 342 201.5 351.5 c 128,-1,31
 221 361 221 361 246 361 c 0,32,33
 269 358 269 358 281.5 345 c 128,-1,34
 294 332 294 332 299 314 c 128,-1,35
 304 296 304 296 305.5 274 c 128,-1,36
 307 252 307 252 310 235 c 128,-1,37
 313 218 313 218 319.5 207.5 c 128,-1,38
 326 197 326 197 341 199 c 0,39,40
 356 202 356 202 365.5 218.5 c 128,-1,41
 375 235 375 235 377.5 257.5 c 128,-1,42
 380 280 380 280 374 306 c 128,-1,43
 368 332 368 332 350.5 354 c 128,-1,44
 333 376 333 376 304.5 390 c 128,-1,45
 276 404 276 404 233 404 c 0,46,47
 172 403 172 403 138 379.5 c 128,-1,48
 104 356 104 356 87.5 327 c 128,-1,49
 71 298 71 298 66.5 271.5 c 128,-1,50
 62 245 62 245 62 237 c 0,51,52
 61 220 61 220 66 197.5 c 128,-1,53
 71 175 71 175 82 152.5 c 128,-1,54
 93 130 93 130 111.5 110.5 c 128,-1,55
 130 91 130 91 158.5 80.5 c 128,-1,56
 187 70 187 70 225 71 c 128,-1,57
 263 72 263 72 313 92 c 0,58,59
 314 92 314 92 316 86 c 128,-1,60
 318 80 318 80 321 71 c 0,61,62
 325 61 325 61 329 49 c 1,63,64
 319 42 319 42 291.5 35.5 c 128,-1,65
 264 29 264 29 227.5 28 c 128,-1,66
 191 27 191 27 151.5 34.5 c 128,-1,67
 112 42 112 42 79 65 c 128,-1,68
 46 88 46 88 24.5 129 c 128,-1,69
 3 170 3 170 2 234 c 0,70,71
 3 309 3 309 33.5 352.5 c 128,-1,72
 64 396 64 396 103.5 418 c 128,-1,73
 143 440 143 440 180 445 c 128,-1,74
 217 450 217 450 232 448 c 0,0,1
216 185 m 0,75,76
 231 183 231 183 242 193 c 128,-1,77
 253 203 253 203 259.5 219 c 128,-1,78
 266 235 266 235 268.5 255 c 128,-1,79
 271 275 271 275 268 291.5 c 128,-1,80
 265 308 265 308 257.5 319.5 c 128,-1,81
 250 331 250 331 235 331 c 0,82,83
 215 332 215 332 201 311 c 128,-1,84
 187 290 187 290 182.5 264 c 128,-1,85
 178 238 178 238 185 214.5 c 128,-1,86
 192 191 192 191 216 185 c 0,75,76
EndSplineSet
Validated: 33
EndChar

StartChar: A
Encoding: 65 65 36
Width: 496
VWidth: 950
GlyphClass: 2
Flags: W
LayerCount: 2
Fore
SplineSet
0 -50 m 1,0,-1
 206 655 l 1,1,-1
 480 -40 l 1,2,-1
 365 -48 l 1,3,-1
 388 -17 l 1,4,-1
 200 480 l 1,5,-1
 140 244 l 1,6,-1
 303 256 l 1,7,-1
 314 203 l 1,8,-1
 129 192 l 1,9,-1
 65 -23 l 1,10,-1
 90 -50 l 1,11,-1
 1 -49 l 1,12,-1
 0 -50 l 1,0,-1
EndSplineSet
Validated: 5
EndChar

StartChar: B
Encoding: 66 66 37
Width: 495
VWidth: 950
GlyphClass: 2
Flags: W
LayerCount: 2
Fore
SplineSet
1 649 m 1,0,1
 23 649 23 649 57.5 649.5 c 128,-1,2
 92 650 92 650 130 648.5 c 128,-1,3
 168 647 168 647 207.5 639.5 c 128,-1,4
 247 632 247 632 278.5 617.5 c 128,-1,5
 310 603 310 603 330.5 577.5 c 128,-1,6
 351 552 351 552 353 513 c 0,7,8
 355 464 355 464 329.5 428.5 c 128,-1,9
 304 393 304 393 272 371 c 0,10,11
 234 347 234 347 197 338 c 1,12,13
 264 346 264 346 325 327 c 0,14,15
 351 317 351 317 375.5 301.5 c 128,-1,16
 400 286 400 286 421 257 c 128,-1,17
 442 228 442 228 451 200.5 c 128,-1,18
 460 173 460 173 459 139 c 0,19,20
 458 94 458 94 438 61.5 c 128,-1,21
 418 29 418 29 385.5 7 c 128,-1,22
 353 -15 353 -15 310.5 -27.5 c 128,-1,23
 268 -40 268 -40 220 -45 c 128,-1,24
 172 -50 172 -50 123 -49 c 128,-1,25
 74 -48 74 -48 27 -43 c 1,26,27
 27 -24 27 -24 26.5 -14 c 128,-1,28
 26 -4 26 -4 26 1.5 c 128,-1,29
 26 7 26 7 26 8.5 c 128,-1,30
 26 10 26 10 26 12 c 1,31,32
 26 12 26 12 51.5 6.5 c 128,-1,33
 77 1 77 1 116 -1.5 c 128,-1,34
 155 -4 155 -4 201.5 -1 c 128,-1,35
 248 2 248 2 287.5 17 c 128,-1,36
 327 32 327 32 355 64.5 c 128,-1,37
 383 97 383 97 386 154 c 0,38,39
 386 195 386 195 367 221 c 128,-1,40
 348 247 348 247 317.5 263 c 128,-1,41
 287 279 287 279 250 284 c 128,-1,42
 213 289 213 289 182 290 c 128,-1,43
 151 291 151 291 130 289.5 c 128,-1,44
 109 288 109 288 109 288 c 1,45,46
 109 289 109 289 109 298.5 c 128,-1,47
 109 308 109 308 110 319 c 0,48,49
 110 332 110 332 111 355 c 1,50,51
 163 364 163 364 204 382 c 0,52,53
 221 390 221 390 238 400.5 c 128,-1,54
 255 411 255 411 267.5 427 c 128,-1,55
 280 443 280 443 286.5 463.5 c 128,-1,56
 293 484 293 484 292 510 c 0,57,58
 291 538 291 538 277.5 554.5 c 128,-1,59
 264 571 264 571 243.5 580 c 128,-1,60
 223 589 223 589 200 592 c 128,-1,61
 177 595 177 595 156.5 595 c 128,-1,62
 136 595 136 595 109 594 c 1,63,-1
 131 -26 l 1,64,-1
 57 -22 l 1,65,66
 60 592 60 592 60 592 c 1,67,68
 59 592 59 592 50 592 c 128,-1,69
 41 592 41 592 29 591 c 2,70,-1
 0 589 l 1,71,-1
 1 649 l 1,0,1
EndSplineSet
Validated: 37
EndChar

StartChar: C
Encoding: 67 67 38
Width: 520
VWidth: 950
GlyphClass: 2
Flags: W
LayerCount: 2
Fore
SplineSet
473 638 m 1,0,-1
 440 558 l 1,1,2
 338 584 338 584 259 567 c 0,3,4
 225 559 225 559 193.5 541.5 c 128,-1,5
 162 524 162 524 138.5 491.5 c 128,-1,6
 115 459 115 459 102 409 c 128,-1,7
 89 359 89 359 93 287 c 0,8,9
 96 210 96 210 111.5 159 c 128,-1,10
 127 108 127 108 149.5 76.5 c 128,-1,11
 172 45 172 45 200.5 29.5 c 128,-1,12
 229 14 229 14 258 10 c 0,13,14
 326 0 326 0 410 38 c 1,15,-1
 444 -39 l 1,16,17
 318 -59 318 -59 221 -31 c 0,18,19
 179 -20 179 -20 140.5 4 c 128,-1,20
 102 28 102 28 72 67 c 128,-1,21
 42 106 42 106 24.5 165 c 128,-1,22
 7 224 7 224 10 306 c 0,23,24
 14 390 14 390 52 456.5 c 128,-1,25
 90 523 90 523 153 567.5 c 128,-1,26
 216 612 216 612 299 630.5 c 128,-1,27
 382 649 382 649 473 638 c 1,0,-1
EndSplineSet
Validated: 33
EndChar

StartChar: D
Encoding: 68 68 39
Width: 572
VWidth: 950
GlyphClass: 2
Flags: W
LayerCount: 2
Fore
SplineSet
2 629 m 1,0,1
 127 652 127 652 233 633 c 0,2,3
 278 625 278 625 323 607.5 c 128,-1,4
 368 590 368 590 407 558 c 128,-1,5
 446 526 446 526 475.5 477.5 c 128,-1,6
 505 429 505 429 520 360 c 0,7,8
 536 269 536 269 523.5 204 c 128,-1,9
 511 139 511 139 479.5 93 c 128,-1,10
 448 47 448 47 402.5 19.5 c 128,-1,11
 357 -8 357 -8 308 -23 c 0,12,13
 190 -59 190 -59 32 -42 c 1,14,-1
 30 14 l 1,15,16
 151 -6 151 -6 243 16 c 0,17,18
 283 25 283 25 320.5 44.5 c 128,-1,19
 358 64 358 64 389 98 c 128,-1,20
 420 132 420 132 435.5 183 c 128,-1,21
 451 234 451 234 446 307 c 0,22,23
 443 367 443 367 426 409.5 c 128,-1,24
 409 452 409 452 384.5 483.5 c 128,-1,25
 360 515 360 515 331.5 533.5 c 128,-1,26
 303 552 303 552 272 563 c 0,27,28
 203 588 203 588 122 582 c 1,29,-1
 135 -10 l 1,30,-1
 69 0 l 1,31,-1
 69 579 l 1,32,-1
 8 570 l 1,33,-1
 2 629 l 1,0,1
EndSplineSet
Validated: 37
EndChar

StartChar: E
Encoding: 69 69 40
Width: 498
VWidth: 950
GlyphClass: 2
Flags: W
LayerCount: 2
Fore
SplineSet
0 650 m 1,0,-1
 463 643 l 1,1,-1
 462 525 l 1,2,3
 441 542 441 542 423 557 c 128,-1,4
 405 572 405 572 385 588 c 1,5,-1
 114 591 l 1,6,-1
 116 351 l 1,7,-1
 305 360 l 1,8,-1
 305 296 l 1,9,-1
 117 296 l 1,10,-1
 124 7 l 1,11,12
 349 11 349 11 350 12 c 0,13,14
 353 13 353 13 433 66 c 1,15,-1
 433 -48 l 1,16,-1
 24 -48 l 1,17,-1
 24 7 l 1,18,-1
 53 5 l 1,19,-1
 53 593 l 1,20,-1
 0 593 l 1,21,-1
 0 650 l 1,0,-1
EndSplineSet
Validated: 1
EndChar

StartChar: F
Encoding: 70 70 41
Width: 501
VWidth: 950
GlyphClass: 2
Flags: W
LayerCount: 2
Fore
SplineSet
0 648 m 1,0,-1
 471 646 l 1,1,-1
 468 513 l 1,2,3
 456 531 456 531 445 547 c 0,4,5
 436 560 436 560 426.5 572.5 c 128,-1,6
 417 585 417 585 410 587 c 0,7,8
 407 588 407 588 391 588.5 c 128,-1,9
 375 589 375 589 102 586 c 1,10,-1
 107 348 l 1,11,-1
 285 354 l 1,12,-1
 283 291 l 1,13,-1
 108 292 l 1,14,15
 117 7 117 7 118 4 c 0,16,17
 120 -1 120 -1 185 -49 c 1,18,-1
 10 -49 l 1,19,20
 48 -13 48 -13 49 -9 c 0,21,22
 49 -7 49 -7 45 293.5 c 128,-1,23
 41 594 41 594 44 589 c 1,24,-1
 2 589 l 1,25,-1
 0 648 l 1,0,-1
EndSplineSet
Validated: 37
EndChar

StartChar: G
Encoding: 71 71 42
Width: 544
VWidth: 950
GlyphClass: 2
Flags: W
LayerCount: 2
Fore
SplineSet
477 643 m 1,0,-1
 480 526 l 1,1,-1
 457 555 l 2,2,3
 448 567 448 567 439.5 576.5 c 128,-1,4
 431 586 431 586 426 587 c 0,5,6
 367 593 367 593 310.5 577 c 128,-1,7
 254 561 254 561 206.5 525 c 128,-1,8
 159 489 159 489 129.5 433.5 c 128,-1,9
 100 378 100 378 96 305 c 0,10,11
 91 235 91 235 108.5 176 c 128,-1,12
 126 117 126 117 168.5 76 c 128,-1,13
 211 35 211 35 272 15.5 c 128,-1,14
 333 -4 333 -4 418 10 c 1,15,-1
 392 289 l 1,16,-1
 210 281 l 1,17,-1
 207 340 l 1,18,-1
 444 344 l 1,19,-1
 492 -33 l 1,20,21
 355 -60 355 -60 244 -36 c 0,22,23
 197 -26 197 -26 152.5 -3.5 c 128,-1,24
 108 19 108 19 75.5 59 c 128,-1,25
 43 99 43 99 25.5 159.5 c 128,-1,26
 8 220 8 220 15 307 c 0,27,28
 18 366 18 366 43 415.5 c 128,-1,29
 68 465 68 465 105.5 507.5 c 128,-1,30
 143 550 143 550 190.5 578 c 128,-1,31
 238 606 238 606 288.5 623 c 128,-1,32
 339 640 339 640 388 644 c 128,-1,33
 437 648 437 648 477 643 c 1,0,-1
EndSplineSet
Validated: 33
EndChar

StartChar: H
Encoding: 72 72 43
Width: 522
VWidth: 950
GlyphClass: 2
Flags: W
LayerCount: 2
Fore
SplineSet
363 -47 m 1,0,1
 377 -30 377 -30 390 -7 c 1,2,3
 391 73 391 73 386 178 c 1,4,-1
 71 165 l 1,5,-1
 69 -49 l 1,6,-1
 2 -49 l 1,7,-1
 1 646 l 1,8,-1
 110 650 l 1,9,10
 108 652 108 652 79 597 c 0,11,12
 74 580 74 580 71 217 c 1,13,-1
 383 225 l 1,14,-1
 364 639 l 1,15,-1
 436 643 l 1,16,-1
 464 -48 l 1,17,-1
 363 -47 l 1,0,1
EndSplineSet
Validated: 37
EndChar

StartChar: I
Encoding: 73 73 44
Width: 216
VWidth: 950
GlyphClass: 2
Flags: W
LayerCount: 2
Fore
SplineSet
2 649 m 1,0,-1
 138 649 l 1,1,2
 129 641 129 641 122 634 c 0,3,4
 117 628 117 628 111 622 c 128,-1,5
 105 616 105 616 104 612 c 0,6,7
 104 611 104 611 106 309 c 128,-1,8
 108 7 108 7 109 6 c 0,9,10
 111 3 111 3 169 -48 c 1,11,-1
 4 -50 l 1,12,13
 32 -23 32 -23 37 -13 c 0,14,15
 39 -9 39 -9 41.5 295.5 c 128,-1,16
 44 600 44 600 44 603 c 0,17,18
 41 608 41 608 35 615.5 c 128,-1,19
 29 623 29 623 2 649 c 1,0,-1
EndSplineSet
Validated: 1
EndChar

StartChar: J
Encoding: 74 74 45
Width: 356
VWidth: 950
GlyphClass: 2
Flags: W
LayerCount: 2
Fore
SplineSet
258 649 m 1,0,1
 271 549 271 549 277.5 502 c 128,-1,2
 284 455 284 455 290 395.5 c 128,-1,3
 296 336 296 336 300 274.5 c 128,-1,4
 304 213 304 213 300.5 153 c 128,-1,5
 297 93 297 93 278.5 48 c 128,-1,6
 260 3 260 3 229.5 -24 c 128,-1,7
 199 -51 199 -51 153 -49 c 0,8,9
 124 -48 124 -48 103.5 -36 c 128,-1,10
 83 -24 83 -24 66.5 -6 c 128,-1,11
 50 12 50 12 39 35 c 128,-1,12
 28 58 28 58 20 81 c 0,13,14
 3 136 3 136 0 205 c 1,15,-1
 66 202 l 1,16,17
 66 188 66 188 68 155 c 128,-1,18
 70 122 70 122 78.5 90.5 c 128,-1,19
 87 59 87 59 112.5 34 c 128,-1,20
 138 9 138 9 165 13 c 0,21,22
 204 18 204 18 222 49 c 128,-1,23
 240 80 240 80 243.5 121.5 c 128,-1,24
 247 163 247 163 244.5 215 c 128,-1,25
 242 267 242 267 236 319 c 0,26,27
 221 446 221 446 186 647 c 1,28,-1
 258 649 l 1,0,1
EndSplineSet
Validated: 33
EndChar

StartChar: K
Encoding: 75 75 46
Width: 510
VWidth: 950
GlyphClass: 2
Flags: W
LayerCount: 2
Fore
SplineSet
0 649 m 1,0,-1
 141 647 l 1,1,-1
 112 627 l 2,2,3
 82 606 82 606 82 604 c 2,4,-1
 87 420 l 1,5,-1
 385 616 l 1,6,-1
 430 575 l 1,7,-1
 179 427 l 1,8,-1
 488 53 l 1,9,-1
 425 1 l 1,10,-1
 133 398 l 1,11,-1
 85 369 l 1,12,-1
 95 -7 l 2,13,14
 96 -10 96 -10 122 -28 c 2,15,-1
 149 -46 l 1,16,-1
 3 -50 l 1,17,18
 27 -9 27 -9 27 -8 c 2,19,20
 27 -8 27 -8 25 305.5 c 128,-1,21
 23 619 23 619 23 620 c 1,22,23
 22 620 22 620 0 649 c 1,0,-1
EndSplineSet
Validated: 1
EndChar

StartChar: L
Encoding: 76 76 47
Width: 487
VWidth: 950
GlyphClass: 2
Flags: W
LayerCount: 2
Fore
SplineSet
0 650 m 1,0,-1
 152 650 l 1,1,2
 115 626 115 626 108.5 618.5 c 128,-1,3
 102 611 102 611 101 609 c 0,4,5
 100 608 100 608 99 580.5 c 128,-1,6
 98 553 98 553 97 5 c 1,7,8
 395 12 395 12 398 15 c 0,9,10
 403 16 403 16 448 73 c 1,11,-1
 447 -49 l 1,12,-1
 32 -51 l 1,13,-1
 28 625 l 1,14,15
 15 636 15 636 0 650 c 1,0,-1
EndSplineSet
Validated: 1
EndChar

StartChar: M
Encoding: 77 77 48
Width: 608
VWidth: 950
GlyphClass: 2
Flags: W
LayerCount: 2
Fore
SplineSet
10 649 m 1,0,-1
 138 646 l 1,1,-1
 318 248 l 1,2,-1
 492 606 l 1,3,-1
 555 610 l 1,4,-1
 554 -19 l 1,5,-1
 436 -20 l 1,6,7
 447 -15 447 -15 457 -10 c 0,8,9
 465 -6 465 -6 485 7 c 0,10,11
 486 8 486 8 488 495 c 1,12,-1
 298 112 l 1,13,-1
 95 556 l 1,14,15
 105 -15 105 -15 107 -16 c 0,16,17
 109 -19 109 -19 123 -25 c 128,-1,18
 137 -31 137 -31 181 -49 c 1,19,-1
 1 -49 l 1,20,21
 13 -40 13 -40 25 -31 c 0,22,23
 34 -23 34 -23 42 -15.5 c 128,-1,24
 50 -8 50 -8 51 -4 c 0,25,26
 51 -1 51 -1 48.5 299.5 c 128,-1,27
 46 600 46 600 45 601 c 0,28,29
 43 604 43 604 37.5 612 c 128,-1,30
 32 620 32 620 26 629 c 0,31,32
 19 639 19 639 10 649 c 1,0,-1
EndSplineSet
Validated: 1
EndChar

StartChar: N
Encoding: 78 78 49
Width: 530
VWidth: 950
GlyphClass: 2
Flags: W
LayerCount: 2
Fore
SplineSet
6 610 m 1,0,-1
 80 613 l 1,1,-1
 423 149 l 1,2,3
 417 607 417 607 416 610 c 0,4,5
 413 613 413 613 406 620 c 128,-1,6
 399 627 399 627 391 634 c 2,7,-1
 370 648 l 1,8,-1
 471 649 l 1,9,-1
 477 -48 l 1,10,-1
 63 503 l 1,11,12
 82 -2 82 -2 83 -7 c 0,13,14
 86 -12 86 -12 94 -20 c 128,-1,15
 102 -28 102 -28 111 -34 c 0,16,17
 122 -42 122 -42 135 -49 c 1,18,-1
 0 -49 l 1,19,-1
 28 -17 l 1,20,-1
 6 610 l 1,0,-1
EndSplineSet
Validated: 1
EndChar

StartChar: O
Encoding: 79 79 50
Width: 639
VWidth: 950
GlyphClass: 2
Flags: W
LayerCount: 2
Fore
SplineSet
297 651 m 0,0,1
 378 650 378 650 444 620 c 0,2,3
 473 608 473 608 500 587 c 128,-1,4
 527 566 527 566 549.5 533.5 c 128,-1,5
 572 501 572 501 586 455.5 c 128,-1,6
 600 410 600 410 603 351 c 0,7,8
 604 252 604 252 579 178 c 128,-1,9
 554 104 554 104 512 54 c 128,-1,10
 470 4 470 4 416.5 -22 c 128,-1,11
 363 -48 363 -48 307 -49 c 256,12,13
 251 -50 251 -50 195.5 -29 c 128,-1,14
 140 -8 140 -8 96.5 37.5 c 128,-1,15
 53 83 53 83 28 154 c 128,-1,16
 3 225 3 225 9 323 c 0,17,18
 13 415 13 415 39.5 475 c 128,-1,19
 66 535 66 535 101 571 c 128,-1,20
 136 607 136 607 183.5 628.5 c 128,-1,21
 231 650 231 650 297 651 c 0,0,1
519 294 m 0,22,23
 524 365 524 365 511.5 416 c 128,-1,24
 499 467 499 467 476.5 503 c 128,-1,25
 454 539 454 539 427 561.5 c 128,-1,26
 400 584 400 584 369 596.5 c 128,-1,27
 338 609 338 609 300 610 c 0,28,29
 295 610 295 610 279.5 609.5 c 128,-1,30
 264 609 264 609 243.5 604.5 c 128,-1,31
 223 600 223 600 201.5 588.5 c 128,-1,32
 180 577 180 577 157 555.5 c 128,-1,33
 134 534 134 534 117 492 c 128,-1,34
 100 450 100 450 93 389 c 0,35,36
 82 297 82 297 99 222.5 c 128,-1,37
 116 148 116 148 149 95.5 c 128,-1,38
 182 43 182 43 226 15.5 c 128,-1,39
 270 -12 270 -12 313 -10 c 0,40,41
 335 -10 335 -10 367 -1.5 c 128,-1,42
 399 7 399 7 430 37 c 128,-1,43
 461 67 461 67 486 127.5 c 128,-1,44
 511 188 511 188 519 294 c 0,22,23
EndSplineSet
Validated: 33
EndChar

StartChar: P
Encoding: 80 80 51
Width: 484
VWidth: 950
GlyphClass: 2
Flags: W
LayerCount: 2
Fore
SplineSet
1 639 m 1,0,1
 124 652 124 652 222 645 c 0,2,3
 264 641 264 641 303.5 631.5 c 128,-1,4
 343 622 343 622 374.5 606.5 c 128,-1,5
 406 591 406 591 425.5 567 c 128,-1,6
 445 543 445 543 445 509 c 0,7,8
 445 464 445 464 427.5 434 c 128,-1,9
 410 404 410 404 381 385 c 128,-1,10
 352 366 352 366 316 357 c 128,-1,11
 280 348 280 348 243 344 c 128,-1,12
 206 340 206 340 118 336 c 0,13,14
 85 336 85 336 80 341 c 128,-1,15
 75 346 75 346 84 353 c 0,16,17
 93 361 93 361 117 376 c 1,18,19
 194 374 194 374 252 388 c 0,20,21
 277 394 277 394 300.5 403 c 128,-1,22
 324 412 324 412 341.5 425 c 128,-1,23
 359 438 359 438 367.5 455.5 c 128,-1,24
 376 473 376 473 373 497 c 0,25,26
 365 542 365 542 333 564 c 128,-1,27
 301 586 301 586 260.5 594 c 128,-1,28
 220 602 220 602 178.5 599.5 c 128,-1,29
 137 597 137 597 111 594 c 1,30,31
 132 15 132 15 132 14 c 0,32,33
 134 12 134 12 142.5 3 c 128,-1,34
 151 -6 151 -6 161 -15 c 0,35,36
 173 -27 173 -27 187 -40 c 1,37,-1
 30 -47 l 1,38,39
 38 -40 38 -40 44 -35 c 0,40,41
 50 -29 50 -29 54.5 -24.5 c 128,-1,42
 59 -20 59 -20 60 -18 c 0,43,44
 60 -16 60 -16 55 588 c 1,45,-1
 4 582 l 1,46,-1
 1 639 l 1,0,1
EndSplineSet
Validated: 37
EndChar

StartChar: Q
Encoding: 81 81 52
Width: 624
VWidth: 950
GlyphClass: 2
Flags: W
LayerCount: 2
Fore
SplineSet
589 286 m 0,0,1
 584 180 584 180 552.5 117 c 128,-1,2
 521 54 521 54 479 19 c 1,3,-1
 556 -58 l 1,4,-1
 496 -107 l 1,5,-1
 421 -17 l 1,6,7
 400 -26 400 -26 381.5 -31.5 c 128,-1,8
 363 -37 363 -37 348 -39 c 128,-1,9
 333 -41 333 -41 323 -41.5 c 128,-1,10
 313 -42 313 -42 309 -42 c 0,11,12
 304 -42 304 -42 279.5 -41.5 c 128,-1,13
 255 -41 255 -41 222.5 -33.5 c 128,-1,14
 190 -26 190 -26 153 -9 c 128,-1,15
 116 8 116 8 84 40 c 128,-1,16
 52 72 52 72 29.5 123 c 128,-1,17
 7 174 7 174 3 250 c 0,18,19
 1 347 1 347 25 421.5 c 128,-1,20
 49 496 49 496 89.5 545.5 c 128,-1,21
 130 595 130 595 183 621 c 128,-1,22
 236 647 236 647 291 649 c 0,23,24
 346 650 346 650 401.5 630 c 128,-1,25
 457 610 457 610 500 565 c 128,-1,26
 543 520 543 520 568.5 450.5 c 128,-1,27
 594 381 594 381 589 286 c 0,0,1
448 50 m 1,28,29
 469 76 469 76 484.5 116.5 c 128,-1,30
 500 157 500 157 507 218 c 0,31,32
 517 309 517 309 499 382 c 128,-1,33
 481 455 481 455 448 507 c 128,-1,34
 415 559 415 559 371 586 c 128,-1,35
 327 613 327 613 286 611 c 0,36,37
 264 610 264 610 237.5 601 c 128,-1,38
 211 592 211 592 175.5 562 c 128,-1,39
 140 532 140 532 116 472.5 c 128,-1,40
 92 413 92 413 85 308 c 0,41,42
 82 238 82 238 95 187.5 c 128,-1,43
 108 137 108 137 130 102 c 128,-1,44
 152 67 152 67 179.5 45 c 128,-1,45
 207 23 207 23 232 11.5 c 128,-1,46
 257 0 257 0 277 -4.5 c 128,-1,47
 297 -9 297 -9 302 -9 c 0,48,49
 311 -11 311 -11 338 -9 c 128,-1,50
 365 -7 365 -7 398 10 c 1,51,-1
 292 136 l 1,52,-1
 332 167 l 1,53,-1
 448 50 l 1,28,29
EndSplineSet
Validated: 33
EndChar

StartChar: R
Encoding: 82 82 53
Width: 600
VWidth: 950
GlyphClass: 2
Flags: W
LayerCount: 2
Fore
SplineSet
576 34 m 1,0,-1
 513 -17 l 1,1,2
 457 68 457 68 414 135 c 0,3,4
 393 165 393 165 374.5 192 c 128,-1,5
 356 219 356 219 341 241 c 0,6,7
 326 266 326 266 311 284 c 1,8,9
 303 282 303 282 276 277 c 128,-1,10
 249 272 249 272 214 267 c 0,11,12
 172 261 172 261 126 258 c 1,13,14
 139 25 139 25 139 23 c 0,15,16
 139 20 139 20 148 9.5 c 128,-1,17
 157 -1 157 -1 169 -14 c 0,18,19
 181 -28 181 -28 197 -43 c 1,20,-1
 46 -49 l 1,21,22
 54 -38 54 -38 60 -27 c 0,23,24
 66 -18 66 -18 70 -11.5 c 128,-1,25
 74 -5 74 -5 74 -3 c 256,26,27
 74 -1 74 -1 51 592 c 1,28,-1
 6 588 l 1,29,-1
 0 647 l 1,30,31
 49 649 49 649 104.5 650 c 128,-1,32
 160 651 160 651 216 649 c 128,-1,33
 272 647 272 647 323.5 638.5 c 128,-1,34
 375 630 375 630 415 609 c 128,-1,35
 455 588 455 588 479.5 553.5 c 128,-1,36
 504 519 504 519 506 465 c 0,37,38
 506 412 506 412 482.5 380 c 128,-1,39
 459 348 459 348 431 330 c 0,40,41
 398 310 398 310 356 297 c 1,42,-1
 576 34 l 1,0,-1
122 300 m 1,43,44
 207 302 207 302 275 317 c 0,45,46
 303 324 303 324 335 336.5 c 128,-1,47
 367 349 367 349 387 367.5 c 128,-1,48
 407 386 407 386 420 410.5 c 128,-1,49
 433 435 433 435 431 469 c 0,50,51
 427 502 427 502 410.5 525.5 c 128,-1,52
 394 549 394 549 371.5 564 c 128,-1,53
 349 579 349 579 320 587 c 128,-1,54
 291 595 291 595 255 600 c 0,55,56
 186 606 186 606 106 596 c 1,57,-1
 122 300 l 1,43,44
EndSplineSet
Validated: 33
EndChar

StartChar: S
Encoding: 83 83 54
Width: 380
VWidth: 950
GlyphClass: 2
Flags: W
LayerCount: 2
Fore
SplineSet
331 648 m 1,0,-1
 331 582 l 1,1,2
 319 586 319 586 301 590 c 128,-1,3
 283 594 283 594 267.5 594.5 c 128,-1,4
 252 595 252 595 222.5 589.5 c 128,-1,5
 193 584 193 584 164 565 c 128,-1,6
 135 546 135 546 107.5 515.5 c 128,-1,7
 80 485 80 485 78 427 c 0,8,9
 78 388 78 388 102 357 c 128,-1,10
 126 326 126 326 153.5 306.5 c 128,-1,11
 181 287 181 287 213 268.5 c 128,-1,12
 245 250 245 250 273.5 227.5 c 128,-1,13
 302 205 302 205 321.5 175.5 c 128,-1,14
 341 146 341 146 342 103 c 0,15,16
 343 69 343 69 331 44 c 128,-1,17
 319 19 319 19 299 1.5 c 128,-1,18
 279 -16 279 -16 253 -26 c 128,-1,19
 227 -36 227 -36 200 -41 c 0,20,21
 136 -53 136 -53 53 -46 c 1,22,-1
 75 70 l 1,23,24
 81 55 81 55 85 42 c 0,25,26
 90 31 90 31 94.5 21 c 128,-1,27
 99 11 99 11 103 6 c 0,28,29
 106 3 106 3 123 1 c 128,-1,30
 140 -1 140 -1 162 1.5 c 128,-1,31
 184 4 184 4 208 12.5 c 128,-1,32
 232 21 232 21 248 38 c 128,-1,33
 264 55 264 55 267 83 c 128,-1,34
 270 111 270 111 251 153 c 1,35,36
 230 187 230 187 205.5 208.5 c 128,-1,37
 181 230 181 230 154 246 c 128,-1,38
 127 262 127 262 101 275.5 c 128,-1,39
 75 289 75 289 54 306 c 128,-1,40
 33 323 33 323 18.5 346.5 c 128,-1,41
 4 370 4 370 3 407 c 0,42,43
 1 463 1 463 27 508.5 c 128,-1,44
 53 554 53 554 98.5 585.5 c 128,-1,45
 144 617 144 617 203.5 633.5 c 128,-1,46
 263 650 263 650 331 648 c 1,0,-1
EndSplineSet
Validated: 33
EndChar

StartChar: T
Encoding: 84 84 55
Width: 550
VWidth: 950
GlyphClass: 2
Flags: W
LayerCount: 2
Fore
SplineSet
513 648 m 1,0,-1
 515 534 l 1,1,2
 508 545 508 545 501 557 c 0,3,4
 496 566 496 566 489.5 574.5 c 128,-1,5
 483 583 483 583 478 586 c 0,6,7
 472 590 472 590 269 585 c 1,8,9
 288 13 288 13 288 11 c 0,10,11
 289 5 289 5 310 -19 c 2,12,-1
 335 -50 l 1,13,-1
 146 -49 l 1,14,15
 188 -23 188 -23 198 -15 c 128,-1,16
 208 -7 208 -7 213 -3 c 0,17,18
 217 2 217 2 204 584 c 1,19,20
 52 583 52 583 48 582 c 2,21,-1
 27 560 l 2,22,23
 15 546 15 546 1 530 c 1,24,-1
 2 628 l 1,25,-1
 513 648 l 1,0,-1
EndSplineSet
Validated: 33
EndChar

StartChar: U
Encoding: 85 85 56
Width: 540
VWidth: 950
GlyphClass: 2
Flags: W
LayerCount: 2
Fore
SplineSet
1 649 m 1,0,-1
 131 646 l 1,1,2
 121 632 121 632 112 620 c 0,3,4
 104 608 104 608 97.5 597 c 128,-1,5
 91 586 91 586 90 578 c 0,6,7
 90 516 90 516 91.5 452.5 c 128,-1,8
 93 389 93 389 99 328.5 c 128,-1,9
 105 268 105 268 117 212.5 c 128,-1,10
 129 157 129 157 149 114 c 128,-1,11
 169 71 169 71 202.5 43.5 c 128,-1,12
 236 16 236 16 281 9 c 0,13,14
 324 4 324 4 353 42 c 128,-1,15
 382 80 382 80 398 141.5 c 128,-1,16
 414 203 414 203 416.5 277 c 128,-1,17
 419 351 419 351 418 417 c 128,-1,18
 417 483 417 483 409.5 532 c 128,-1,19
 402 581 402 581 392 592 c 0,20,21
 391 594 391 594 384 600.5 c 128,-1,22
 377 607 377 607 369 614 c 2,23,-1
 349 632 l 1,24,-1
 419 632 l 1,25,-1
 488 633 l 1,26,27
 489 563 489 563 491.5 482.5 c 128,-1,28
 494 402 494 402 491.5 323 c 128,-1,29
 489 244 489 244 479.5 172 c 128,-1,30
 470 100 470 100 445.5 48 c 128,-1,31
 421 -4 421 -4 380 -30 c 128,-1,32
 339 -56 339 -56 276 -45 c 0,33,34
 202 -31 202 -31 155 14 c 128,-1,35
 108 59 108 59 79.5 120.5 c 128,-1,36
 51 182 51 182 38 254.5 c 128,-1,37
 25 327 25 327 20.5 395 c 128,-1,38
 16 463 16 463 16 521 c 128,-1,39
 16 579 16 579 13 611 c 1,40,-1
 6 634 l 2,41,42
 3 641 3 641 1 649 c 1,0,-1
EndSplineSet
Validated: 33
EndChar

StartChar: V
Encoding: 86 86 57
Width: 537
VWidth: 950
GlyphClass: 2
Flags: W
LayerCount: 2
Fore
SplineSet
3 638 m 1,0,-1
 151 649 l 1,1,2
 137 633 137 633 128 621 c 0,3,4
 117 609 117 609 105 588 c 0,5,6
 105 586 105 586 289 120 c 1,7,-1
 435 642 l 1,8,-1
 501 642 l 1,9,-1
 291 -49 l 1,10,-1
 3 638 l 1,0,-1
EndSplineSet
Validated: 1
EndChar

StartChar: W
Encoding: 87 87 58
Width: 675
VWidth: 950
GlyphClass: 2
Flags: W
LayerCount: 2
Fore
SplineSet
0 638 m 1,0,-1
 116 638 l 1,1,-1
 83 611 l 2,2,3
 77 603 77 603 76 599 c 2,4,5
 76 599 76 599 180 52 c 1,6,-1
 337 421 l 1,7,-1
 483 75 l 1,8,9
 551 514 551 514 552.5 535 c 128,-1,10
 554 556 554 556 552 558 c 0,11,12
 550 563 550 563 541 571 c 128,-1,13
 532 579 532 579 522 587 c 0,14,15
 509 596 509 596 494 605 c 1,16,-1
 648 609 l 1,17,18
 643 600 643 600 637 587 c 0,19,20
 631 575 631 575 627 556 c 2,21,-1
 523 -43 l 1,22,-1
 455 -44 l 1,23,-1
 332 284 l 1,24,-1
 199 -46 l 1,25,-1
 130 -48 l 1,26,-1
 0 638 l 1,0,-1
EndSplineSet
Validated: 1
EndChar

StartChar: X
Encoding: 88 88 59
Width: 561
VWidth: 950
GlyphClass: 2
Flags: W
LayerCount: 2
Fore
SplineSet
471 -48 m 1,0,-1
 258 267 l 1,1,-1
 55 -24 l 1,2,-1
 1 8 l 1,3,-1
 225 319 l 1,4,-1
 29 611 l 1,5,-1
 102 650 l 1,6,-1
 273 377 l 1,7,-1
 432 620 l 1,8,-1
 489 600 l 1,9,-1
 307 328 l 1,10,-1
 538 -3 l 1,11,-1
 471 -48 l 1,0,-1
EndSplineSet
Validated: 1
EndChar

StartChar: Y
Encoding: 89 89 60
Width: 550
VWidth: 950
GlyphClass: 2
Flags: W
LayerCount: 2
Fore
SplineSet
0 649 m 1,0,-1
 117 644 l 1,1,-1
 103 633 l 2,2,3
 98 629 98 629 94 624 c 128,-1,4
 90 619 90 619 89 617 c 0,5,6
 89 615 89 615 259 353 c 1,7,8
 419 599 419 599 418 601 c 0,9,10
 416 605 416 605 410 611 c 128,-1,11
 404 617 404 617 397 624 c 0,12,13
 389 632 389 632 379 641 c 1,14,-1
 536 635 l 1,15,-1
 490 593 l 1,16,-1
 297 297 l 1,17,-1
 315 -15 l 1,18,-1
 358 -49 l 1,19,-1
 178 -49 l 1,20,21
 219 -25 219 -25 229 -17 c 128,-1,22
 239 -9 239 -9 241 -4 c 0,23,24
 242 -1 242 -1 242 14 c 128,-1,25
 242 29 242 29 242 52 c 128,-1,26
 242 75 242 75 241 103 c 128,-1,27
 240 131 240 131 239 160 c 0,28,29
 235 228 235 228 232 303 c 1,30,31
 143 444 143 444 115.5 484.5 c 128,-1,32
 88 525 88 525 63.5 559.5 c 128,-1,33
 39 594 39 594 21 619 c 128,-1,34
 3 644 3 644 0 649 c 1,0,-1
EndSplineSet
Validated: 33
EndChar

StartChar: Z
Encoding: 90 90 61
Width: 511
VWidth: 950
GlyphClass: 2
Flags: W
LayerCount: 2
Fore
SplineSet
449 644 m 1,0,-1
 102 32 l 1,1,2
 408 26 408 26 410 27 c 0,3,4
 436 47 436 47 448 57 c 0,5,6
 461 69 461 69 474 84 c 1,7,-1
 475 -46 l 1,8,-1
 1 -31 l 1,9,-1
 353 580 l 1,10,-1
 100 564 l 1,11,12
 84 555 84 555 68 535 c 0,13,14
 50 518 50 518 32 497 c 1,15,-1
 29 626 l 1,16,-1
 449 644 l 1,0,-1
EndSplineSet
Validated: 33
EndChar

StartChar: bracketleft
Encoding: 91 91 62
Width: 181
VWidth: 950
GlyphClass: 2
Flags: W
LayerCount: 2
Fore
SplineSet
128 647 m 1,0,-1
 128 576 l 1,1,-1
 62 576 l 1,2,-1
 72 -4 l 1,3,-1
 149 4 l 1,4,-1
 149 -44 l 1,5,-1
 35 -49 l 1,6,-1
 1 620 l 1,7,-1
 128 647 l 1,0,-1
EndSplineSet
Validated: 1
EndChar

StartChar: backslash
Encoding: 92 92 63
Width: 291
VWidth: 950
GlyphClass: 2
Flags: W
LayerCount: 2
Fore
SplineSet
255 23 m 1,0,-1
 222 12 l 1,1,-1
 9 500 l 1,2,-1
 69 510 l 1,3,-1
 255 23 l 1,0,-1
EndSplineSet
Validated: 1
EndChar

StartChar: bracketright
Encoding: 93 93 64
Width: 190
VWidth: 950
GlyphClass: 2
Flags: W
LayerCount: 2
Fore
SplineSet
31 -50 m 1,0,-1
 30 22 l 1,1,-1
 93 23 l 1,2,-1
 77 604 l 1,3,-1
 3 593 l 1,4,-1
 1 639 l 1,5,-1
 107 649 l 1,6,-1
 151 -20 l 1,7,-1
 31 -50 l 1,0,-1
EndSplineSet
Validated: 1
EndChar

StartChar: asciicircum
Encoding: 94 94 65
Width: 215
VWidth: 950
GlyphClass: 2
Flags: W
LayerCount: 2
Fore
SplineSet
2 457 m 1,0,-1
 70 603 l 1,1,-1
 166 493 l 1,2,-1
 148 481 l 1,3,-1
 74 571 l 1,4,-1
 35 443 l 1,5,-1
 2 457 l 1,6,-1
 2 457 l 1,0,-1
EndSplineSet
Validated: 5
EndChar

StartChar: underscore
Encoding: 95 95 66
Width: 360
VWidth: 950
GlyphClass: 2
Flags: W
LayerCount: 2
Fore
SplineSet
3 -65 m 1,0,-1
 311 -49 l 1,1,-1
 308 -102 l 1,2,-1
 7 -96 l 1,3,-1
 3 -65 l 1,4,-1
 3 -65 l 1,0,-1
EndSplineSet
Validated: 5
EndChar

StartChar: grave
Encoding: 96 96 67
Width: 149
VWidth: 950
GlyphClass: 2
Flags: W
LayerCount: 2
Fore
SplineSet
111 671 m 1,0,-1
 101 663 l 1,1,-1
 44 720 l 1,2,-1
 61 736 l 1,3,-1
 111 671 l 1,0,-1
111 671 m 1,4,-1
 101 663 l 1,5,-1
 44 720 l 1,6,-1
 61 736 l 1,7,-1
 111 671 l 1,4,-1
EndSplineSet
Validated: 5
EndChar

StartChar: a
Encoding: 97 97 68
Width: 496
VWidth: 950
GlyphClass: 2
Flags: W
LayerCount: 2
Fore
SplineSet
0 -50 m 1,0,-1
 206 655 l 1,1,-1
 480 -40 l 1,2,-1
 365 -48 l 1,3,-1
 388 -17 l 1,4,-1
 200 480 l 1,5,-1
 140 244 l 1,6,-1
 303 256 l 1,7,-1
 314 203 l 1,8,-1
 129 192 l 1,9,-1
 65 -23 l 1,10,-1
 90 -50 l 1,11,-1
 1 -49 l 1,12,-1
 0 -50 l 1,0,-1
EndSplineSet
Validated: 5
EndChar

StartChar: b
Encoding: 98 98 69
Width: 493
VWidth: 950
GlyphClass: 2
Flags: W
LayerCount: 2
Fore
SplineSet
1 649 m 1,0,1
 23 649 23 649 57.5 649.5 c 128,-1,2
 92 650 92 650 130 648.5 c 128,-1,3
 168 647 168 647 207.5 639.5 c 128,-1,4
 247 632 247 632 278.5 617.5 c 128,-1,5
 310 603 310 603 330.5 577.5 c 128,-1,6
 351 552 351 552 353 513 c 0,7,8
 355 464 355 464 329.5 428.5 c 128,-1,9
 304 393 304 393 272 371 c 0,10,11
 234 347 234 347 197 338 c 1,12,13
 264 346 264 346 325 327 c 0,14,15
 351 317 351 317 375.5 301.5 c 128,-1,16
 400 286 400 286 421 257 c 128,-1,17
 442 228 442 228 451 200.5 c 128,-1,18
 460 173 460 173 459 139 c 0,19,20
 458 94 458 94 438 61.5 c 128,-1,21
 418 29 418 29 385.5 7 c 128,-1,22
 353 -15 353 -15 310.5 -27.5 c 128,-1,23
 268 -40 268 -40 220 -45 c 128,-1,24
 172 -50 172 -50 123 -49 c 128,-1,25
 74 -48 74 -48 27 -43 c 1,26,27
 27 -24 27 -24 26.5 -14 c 128,-1,28
 26 -4 26 -4 26 1.5 c 128,-1,29
 26 7 26 7 26 8.5 c 128,-1,30
 26 10 26 10 26 12 c 1,31,32
 26 12 26 12 51.5 6.5 c 128,-1,33
 77 1 77 1 116 -1.5 c 128,-1,34
 155 -4 155 -4 201.5 -1 c 128,-1,35
 248 2 248 2 287.5 17 c 128,-1,36
 327 32 327 32 355 64.5 c 128,-1,37
 383 97 383 97 386 154 c 0,38,39
 386 195 386 195 367 221 c 128,-1,40
 348 247 348 247 317.5 263 c 128,-1,41
 287 279 287 279 250 284 c 128,-1,42
 213 289 213 289 182 290 c 128,-1,43
 151 291 151 291 130 289.5 c 128,-1,44
 109 288 109 288 109 288 c 1,45,46
 109 289 109 289 109 298.5 c 128,-1,47
 109 308 109 308 110 319 c 0,48,49
 110 332 110 332 111 355 c 1,50,51
 163 364 163 364 204 382 c 0,52,53
 221 390 221 390 238 400.5 c 128,-1,54
 255 411 255 411 267.5 427 c 128,-1,55
 280 443 280 443 286.5 463.5 c 128,-1,56
 293 484 293 484 292 510 c 0,57,58
 291 538 291 538 277.5 554.5 c 128,-1,59
 264 571 264 571 243.5 580 c 128,-1,60
 223 589 223 589 200 592 c 128,-1,61
 177 595 177 595 156.5 595 c 128,-1,62
 136 595 136 595 109 594 c 1,63,-1
 131 -26 l 1,64,-1
 57 -22 l 1,65,66
 60 592 60 592 60 592 c 1,67,68
 59 592 59 592 50 592 c 128,-1,69
 41 592 41 592 29 591 c 2,70,-1
 0 589 l 1,71,-1
 1 649 l 1,0,1
EndSplineSet
Validated: 37
EndChar

StartChar: c
Encoding: 99 99 70
Width: 520
VWidth: 950
GlyphClass: 2
Flags: W
LayerCount: 2
Fore
SplineSet
473 638 m 1,0,-1
 440 558 l 1,1,2
 338 584 338 584 259 567 c 0,3,4
 225 559 225 559 193.5 541.5 c 128,-1,5
 162 524 162 524 138.5 491.5 c 128,-1,6
 115 459 115 459 102 409 c 128,-1,7
 89 359 89 359 93 287 c 0,8,9
 96 210 96 210 111.5 159 c 128,-1,10
 127 108 127 108 149.5 76.5 c 128,-1,11
 172 45 172 45 200.5 29.5 c 128,-1,12
 229 14 229 14 258 10 c 0,13,14
 326 0 326 0 410 38 c 1,15,-1
 444 -39 l 1,16,17
 318 -59 318 -59 221 -31 c 0,18,19
 179 -20 179 -20 140.5 4 c 128,-1,20
 102 28 102 28 72 67 c 128,-1,21
 42 106 42 106 24.5 165 c 128,-1,22
 7 224 7 224 10 306 c 0,23,24
 14 390 14 390 52 456.5 c 128,-1,25
 90 523 90 523 153 567.5 c 128,-1,26
 216 612 216 612 299 630.5 c 128,-1,27
 382 649 382 649 473 638 c 1,0,-1
EndSplineSet
Validated: 33
EndChar

StartChar: d
Encoding: 100 100 71
Width: 572
VWidth: 950
GlyphClass: 2
Flags: W
LayerCount: 2
Fore
SplineSet
2 629 m 1,0,1
 127 652 127 652 233 633 c 0,2,3
 278 625 278 625 323 607.5 c 128,-1,4
 368 590 368 590 407 558 c 128,-1,5
 446 526 446 526 475.5 477.5 c 128,-1,6
 505 429 505 429 520 360 c 0,7,8
 536 269 536 269 523.5 204 c 128,-1,9
 511 139 511 139 479.5 93 c 128,-1,10
 448 47 448 47 402.5 19.5 c 128,-1,11
 357 -8 357 -8 308 -23 c 0,12,13
 190 -59 190 -59 32 -42 c 1,14,-1
 30 14 l 1,15,16
 151 -6 151 -6 243 15 c 0,17,18
 283 24 283 24 320 44 c 128,-1,19
 357 64 357 64 385 98 c 128,-1,20
 413 132 413 132 429 183 c 128,-1,21
 445 234 445 234 442 307 c 0,22,23
 439 367 439 367 423 410 c 128,-1,24
 407 453 407 453 383.5 484 c 128,-1,25
 360 515 360 515 331.5 533.5 c 128,-1,26
 303 552 303 552 272 563 c 0,27,28
 203 588 203 588 118 582 c 1,29,-1
 135 -10 l 1,30,-1
 69 0 l 1,31,-1
 69 579 l 1,32,-1
 8 570 l 1,33,-1
 2 629 l 1,0,1
EndSplineSet
Validated: 37
EndChar

StartChar: e
Encoding: 101 101 72
Width: 500
VWidth: 950
GlyphClass: 2
Flags: W
LayerCount: 2
Fore
SplineSet
0 650 m 1,0,-1
 463 643 l 1,1,-1
 462 525 l 1,2,3
 441 542 441 542 423 557 c 128,-1,4
 405 572 405 572 385 588 c 1,5,-1
 114 591 l 1,6,-1
 116 351 l 1,7,-1
 305 360 l 1,8,-1
 305 296 l 1,9,-1
 117 296 l 1,10,-1
 124 7 l 1,11,12
 349 11 349 11 350 12 c 0,13,14
 353 13 353 13 433 66 c 1,15,-1
 433 -48 l 1,16,-1
 24 -48 l 1,17,-1
 24 7 l 1,18,-1
 53 5 l 1,19,-1
 53 593 l 1,20,-1
 0 593 l 1,21,-1
 0 650 l 1,0,-1
EndSplineSet
Validated: 1
EndChar

StartChar: f
Encoding: 102 102 73
Width: 501
VWidth: 950
GlyphClass: 2
Flags: W
LayerCount: 2
Fore
SplineSet
0 648 m 1,0,-1
 471 646 l 1,1,-1
 468 513 l 1,2,3
 456 531 456 531 445 547 c 0,4,5
 436 560 436 560 426.5 572.5 c 128,-1,6
 417 585 417 585 410 587 c 0,7,8
 407 588 407 588 391 588.5 c 128,-1,9
 375 589 375 589 102 586 c 1,10,-1
 107 348 l 1,11,-1
 285 354 l 1,12,-1
 283 291 l 1,13,-1
 108 292 l 1,14,15
 117 7 117 7 118 4 c 0,16,17
 120 -1 120 -1 185 -49 c 1,18,-1
 10 -49 l 1,19,20
 48 -13 48 -13 49 -9 c 0,21,22
 49 -7 49 -7 45 293.5 c 128,-1,23
 41 594 41 594 44 589 c 1,24,-1
 2 589 l 1,25,-1
 0 648 l 1,0,-1
EndSplineSet
Validated: 37
EndChar

StartChar: g
Encoding: 103 103 74
Width: 544
VWidth: 950
GlyphClass: 2
Flags: W
LayerCount: 2
Fore
SplineSet
477 643 m 1,0,-1
 480 526 l 1,1,-1
 457 555 l 2,2,3
 448 567 448 567 439.5 576.5 c 128,-1,4
 431 586 431 586 426 587 c 0,5,6
 367 593 367 593 310.5 577 c 128,-1,7
 254 561 254 561 206.5 525 c 128,-1,8
 159 489 159 489 129.5 433.5 c 128,-1,9
 100 378 100 378 96 305 c 0,10,11
 91 235 91 235 108.5 176 c 128,-1,12
 126 117 126 117 168.5 76 c 128,-1,13
 211 35 211 35 272 15.5 c 128,-1,14
 333 -4 333 -4 418 10 c 1,15,-1
 392 289 l 1,16,-1
 210 281 l 1,17,-1
 207 340 l 1,18,-1
 444 344 l 1,19,-1
 492 -33 l 1,20,21
 355 -60 355 -60 244 -36 c 0,22,23
 197 -26 197 -26 152.5 -3.5 c 128,-1,24
 108 19 108 19 75.5 59 c 128,-1,25
 43 99 43 99 25.5 159.5 c 128,-1,26
 8 220 8 220 15 307 c 0,27,28
 18 366 18 366 43 415.5 c 128,-1,29
 68 465 68 465 105.5 507.5 c 128,-1,30
 143 550 143 550 190.5 578 c 128,-1,31
 238 606 238 606 288.5 623 c 128,-1,32
 339 640 339 640 388 644 c 128,-1,33
 437 648 437 648 477 643 c 1,0,-1
EndSplineSet
Validated: 33
EndChar

StartChar: h
Encoding: 104 104 75
Width: 522
VWidth: 950
GlyphClass: 2
Flags: W
LayerCount: 2
Fore
SplineSet
363 -47 m 1,0,1
 377 -30 377 -30 390 -7 c 1,2,3
 391 73 391 73 386 178 c 1,4,-1
 67 165 l 1,5,-1
 70 -49 l 1,6,-1
 0 -49 l 1,7,-1
 1 646 l 1,8,-1
 110 650 l 1,9,10
 108 652 108 652 61 597 c 1,11,-1
 62 217 l 1,12,-1
 383 225 l 1,13,-1
 364 639 l 1,14,-1
 436 643 l 1,15,-1
 464 -48 l 1,16,-1
 363 -47 l 1,0,1
EndSplineSet
Validated: 37
EndChar

StartChar: i
Encoding: 105 105 76
Width: 215
VWidth: 950
GlyphClass: 2
Flags: W
LayerCount: 2
Fore
SplineSet
2 649 m 1,0,-1
 138 649 l 1,1,2
 129 641 129 641 122 634 c 0,3,4
 117 628 117 628 111 622 c 128,-1,5
 105 616 105 616 104 612 c 0,6,7
 104 611 104 611 106 309 c 128,-1,8
 108 7 108 7 109 6 c 0,9,10
 111 3 111 3 169 -48 c 1,11,-1
 4 -50 l 1,12,13
 32 -23 32 -23 37 -13 c 0,14,15
 39 -9 39 -9 41.5 295.5 c 128,-1,16
 44 600 44 600 44 603 c 0,17,18
 41 608 41 608 35 615.5 c 128,-1,19
 29 623 29 623 2 649 c 1,0,-1
EndSplineSet
Validated: 1
EndChar

StartChar: j
Encoding: 106 106 77
Width: 356
VWidth: 950
GlyphClass: 2
Flags: W
LayerCount: 2
Fore
SplineSet
258 649 m 1,0,1
 271 549 271 549 277.5 502 c 128,-1,2
 284 455 284 455 290 395.5 c 128,-1,3
 296 336 296 336 300 274.5 c 128,-1,4
 304 213 304 213 300.5 153 c 128,-1,5
 297 93 297 93 278.5 48 c 128,-1,6
 260 3 260 3 229.5 -24 c 128,-1,7
 199 -51 199 -51 153 -49 c 0,8,9
 124 -48 124 -48 103.5 -36 c 128,-1,10
 83 -24 83 -24 66.5 -6 c 128,-1,11
 50 12 50 12 39 35 c 128,-1,12
 28 58 28 58 20 81 c 0,13,14
 3 136 3 136 0 205 c 1,15,-1
 66 202 l 1,16,17
 66 188 66 188 68 155 c 128,-1,18
 70 122 70 122 78.5 90.5 c 128,-1,19
 87 59 87 59 112.5 34 c 128,-1,20
 138 9 138 9 165 13 c 0,21,22
 204 18 204 18 222 49 c 128,-1,23
 240 80 240 80 243.5 121.5 c 128,-1,24
 247 163 247 163 244.5 215 c 128,-1,25
 242 267 242 267 236 319 c 0,26,27
 221 446 221 446 186 647 c 1,28,-1
 258 649 l 1,0,1
EndSplineSet
Validated: 33
EndChar

StartChar: k
Encoding: 107 107 78
Width: 510
VWidth: 950
GlyphClass: 2
Flags: W
LayerCount: 2
Fore
SplineSet
0 649 m 1,0,-1
 141 647 l 1,1,-1
 112 627 l 2,2,3
 82 606 82 606 82 604 c 2,4,-1
 87 420 l 1,5,-1
 385 616 l 1,6,-1
 430 575 l 1,7,-1
 179 427 l 1,8,-1
 488 53 l 1,9,-1
 425 1 l 1,10,-1
 133 398 l 1,11,-1
 85 369 l 1,12,-1
 95 -7 l 2,13,14
 96 -10 96 -10 122 -28 c 2,15,-1
 149 -46 l 1,16,-1
 3 -50 l 1,17,18
 27 -9 27 -9 27 -8 c 2,19,20
 27 -8 27 -8 25 305.5 c 128,-1,21
 23 619 23 619 23 620 c 1,22,23
 22 620 22 620 0 649 c 1,0,-1
EndSplineSet
Validated: 1
EndChar

StartChar: l
Encoding: 108 108 79
Width: 487
VWidth: 950
GlyphClass: 2
Flags: W
LayerCount: 2
Fore
SplineSet
0 650 m 1,0,-1
 152 650 l 1,1,2
 115 626 115 626 108.5 618.5 c 128,-1,3
 102 611 102 611 101 609 c 0,4,5
 100 608 100 608 99 580.5 c 128,-1,6
 98 553 98 553 97 5 c 1,7,8
 395 12 395 12 398 15 c 0,9,10
 403 16 403 16 448 73 c 1,11,-1
 447 -49 l 1,12,-1
 32 -51 l 1,13,-1
 28 625 l 1,14,15
 15 636 15 636 0 650 c 1,0,-1
EndSplineSet
Validated: 1
EndChar

StartChar: m
Encoding: 109 109 80
Width: 610
VWidth: 950
GlyphClass: 2
Flags: W
LayerCount: 2
Fore
SplineSet
10 649 m 1,0,-1
 138 646 l 1,1,-1
 318 248 l 1,2,-1
 492 606 l 1,3,-1
 555 610 l 1,4,-1
 554 -19 l 1,5,-1
 436 -20 l 1,6,7
 447 -15 447 -15 457 -10 c 0,8,9
 465 -6 465 -6 485 7 c 0,10,11
 486 8 486 8 488 495 c 1,12,-1
 298 112 l 1,13,-1
 95 556 l 1,14,15
 105 -15 105 -15 107 -16 c 0,16,17
 109 -19 109 -19 123 -25 c 128,-1,18
 137 -31 137 -31 181 -49 c 1,19,-1
 1 -49 l 1,20,21
 13 -40 13 -40 25 -31 c 0,22,23
 34 -23 34 -23 42 -15.5 c 128,-1,24
 50 -8 50 -8 51 -4 c 0,25,26
 51 -1 51 -1 48.5 299.5 c 128,-1,27
 46 600 46 600 45 601 c 0,28,29
 43 604 43 604 37.5 612 c 128,-1,30
 32 620 32 620 26 629 c 0,31,32
 19 639 19 639 10 649 c 1,0,-1
EndSplineSet
Validated: 1
EndChar

StartChar: n
Encoding: 110 110 81
Width: 530
VWidth: 950
GlyphClass: 2
Flags: W
LayerCount: 2
Fore
SplineSet
6 610 m 1,0,-1
 82 610 l 1,1,-1
 423 149 l 1,2,3
 417 607 417 607 416 610 c 0,4,5
 413 613 413 613 406 620 c 128,-1,6
 399 627 399 627 391 634 c 2,7,-1
 370 648 l 1,8,-1
 471 649 l 1,9,-1
 477 -48 l 1,10,-1
 63 503 l 1,11,12
 82 -2 82 -2 83 -7 c 0,13,14
 86 -12 86 -12 94 -20 c 128,-1,15
 102 -28 102 -28 111 -34 c 0,16,17
 122 -42 122 -42 135 -49 c 1,18,-1
 0 -49 l 1,19,-1
 28 -17 l 1,20,-1
 6 610 l 1,0,-1
EndSplineSet
Validated: 1
EndChar

StartChar: o
Encoding: 111 111 82
Width: 639
VWidth: 950
GlyphClass: 2
Flags: W
LayerCount: 2
Fore
SplineSet
297 651 m 0,0,1
 378 650 378 650 444 620 c 0,2,3
 473 608 473 608 500 587 c 128,-1,4
 527 566 527 566 549.5 533.5 c 128,-1,5
 572 501 572 501 586 455.5 c 128,-1,6
 600 410 600 410 603 351 c 0,7,8
 604 252 604 252 579 178 c 128,-1,9
 554 104 554 104 512 54 c 128,-1,10
 470 4 470 4 416.5 -22 c 128,-1,11
 363 -48 363 -48 307 -49 c 256,12,13
 251 -50 251 -50 195.5 -29 c 128,-1,14
 140 -8 140 -8 96.5 37.5 c 128,-1,15
 53 83 53 83 28 154 c 128,-1,16
 3 225 3 225 9 323 c 0,17,18
 13 415 13 415 39.5 475 c 128,-1,19
 66 535 66 535 101 571 c 128,-1,20
 136 607 136 607 183.5 628.5 c 128,-1,21
 231 650 231 650 297 651 c 0,0,1
519 294 m 0,22,23
 524 365 524 365 511.5 416 c 128,-1,24
 499 467 499 467 476.5 503 c 128,-1,25
 454 539 454 539 427 561.5 c 128,-1,26
 400 584 400 584 369 596.5 c 128,-1,27
 338 609 338 609 300 610 c 0,28,29
 295 610 295 610 279.5 609.5 c 128,-1,30
 264 609 264 609 243.5 604.5 c 128,-1,31
 223 600 223 600 201.5 588.5 c 128,-1,32
 180 577 180 577 157 555.5 c 128,-1,33
 134 534 134 534 117 492 c 128,-1,34
 100 450 100 450 93 389 c 0,35,36
 82 297 82 297 99 222.5 c 128,-1,37
 116 148 116 148 149 95.5 c 128,-1,38
 182 43 182 43 226 15.5 c 128,-1,39
 270 -12 270 -12 313 -10 c 0,40,41
 335 -10 335 -10 367 -1.5 c 128,-1,42
 399 7 399 7 430 37 c 128,-1,43
 461 67 461 67 486 127.5 c 128,-1,44
 511 188 511 188 519 294 c 0,22,23
EndSplineSet
Validated: 33
EndChar

StartChar: p
Encoding: 112 112 83
Width: 484
VWidth: 950
GlyphClass: 2
Flags: W
LayerCount: 2
Fore
SplineSet
1 639 m 1,0,1
 124 652 124 652 222 645 c 0,2,3
 264 641 264 641 303.5 631.5 c 128,-1,4
 343 622 343 622 374.5 606.5 c 128,-1,5
 406 591 406 591 425.5 567 c 128,-1,6
 445 543 445 543 445 509 c 0,7,8
 445 464 445 464 427.5 434 c 128,-1,9
 410 404 410 404 381 385 c 128,-1,10
 352 366 352 366 316 357 c 128,-1,11
 280 348 280 348 243 344 c 128,-1,12
 206 340 206 340 118 336 c 0,13,14
 85 336 85 336 80 341 c 128,-1,15
 75 346 75 346 84 353 c 0,16,17
 93 361 93 361 117 376 c 1,18,19
 194 374 194 374 252 388 c 0,20,21
 277 394 277 394 300.5 403 c 128,-1,22
 324 412 324 412 341.5 425 c 128,-1,23
 359 438 359 438 367.5 455.5 c 128,-1,24
 376 473 376 473 373 497 c 0,25,26
 365 542 365 542 333 564 c 128,-1,27
 301 586 301 586 260.5 594 c 128,-1,28
 220 602 220 602 178.5 599.5 c 128,-1,29
 137 597 137 597 111 594 c 1,30,31
 132 15 132 15 132 14 c 0,32,33
 134 12 134 12 142.5 3 c 128,-1,34
 151 -6 151 -6 161 -15 c 0,35,36
 173 -27 173 -27 187 -40 c 1,37,-1
 30 -47 l 1,38,39
 38 -40 38 -40 44 -35 c 0,40,41
 50 -29 50 -29 54.5 -24.5 c 128,-1,42
 59 -20 59 -20 60 -18 c 0,43,44
 60 -16 60 -16 55 588 c 1,45,-1
 4 582 l 1,46,-1
 1 639 l 1,0,1
EndSplineSet
Validated: 37
EndChar

StartChar: q
Encoding: 113 113 84
Width: 624
VWidth: 950
GlyphClass: 2
Flags: W
LayerCount: 2
Fore
SplineSet
589 286 m 0,0,1
 584 180 584 180 552.5 117 c 128,-1,2
 521 54 521 54 479 19 c 1,3,-1
 556 -58 l 1,4,-1
 496 -107 l 1,5,-1
 421 -17 l 1,6,7
 400 -26 400 -26 381.5 -31.5 c 128,-1,8
 363 -37 363 -37 348 -39 c 128,-1,9
 333 -41 333 -41 323 -41.5 c 128,-1,10
 313 -42 313 -42 309 -42 c 0,11,12
 304 -42 304 -42 279.5 -41.5 c 128,-1,13
 255 -41 255 -41 222.5 -33.5 c 128,-1,14
 190 -26 190 -26 153 -9 c 128,-1,15
 116 8 116 8 84 40 c 128,-1,16
 52 72 52 72 29.5 123 c 128,-1,17
 7 174 7 174 3 250 c 0,18,19
 1 347 1 347 25 421.5 c 128,-1,20
 49 496 49 496 89.5 545.5 c 128,-1,21
 130 595 130 595 183 621 c 128,-1,22
 236 647 236 647 291 649 c 0,23,24
 346 650 346 650 401.5 630 c 128,-1,25
 457 610 457 610 500 565 c 128,-1,26
 543 520 543 520 568.5 450.5 c 128,-1,27
 594 381 594 381 589 286 c 0,0,1
448 50 m 1,28,29
 469 76 469 76 484.5 116.5 c 128,-1,30
 500 157 500 157 507 218 c 0,31,32
 517 309 517 309 499 382 c 128,-1,33
 481 455 481 455 448 507 c 128,-1,34
 415 559 415 559 371 586 c 128,-1,35
 327 613 327 613 286 611 c 0,36,37
 264 610 264 610 237.5 601 c 128,-1,38
 211 592 211 592 175.5 562 c 128,-1,39
 140 532 140 532 116 472.5 c 128,-1,40
 92 413 92 413 85 308 c 0,41,42
 82 238 82 238 95 187.5 c 128,-1,43
 108 137 108 137 130 102 c 128,-1,44
 152 67 152 67 179.5 45 c 128,-1,45
 207 23 207 23 232 11.5 c 128,-1,46
 257 0 257 0 277 -4.5 c 128,-1,47
 297 -9 297 -9 302 -9 c 0,48,49
 311 -11 311 -11 338 -9 c 128,-1,50
 365 -7 365 -7 398 10 c 1,51,-1
 292 136 l 1,52,-1
 332 167 l 1,53,-1
 448 50 l 1,28,29
EndSplineSet
Validated: 33
EndChar

StartChar: r
Encoding: 114 114 85
Width: 600
VWidth: 950
GlyphClass: 2
Flags: W
LayerCount: 2
Fore
SplineSet
576 34 m 1,0,-1
 513 -17 l 1,1,2
 457 68 457 68 414 135 c 0,3,4
 393 165 393 165 374.5 192 c 128,-1,5
 356 219 356 219 341 241 c 0,6,7
 326 266 326 266 311 284 c 1,8,9
 303 282 303 282 276 277 c 128,-1,10
 249 272 249 272 214 267 c 0,11,12
 172 261 172 261 126 258 c 1,13,14
 139 25 139 25 139 23 c 0,15,16
 139 20 139 20 148 9.5 c 128,-1,17
 157 -1 157 -1 169 -14 c 0,18,19
 181 -28 181 -28 197 -43 c 1,20,-1
 46 -49 l 1,21,22
 54 -38 54 -38 60 -27 c 0,23,24
 66 -18 66 -18 70 -11.5 c 128,-1,25
 74 -5 74 -5 74 -3 c 256,26,27
 74 -1 74 -1 51 592 c 1,28,-1
 6 588 l 1,29,-1
 0 647 l 1,30,31
 49 649 49 649 104.5 650 c 128,-1,32
 160 651 160 651 216 649 c 128,-1,33
 272 647 272 647 323.5 638.5 c 128,-1,34
 375 630 375 630 415 609 c 128,-1,35
 455 588 455 588 479.5 553.5 c 128,-1,36
 504 519 504 519 506 465 c 0,37,38
 506 412 506 412 482.5 380 c 128,-1,39
 459 348 459 348 431 330 c 0,40,41
 398 310 398 310 356 297 c 1,42,-1
 576 34 l 1,0,-1
122 300 m 1,43,44
 207 302 207 302 275 317 c 0,45,46
 303 324 303 324 335 336.5 c 128,-1,47
 367 349 367 349 387 367.5 c 128,-1,48
 407 386 407 386 420 410.5 c 128,-1,49
 433 435 433 435 431 469 c 0,50,51
 427 502 427 502 410.5 525.5 c 128,-1,52
 394 549 394 549 371.5 564 c 128,-1,53
 349 579 349 579 320 587 c 128,-1,54
 291 595 291 595 255 600 c 0,55,56
 186 606 186 606 106 596 c 1,57,-1
 122 300 l 1,43,44
EndSplineSet
Validated: 33
EndChar

StartChar: s
Encoding: 115 115 86
Width: 380
VWidth: 950
GlyphClass: 2
Flags: W
LayerCount: 2
Fore
SplineSet
331 648 m 1,0,-1
 331 582 l 1,1,2
 319 586 319 586 301 590 c 128,-1,3
 283 594 283 594 267.5 594.5 c 128,-1,4
 252 595 252 595 222.5 589.5 c 128,-1,5
 193 584 193 584 164 565 c 128,-1,6
 135 546 135 546 107.5 515.5 c 128,-1,7
 80 485 80 485 78 427 c 0,8,9
 78 388 78 388 102 357 c 128,-1,10
 126 326 126 326 153.5 306.5 c 128,-1,11
 181 287 181 287 213 268.5 c 128,-1,12
 245 250 245 250 273.5 227.5 c 128,-1,13
 302 205 302 205 321.5 175.5 c 128,-1,14
 341 146 341 146 342 103 c 0,15,16
 343 69 343 69 331 44 c 128,-1,17
 319 19 319 19 299 1.5 c 128,-1,18
 279 -16 279 -16 253 -26 c 128,-1,19
 227 -36 227 -36 200 -41 c 0,20,21
 136 -53 136 -53 53 -46 c 1,22,-1
 75 70 l 1,23,24
 81 55 81 55 85 42 c 0,25,26
 90 31 90 31 94.5 21 c 128,-1,27
 99 11 99 11 103 6 c 0,28,29
 106 3 106 3 123 1 c 128,-1,30
 140 -1 140 -1 162 1.5 c 128,-1,31
 184 4 184 4 208 12.5 c 128,-1,32
 232 21 232 21 248 38 c 128,-1,33
 264 55 264 55 267 83 c 128,-1,34
 270 111 270 111 251 153 c 1,35,36
 230 187 230 187 205.5 208.5 c 128,-1,37
 181 230 181 230 154 246 c 128,-1,38
 127 262 127 262 101 275.5 c 128,-1,39
 75 289 75 289 54 306 c 128,-1,40
 33 323 33 323 18.5 346.5 c 128,-1,41
 4 370 4 370 3 407 c 0,42,43
 1 463 1 463 27 508.5 c 128,-1,44
 53 554 53 554 98.5 585.5 c 128,-1,45
 144 617 144 617 203.5 633.5 c 128,-1,46
 263 650 263 650 331 648 c 1,0,-1
EndSplineSet
Validated: 33
EndChar

StartChar: t
Encoding: 116 116 87
Width: 550
VWidth: 950
GlyphClass: 2
Flags: W
LayerCount: 2
Fore
SplineSet
513 648 m 1,0,-1
 515 534 l 1,1,2
 508 545 508 545 501 557 c 0,3,4
 496 566 496 566 489.5 574.5 c 128,-1,5
 483 583 483 583 478 586 c 0,6,7
 472 590 472 590 269 585 c 1,8,9
 288 13 288 13 288 11 c 0,10,11
 289 5 289 5 310 -19 c 2,12,-1
 335 -50 l 1,13,-1
 146 -49 l 1,14,15
 188 -23 188 -23 198 -15 c 128,-1,16
 208 -7 208 -7 213 -3 c 0,17,18
 217 2 217 2 204 584 c 1,19,20
 52 583 52 583 48 582 c 2,21,-1
 27 560 l 2,22,23
 15 546 15 546 1 530 c 1,24,-1
 2 628 l 1,25,-1
 513 648 l 1,0,-1
EndSplineSet
Validated: 33
EndChar

StartChar: u
Encoding: 117 117 88
Width: 540
VWidth: 950
GlyphClass: 2
Flags: W
LayerCount: 2
Fore
SplineSet
1 649 m 1,0,-1
 131 646 l 1,1,2
 121 632 121 632 112 620 c 0,3,4
 104 608 104 608 97.5 597 c 128,-1,5
 91 586 91 586 90 578 c 0,6,7
 90 516 90 516 91.5 452.5 c 128,-1,8
 93 389 93 389 99 328.5 c 128,-1,9
 105 268 105 268 117 212.5 c 128,-1,10
 129 157 129 157 149 114 c 128,-1,11
 169 71 169 71 202.5 43.5 c 128,-1,12
 236 16 236 16 281 9 c 0,13,14
 324 4 324 4 353 42 c 128,-1,15
 382 80 382 80 398 141.5 c 128,-1,16
 414 203 414 203 416.5 277 c 128,-1,17
 419 351 419 351 418 417 c 128,-1,18
 417 483 417 483 409.5 532 c 128,-1,19
 402 581 402 581 392 592 c 0,20,21
 391 594 391 594 384 600.5 c 128,-1,22
 377 607 377 607 369 614 c 2,23,-1
 349 632 l 1,24,-1
 419 632 l 1,25,-1
 488 633 l 1,26,27
 489 563 489 563 491.5 482.5 c 128,-1,28
 494 402 494 402 491.5 323 c 128,-1,29
 489 244 489 244 479.5 172 c 128,-1,30
 470 100 470 100 445.5 48 c 128,-1,31
 421 -4 421 -4 380 -30 c 128,-1,32
 339 -56 339 -56 276 -45 c 0,33,34
 202 -31 202 -31 155 14 c 128,-1,35
 108 59 108 59 79.5 120.5 c 128,-1,36
 51 182 51 182 38 254.5 c 128,-1,37
 25 327 25 327 20.5 395 c 128,-1,38
 16 463 16 463 16 521 c 128,-1,39
 16 579 16 579 13 611 c 1,40,-1
 6 634 l 2,41,42
 3 641 3 641 1 649 c 1,0,-1
EndSplineSet
Validated: 33
EndChar

StartChar: v
Encoding: 118 118 89
Width: 537
VWidth: 950
GlyphClass: 2
Flags: W
LayerCount: 2
Fore
SplineSet
3 638 m 1,0,-1
 151 649 l 1,1,2
 137 633 137 633 128 621 c 0,3,4
 117 609 117 609 105 588 c 0,5,6
 105 586 105 586 289 120 c 1,7,-1
 435 642 l 1,8,-1
 501 642 l 1,9,-1
 291 -49 l 1,10,-1
 3 638 l 1,0,-1
EndSplineSet
Validated: 1
EndChar

StartChar: w
Encoding: 119 119 90
Width: 676
VWidth: 950
GlyphClass: 2
Flags: W
LayerCount: 2
Fore
SplineSet
0 638 m 1,0,-1
 116 638 l 1,1,-1
 83 611 l 2,2,3
 77 603 77 603 76 599 c 2,4,5
 76 599 76 599 180 52 c 1,6,-1
 337 421 l 1,7,-1
 483 75 l 1,8,9
 551 514 551 514 552.5 535 c 128,-1,10
 554 556 554 556 552 558 c 0,11,12
 550 563 550 563 541 571 c 128,-1,13
 532 579 532 579 522 587 c 0,14,15
 509 596 509 596 494 605 c 1,16,-1
 648 609 l 1,17,18
 643 600 643 600 637 587 c 0,19,20
 631 575 631 575 627 556 c 2,21,-1
 523 -43 l 1,22,-1
 455 -44 l 1,23,-1
 332 284 l 1,24,-1
 199 -46 l 1,25,-1
 130 -48 l 1,26,-1
 0 638 l 1,0,-1
EndSplineSet
Validated: 1
EndChar

StartChar: x
Encoding: 120 120 91
Width: 561
VWidth: 950
GlyphClass: 2
Flags: W
LayerCount: 2
Fore
SplineSet
471 -48 m 1,0,-1
 258 267 l 1,1,-1
 55 -24 l 1,2,-1
 1 8 l 1,3,-1
 225 319 l 1,4,-1
 29 611 l 1,5,-1
 102 650 l 1,6,-1
 273 377 l 1,7,-1
 432 620 l 1,8,-1
 489 600 l 1,9,-1
 307 328 l 1,10,-1
 538 -3 l 1,11,-1
 471 -48 l 1,0,-1
EndSplineSet
Validated: 1
EndChar

StartChar: y
Encoding: 121 121 92
Width: 550
VWidth: 950
GlyphClass: 2
Flags: W
LayerCount: 2
Fore
SplineSet
0 649 m 1,0,-1
 117 644 l 1,1,-1
 103 633 l 2,2,3
 98 629 98 629 94 624 c 128,-1,4
 90 619 90 619 89 617 c 0,5,6
 89 615 89 615 259 353 c 1,7,8
 419 599 419 599 418 601 c 0,9,10
 416 605 416 605 410 611 c 128,-1,11
 404 617 404 617 397 624 c 0,12,13
 389 632 389 632 379 641 c 1,14,-1
 536 635 l 1,15,-1
 490 593 l 1,16,-1
 297 297 l 1,17,-1
 315 -15 l 1,18,-1
 358 -49 l 1,19,-1
 178 -49 l 1,20,21
 219 -25 219 -25 229 -17 c 128,-1,22
 239 -9 239 -9 241 -4 c 0,23,24
 242 -1 242 -1 242 14 c 128,-1,25
 242 29 242 29 242 52 c 128,-1,26
 242 75 242 75 241 103 c 128,-1,27
 240 131 240 131 239 160 c 0,28,29
 235 228 235 228 232 303 c 1,30,31
 143 444 143 444 115.5 484.5 c 128,-1,32
 88 525 88 525 63.5 559.5 c 128,-1,33
 39 594 39 594 21 619 c 128,-1,34
 3 644 3 644 0 649 c 1,0,-1
EndSplineSet
Validated: 33
EndChar

StartChar: z
Encoding: 122 122 93
Width: 511
VWidth: 950
GlyphClass: 2
Flags: W
LayerCount: 2
Fore
SplineSet
449 644 m 1,0,-1
 102 32 l 1,1,2
 408 26 408 26 410 27 c 0,3,4
 436 47 436 47 448 57 c 0,5,6
 461 69 461 69 474 84 c 1,7,-1
 475 -46 l 1,8,-1
 1 -31 l 1,9,-1
 353 580 l 1,10,-1
 100 564 l 1,11,12
 81 553 81 553 68 535 c 1,13,14
 50 518 50 518 32 497 c 1,15,-1
 29 626 l 1,16,-1
 449 644 l 1,0,-1
EndSplineSet
Validated: 33
EndChar

StartChar: braceleft
Encoding: 123 123 94
Width: 249
VWidth: 950
GlyphClass: 2
Flags: W
LayerCount: 2
Fore
SplineSet
146 647 m 0,0,1
 147 645 147 645 148.5 636 c 128,-1,2
 150 627 150 627 152 615 c 2,3,-1
 156 583 l 1,4,5
 126 583 126 583 102 574 c 0,6,7
 82 566 82 566 65 549.5 c 128,-1,8
 48 533 48 533 48 500 c 256,9,10
 48 467 48 467 56.5 437 c 128,-1,11
 65 407 65 407 76 381.5 c 128,-1,12
 87 356 87 356 95.5 335.5 c 128,-1,13
 104 315 104 315 102 302 c 0,14,15
 100 276 100 276 88 265 c 128,-1,16
 76 254 76 254 70 250 c 1,17,18
 72 246 72 246 75.5 245 c 128,-1,19
 79 244 79 244 82 240 c 128,-1,20
 85 236 85 236 88 227 c 128,-1,21
 91 218 91 218 94 200 c 0,22,23
 96 187 96 187 95 167.5 c 128,-1,24
 94 148 94 148 94 125 c 128,-1,25
 94 102 94 102 97.5 79.5 c 128,-1,26
 101 57 101 57 112.5 40.5 c 128,-1,27
 124 24 124 24 146.5 16.5 c 128,-1,28
 169 9 169 9 205 17 c 1,29,-1
 206 -43 l 1,30,31
 171 -52 171 -52 141 -46 c 0,32,33
 115 -41 115 -41 90.5 -21 c 128,-1,34
 66 -1 66 -1 57 48 c 0,35,36
 54 83 54 83 57 112 c 128,-1,37
 60 141 60 141 58.5 164.5 c 128,-1,38
 57 188 57 188 45.5 208.5 c 128,-1,39
 34 229 34 229 1 247 c 1,40,41
 28 254 28 254 39 273.5 c 128,-1,42
 50 293 50 293 49.5 319 c 128,-1,43
 49 345 49 345 41 374.5 c 128,-1,44
 33 404 33 404 23.5 431 c 128,-1,45
 14 458 14 458 7 481.5 c 128,-1,46
 0 505 0 505 1 518 c 0,47,48
 1 531 1 531 5 553.5 c 128,-1,49
 9 576 9 576 24 597.5 c 128,-1,50
 39 619 39 619 68 634.5 c 128,-1,51
 97 650 97 650 146 647 c 0,0,1
EndSplineSet
Validated: 33
EndChar

StartChar: bar
Encoding: 124 124 95
Width: 149
VWidth: 950
GlyphClass: 2
Flags: W
LayerCount: 2
Fore
SplineSet
39 608 m 1,0,-1
 98 603 l 1,1,-1
 72 18 l 1,2,-1
 39 18 l 1,3,-1
 39 608 l 1,0,-1
EndSplineSet
Validated: 1
EndChar

StartChar: braceright
Encoding: 125 125 96
Width: 250
VWidth: 950
GlyphClass: 2
Flags: W
LayerCount: 2
Fore
SplineSet
59 -49 m 0,0,1
 57 -47 57 -47 56 -37.5 c 128,-1,2
 55 -28 55 -28 53 -16 c 0,3,4
 51 -2 51 -2 49 15 c 1,5,6
 78 15 78 15 101 24 c 0,7,8
 121 32 121 32 136.5 48.5 c 128,-1,9
 152 65 152 65 153 98 c 256,10,11
 154 131 154 131 145.5 161 c 128,-1,12
 137 191 137 191 126.5 216.5 c 128,-1,13
 116 242 116 242 107.5 261.5 c 128,-1,14
 99 281 99 281 100 295 c 0,15,16
 101 308 101 308 105.5 317 c 128,-1,17
 110 326 110 326 115 332 c 128,-1,18
 120 338 120 338 124.5 341 c 128,-1,19
 129 344 129 344 132 347 c 0,20,21
 130 350 130 350 127 351.5 c 128,-1,22
 124 353 124 353 121 357 c 128,-1,23
 118 361 118 361 114.5 369.5 c 128,-1,24
 111 378 111 378 108 396 c 0,25,26
 106 409 106 409 107.5 429 c 128,-1,27
 109 449 109 449 109 472 c 128,-1,28
 109 495 109 495 105.5 517.5 c 128,-1,29
 102 540 102 540 91 556 c 128,-1,30
 80 572 80 572 58.5 579 c 128,-1,31
 37 586 37 586 2 579 c 1,32,-1
 1 639 l 1,33,34
 35 647 35 647 64 641 c 0,35,36
 89 636 89 636 112 616 c 128,-1,37
 135 596 135 596 145 549 c 1,38,39
 148 514 148 514 145 485 c 128,-1,40
 142 456 142 456 143 432 c 128,-1,41
 144 408 144 408 155 387.5 c 128,-1,42
 166 367 166 367 198 350 c 1,43,44
 171 342 171 342 161 323 c 128,-1,45
 151 304 151 304 151.5 278.5 c 128,-1,46
 152 253 152 253 159.5 223.5 c 128,-1,47
 167 194 167 194 176 166.5 c 128,-1,48
 185 139 185 139 192 116 c 128,-1,49
 199 93 199 93 198 79 c 0,50,51
 198 67 198 67 194 44 c 128,-1,52
 190 21 190 21 175.5 -0.5 c 128,-1,53
 161 -22 161 -22 133.5 -37 c 128,-1,54
 106 -52 106 -52 59 -49 c 0,0,1
EndSplineSet
Validated: 33
EndChar

StartChar: asciitilde
Encoding: 126 126 97
Width: 270
VWidth: 950
GlyphClass: 2
Flags: W
LayerCount: 2
Fore
SplineSet
0 223 m 1,0,1
 15 243 15 243 32 259 c 0,2,3
 46 273 46 273 62.5 284.5 c 128,-1,4
 79 296 79 296 93 298 c 0,5,6
 107 299 107 299 116.5 290.5 c 128,-1,7
 126 282 126 282 133.5 270.5 c 128,-1,8
 141 259 141 259 148.5 250 c 128,-1,9
 156 241 156 241 165 241 c 0,10,11
 172 241 172 241 176 253 c 128,-1,12
 180 265 180 265 183 280 c 0,13,14
 186 298 186 298 188 320 c 1,15,-1
 222 311 l 2,16,17
 223 311 223 311 218 295 c 128,-1,18
 213 279 213 279 205 260 c 128,-1,19
 197 241 197 241 186.5 225 c 128,-1,20
 176 209 176 209 166 209 c 0,21,22
 150 209 150 209 142 216 c 128,-1,23
 134 223 134 223 128.5 231 c 128,-1,24
 123 239 123 239 117 246.5 c 128,-1,25
 111 254 111 254 98 254 c 0,26,27
 84 255 84 255 71.5 246.5 c 128,-1,28
 59 238 59 238 50 227 c 0,29,30
 39 215 39 215 30 198 c 1,31,-1
 0 223 l 1,0,1
EndSplineSet
Validated: 1
EndChar

StartChar: exclamdown
Encoding: 161 161 98
Width: 186
VWidth: 950
GlyphClass: 2
Flags: W
LayerCount: 2
Fore
SplineSet
83 491 m 1,0,-1
 125 484 l 1,1,-1
 113 -32 l 1,2,-1
 13 -23 l 1,3,-1
 83 491 l 1,0,-1
109 550 m 0,4,5
 93 548 93 548 79 558.5 c 128,-1,6
 65 569 65 569 62 589 c 0,7,8
 59 607 59 607 68 622 c 128,-1,9
 77 637 77 637 93 641 c 0,10,11
 109 643 109 643 122 632.5 c 128,-1,12
 135 622 135 622 139 602 c 0,13,14
 142 584 142 584 133 569 c 128,-1,15
 124 554 124 554 109 550 c 0,4,5
EndSplineSet
Validated: 33
EndChar

StartChar: cent
Encoding: 162 162 99
Width: 299
VWidth: 950
GlyphClass: 2
Flags: W
LayerCount: 2
Fore
SplineSet
146 579 m 0,0,1
 122 579 122 579 104 597 c 128,-1,2
 86 615 86 615 86 640 c 0,3,4
 86 668 86 668 104 686.5 c 128,-1,5
 122 705 122 705 146 705 c 0,6,7
 175 705 175 705 193.5 686.5 c 128,-1,8
 212 668 212 668 212 640 c 0,9,10
 212 615 212 615 193.5 597 c 128,-1,11
 175 579 175 579 146 579 c 0,0,1
212 565 m 2,12,13
 231 565 231 565 246.5 558 c 128,-1,14
 262 551 262 551 273 539 c 128,-1,15
 284 527 284 527 290 512 c 128,-1,16
 296 497 296 497 296 481 c 2,17,-1
 296 289 l 2,18,19
 296 275 296 275 287 268 c 128,-1,20
 278 261 278 261 267.5 261 c 128,-1,21
 257 261 257 261 248.5 268 c 128,-1,22
 240 275 240 275 240 289 c 2,23,-1
 240 467 l 1,24,-1
 226 467 l 1,25,-1
 226 -15 l 2,26,27
 226 -34 226 -34 215 -43.5 c 128,-1,28
 204 -53 204 -53 191 -53 c 128,-1,29
 178 -53 178 -53 167 -43.5 c 128,-1,30
 156 -34 156 -34 156 -15 c 2,31,-1
 156 266 l 1,32,-1
 142 266 l 1,33,-1
 142 -15 l 2,34,35
 142 -34 142 -34 130.5 -43.5 c 128,-1,36
 119 -53 119 -53 104.5 -53 c 128,-1,37
 90 -53 90 -53 78.5 -43.5 c 128,-1,38
 67 -34 67 -34 67 -15 c 2,39,-1
 67 467 l 1,40,-1
 53 467 l 1,41,-1
 53 289 l 2,42,43
 53 275 53 275 45 268 c 128,-1,44
 37 261 37 261 27 261 c 128,-1,45
 17 261 17 261 9 268 c 128,-1,46
 1 275 1 275 1 289 c 2,47,-1
 1 481 l 2,48,49
 1 516 1 516 23.5 540.5 c 128,-1,50
 46 565 46 565 81 565 c 2,51,-1
 212 565 l 2,12,13
EndSplineSet
Validated: 1
EndChar

StartChar: sterling
Encoding: 163 163 100
Width: 410
VWidth: 950
GlyphClass: 2
Flags: W
LayerCount: 2
Fore
SplineSet
324 92 m 0,0,1
 328 92 328 92 335 98 c 128,-1,2
 342 104 342 104 347 112 c 0,3,4
 353 121 353 121 361 131 c 1,5,-1
 361 33 l 1,6,-1
 53 33 l 1,7,-1
 45 73 l 1,8,-1
 85 74 l 1,9,10
 83 92 83 92 79 121 c 0,11,12
 76 148 76 148 70.5 189.5 c 128,-1,13
 65 231 65 231 60 292 c 1,14,-1
 3 290 l 1,15,-1
 1 318 l 1,16,-1
 57 323 l 1,17,18
 49 412 49 412 65 462 c 128,-1,19
 81 512 81 512 107 535.5 c 128,-1,20
 133 559 133 559 166.5 561.5 c 128,-1,21
 200 564 200 564 229 557.5 c 128,-1,22
 258 551 258 551 277.5 541 c 128,-1,23
 297 531 297 531 297 530 c 2,24,-1
 264 451 l 1,25,26
 260 458 260 458 257 467 c 0,27,28
 249 479 249 479 239 493 c 1,29,30
 196 518 196 518 169 510.5 c 128,-1,31
 142 503 142 503 127.5 477 c 128,-1,32
 113 451 113 451 108.5 410 c 128,-1,33
 104 369 104 369 108 324 c 1,34,-1
 169 331 l 1,35,-1
 172 293 l 1,36,-1
 110 292 l 1,37,38
 112 251 112 251 115 212.5 c 128,-1,39
 118 174 118 174 121 145 c 0,40,41
 126 110 126 110 130 77 c 1,42,43
 180 79 180 79 222 83 c 0,44,45
 240 84 240 84 257 85 c 128,-1,46
 274 86 274 86 288 87.5 c 128,-1,47
 302 89 302 89 311.5 90 c 128,-1,48
 321 91 321 91 324 92 c 0,0,1
EndSplineSet
Validated: 33
EndChar

StartChar: dieresis
Encoding: 168 168 101
Width: 199
VWidth: 950
GlyphClass: 2
Flags: W
LayerCount: 2
Fore
SplineSet
54 450 m 0,0,1
 46 438 46 438 34 437.5 c 128,-1,2
 22 437 22 437 12 444 c 0,3,4
 3 452 3 452 1.5 464.5 c 128,-1,5
 0 477 0 477 7 488 c 0,6,7
 14 497 14 497 25.5 499 c 128,-1,8
 37 501 37 501 46 494 c 0,9,10
 56 485 56 485 57.5 472.5 c 128,-1,11
 59 460 59 460 54 450 c 0,0,1
120 475 m 0,12,13
 127 485 127 485 136.5 485.5 c 128,-1,14
 146 486 146 486 154 480 c 0,15,16
 162 472 162 472 163.5 461.5 c 128,-1,17
 165 451 165 451 160 441 c 0,18,19
 153 432 153 432 143.5 430.5 c 128,-1,20
 134 429 134 429 124 437 c 0,21,22
 117 443 117 443 115.5 454.5 c 128,-1,23
 114 466 114 466 120 475 c 0,12,13
EndSplineSet
Validated: 1
EndChar

StartChar: copyright
Encoding: 169 169 102
Width: 285
VWidth: 950
GlyphClass: 2
Flags: W
LayerCount: 2
Fore
SplineSet
163 121 m 1,0,-1
 163 104 l 1,1,2
 139 111 139 111 120 109 c 0,3,4
 103 107 103 107 87.5 98 c 128,-1,5
 72 89 72 89 67 65 c 0,6,7
 65 56 65 56 65.5 43.5 c 128,-1,8
 66 31 66 31 74.5 20.5 c 128,-1,9
 83 10 83 10 101 4 c 128,-1,10
 119 -2 119 -2 152 1 c 1,11,12
 152 -2 152 -2 153 -5 c 0,13,14
 153 -7 153 -7 153.5 -7.5 c 128,-1,15
 154 -8 154 -8 154 -9 c 2,16,-1
 154 -11 l 1,17,18
 139 -13 139 -13 118.5 -11 c 128,-1,19
 98 -9 98 -9 81.5 0.5 c 128,-1,20
 65 10 65 10 56.5 29 c 128,-1,21
 48 48 48 48 56 81 c 0,22,23
 64 104 64 104 81.5 113 c 128,-1,24
 99 122 99 122 117 124 c 0,25,26
 138 126 138 126 163 121 c 1,0,-1
121 159 m 256,27,28
 136 159 136 159 155.5 155 c 128,-1,29
 175 151 175 151 193.5 139.5 c 128,-1,30
 212 128 212 128 225 108 c 128,-1,31
 238 88 238 88 240 55 c 0,32,33
 239 26 239 26 227.5 6 c 128,-1,34
 216 -14 216 -14 198 -26.5 c 128,-1,35
 180 -39 180 -39 158.5 -44.5 c 128,-1,36
 137 -50 137 -50 117 -50 c 0,37,38
 101 -50 101 -50 79.5 -46.5 c 128,-1,39
 58 -43 58 -43 39 -31.5 c 128,-1,40
 20 -20 20 -20 8 0.5 c 128,-1,41
 -4 21 -4 21 -2 54 c 256,42,43
 0 87 0 87 14 107.5 c 128,-1,44
 28 128 28 128 47 139.5 c 128,-1,45
 66 151 66 151 86 155 c 128,-1,46
 106 159 106 159 121 159 c 256,27,28
116 -38 m 0,47,48
 132 -39 132 -39 151.5 -33.5 c 128,-1,49
 171 -28 171 -28 187.5 -15.5 c 128,-1,50
 204 -3 204 -3 214.5 16.5 c 128,-1,51
 225 36 225 36 224 64 c 0,52,53
 223 90 223 90 210.5 107 c 128,-1,54
 198 124 198 124 182 134 c 128,-1,55
 166 144 166 144 150.5 148 c 128,-1,56
 135 152 135 152 128 152 c 0,57,58
 79 155 79 155 45.5 125.5 c 128,-1,59
 12 96 12 96 12 46 c 0,60,61
 12 23 12 23 22 7 c 128,-1,62
 32 -9 32 -9 47.5 -19 c 128,-1,63
 63 -29 63 -29 81 -33.5 c 128,-1,64
 99 -38 99 -38 116 -38 c 0,47,48
EndSplineSet
Validated: 33
EndChar

StartChar: logicalnot
Encoding: 172 172 103
Width: 267
VWidth: 950
GlyphClass: 2
Flags: W
LayerCount: 2
Fore
SplineSet
0 303 m 1,0,-1
 204 301 l 1,1,-1
 216 246 l 1,2,-1
 190 245 l 1,3,-1
 189 283 l 1,4,-1
 1 278 l 1,5,-1
 0 303 l 1,0,-1
EndSplineSet
Validated: 1
EndChar

StartChar: registered
Encoding: 174 174 104
Width: 265
VWidth: 950
GlyphClass: 2
Flags: W
LayerCount: 2
Fore
SplineSet
68 111 m 1,0,1
 69 111 69 111 83 112 c 128,-1,2
 97 113 97 113 113 110.5 c 128,-1,3
 129 108 129 108 142.5 101 c 128,-1,4
 156 94 156 94 155 79 c 0,5,6
 154 65 154 65 145 57.5 c 128,-1,7
 136 50 136 50 125 46 c 0,8,9
 112 42 112 42 95 40 c 1,10,-1
 143 -14 l 1,11,-1
 121 -14 l 1,12,-1
 81 38 l 1,13,-1
 80 -15 l 1,14,-1
 70 -14 l 1,15,-1
 68 111 l 1,0,1
80 52 m 1,16,17
 96 50 96 50 109 53 c 0,18,19
 120 55 120 55 129.5 60.5 c 128,-1,20
 139 66 139 66 139 79 c 0,21,22
 139 90 139 90 129.5 95.5 c 128,-1,23
 120 101 120 101 109 103 c 0,24,25
 96 105 96 105 80 103 c 1,26,-1
 80 52 l 1,16,17
109 141 m 256,27,28
 122 141 122 141 140 137 c 128,-1,29
 158 133 158 133 174.5 123 c 128,-1,30
 191 113 191 113 202.5 95 c 128,-1,31
 214 77 214 77 216 47 c 0,32,33
 215 21 215 21 204.5 2.5 c 128,-1,34
 194 -16 194 -16 177.5 -27 c 128,-1,35
 161 -38 161 -38 142 -43 c 128,-1,36
 123 -48 123 -48 105 -48 c 0,37,38
 91 -48 91 -48 71.5 -44.5 c 128,-1,39
 52 -41 52 -41 35 -31 c 128,-1,40
 18 -21 18 -21 7 -2.5 c 128,-1,41
 -4 16 -4 16 -2 46 c 0,42,43
 0 75 0 75 12.5 94 c 128,-1,44
 25 113 25 113 42 123.5 c 128,-1,45
 59 134 59 134 77.5 137.5 c 128,-1,46
 96 141 96 141 109 141 c 256,27,28
104 -37 m 0,47,48
 119 -38 119 -38 136.5 -33.5 c 128,-1,49
 154 -29 154 -29 169 -17.5 c 128,-1,50
 184 -6 184 -6 193 12 c 128,-1,51
 202 30 202 30 201 55 c 0,52,53
 200 78 200 78 188.5 93.5 c 128,-1,54
 177 109 177 109 162.5 118 c 128,-1,55
 148 127 148 127 134.5 131 c 128,-1,56
 121 135 121 135 115 135 c 0,57,58
 70 137 70 137 40 110.5 c 128,-1,59
 10 84 10 84 10 39 c 0,60,61
 10 18 10 18 19 3.5 c 128,-1,62
 28 -11 28 -11 42 -20 c 128,-1,63
 56 -29 56 -29 72.5 -33 c 128,-1,64
 89 -37 89 -37 104 -37 c 0,47,48
EndSplineSet
Validated: 33
EndChar

StartChar: cedilla
Encoding: 184 184 106
Width: 135
VWidth: 950
GlyphClass: 2
Flags: W
LayerCount: 2
Fore
SplineSet
10 17 m 0,0,1
 9 15 9 15 15 15.5 c 128,-1,2
 21 16 21 16 28 16 c 0,3,4
 36 16 36 16 46 17 c 1,5,6
 43 12 43 12 40 7 c 0,7,8
 38 2 38 2 37 -2.5 c 128,-1,9
 36 -7 36 -7 40 -10 c 0,10,11
 43 -13 43 -13 49 -14 c 128,-1,12
 55 -15 55 -15 61 -16 c 128,-1,13
 67 -17 67 -17 73 -20 c 128,-1,14
 79 -23 79 -23 83 -30 c 0,15,16
 91 -45 91 -45 70.5 -62.5 c 128,-1,17
 50 -80 50 -80 -2 -80 c 1,18,19
 -2 -80 -2 -80 -2 -67 c 2,20,-1
 -2 -54 l 1,21,22
 16 -57 16 -57 31 -56 c 0,23,24
 43 -55 43 -55 53.5 -51 c 128,-1,25
 64 -47 64 -47 65 -36 c 0,26,27
 66 -27 66 -27 60 -25 c 128,-1,28
 54 -23 54 -23 46 -23.5 c 128,-1,29
 38 -24 38 -24 30 -24.5 c 128,-1,30
 22 -25 22 -25 18 -20 c 0,31,32
 14 -16 14 -16 12.5 -9 c 128,-1,33
 11 -2 11 -2 10.5 4 c 128,-1,34
 10 10 10 10 10 14 c 128,-1,35
 10 18 10 18 10 17 c 0,0,1
EndSplineSet
Validated: 37
EndChar

StartChar: questiondown
Encoding: 191 191 107
Width: 514
VWidth: 950
GlyphClass: 2
Flags: W
LayerCount: 2
Fore
SplineSet
17 40 m 0,0,1
 0 71 0 71 0.5 100 c 128,-1,2
 1 129 1 129 13.5 153.5 c 128,-1,3
 26 178 26 178 47.5 200 c 128,-1,4
 69 222 69 222 95 240 c 0,5,6
 154 282 154 282 240 315 c 1,7,-1
 190 463 l 1,8,-1
 250 477 l 1,9,-1
 296 284 l 1,10,11
 223 264 223 264 173 231 c 0,12,13
 150 218 150 218 131.5 201.5 c 128,-1,14
 113 185 113 185 101.5 164.5 c 128,-1,15
 90 144 90 144 89 119.5 c 128,-1,16
 88 95 88 95 101 68 c 0,17,18
 117 33 117 33 146 19 c 128,-1,19
 175 5 175 5 213 2.5 c 128,-1,20
 251 0 251 0 305 18 c 128,-1,21
 359 36 359 36 425 103 c 1,22,-1
 484 44 l 1,23,24
 466 29 466 29 431 10.5 c 128,-1,25
 396 -8 396 -8 352 -25 c 128,-1,26
 308 -42 308 -42 259 -47 c 128,-1,27
 210 -52 210 -52 163.5 -47 c 128,-1,28
 117 -42 117 -42 79 -21.5 c 128,-1,29
 41 -1 41 -1 17 40 c 0,0,1
192 527 m 0,30,31
 179 531 179 531 172 547 c 128,-1,32
 165 563 165 563 170 582 c 0,33,34
 175 600 175 600 188.5 610.5 c 128,-1,35
 202 621 202 621 216 617 c 0,36,37
 229 614 229 614 236 598 c 128,-1,38
 243 582 243 582 238 563 c 0,39,40
 233 545 233 545 219.5 534.5 c 128,-1,41
 206 524 206 524 192 527 c 0,30,31
EndSplineSet
Validated: 33
EndChar

StartChar: Agrave
Encoding: 192 192 108
Width: 505
VWidth: 950
GlyphClass: 2
Flags: W
LayerCount: 2
Fore
SplineSet
0 -50 m 1,0,-1
 206 618 l 1,1,-1
 480 -41 l 1,2,-1
 365 -48 l 1,3,-1
 388 -19 l 1,4,-1
 200 452 l 1,5,-1
 140 229 l 1,6,-1
 303 240 l 1,7,-1
 314 190 l 1,8,-1
 129 179 l 1,9,-1
 65 -24 l 1,10,-1
 90 -50 l 1,11,-1
 1 -49 l 1,12,-1
 0 -50 l 1,0,-1
235 646 m 1,13,-1
 220 634 l 1,14,-1
 134 720 l 1,15,-1
 160 744 l 1,16,-1
 235 646 l 1,13,-1
235 646 m 1,17,-1
 220 634 l 1,18,-1
 134 720 l 1,19,-1
 160 744 l 1,20,-1
 235 646 l 1,17,-1
EndSplineSet
Validated: 5
EndChar

StartChar: Aacute
Encoding: 193 193 109
Width: 484
VWidth: 950
GlyphClass: 2
Flags: W
LayerCount: 2
Fore
SplineSet
0 -50 m 1,0,-1
 195 616 l 1,1,-1
 453 -41 l 1,2,-1
 345 -48 l 1,3,-1
 367 -19 l 1,4,-1
 189 451 l 1,5,-1
 132 228 l 1,6,-1
 286 239 l 1,7,-1
 297 189 l 1,8,-1
 122 179 l 1,9,-1
 61 -24 l 1,10,-1
 85 -50 l 1,11,-1
 1 -49 l 1,12,-1
 0 -50 l 1,0,-1
254 742 m 5,13,-1
 279 718 l 5,14,-1
 194 632 l 5,15,-1
 179 644 l 5,16,-1
 254 742 l 5,13,-1
254 742 m 5,17,-1
 279 718 l 5,18,-1
 194 632 l 5,19,-1
 179 644 l 5,20,-1
 254 742 l 5,17,-1
EndSplineSet
Validated: 5
EndChar

StartChar: Acircumflex
Encoding: 194 194 110
Width: 487
VWidth: 950
GlyphClass: 2
Flags: W
LayerCount: 2
Fore
SplineSet
190 742 m 5,0,-1
 297 666 l 5,1,-1
 275 659 l 5,2,-1
 194 721 l 5,3,-1
 151 633 l 5,4,-1
 115 641 l 5,5,-1
 190 742 l 5,0,-1
2 -50 m 1,6,-1
 197 616 l 1,7,-1
 455 -41 l 1,8,-1
 347 -48 l 1,9,-1
 369 -19 l 1,10,-1
 191 451 l 1,11,-1
 134 228 l 1,12,-1
 288 239 l 1,13,-1
 299 189 l 1,14,-1
 124 179 l 1,15,-1
 63 -24 l 1,16,-1
 87 -50 l 1,17,-1
 3 -49 l 1,18,-1
 2 -50 l 1,6,-1
EndSplineSet
Validated: 5
EndChar

StartChar: Atilde
Encoding: 195 195 111
Width: 496
VWidth: 950
GlyphClass: 2
Flags: W
LayerCount: 2
Fore
SplineSet
0 -50 m 1,0,-1
 206 655 l 1,1,-1
 480 -40 l 1,2,-1
 365 -48 l 1,3,-1
 388 -17 l 1,4,-1
 200 480 l 1,5,-1
 140 244 l 1,6,-1
 303 256 l 1,7,-1
 314 203 l 1,8,-1
 129 192 l 1,9,-1
 65 -23 l 1,10,-1
 90 -50 l 1,11,-1
 1 -49 l 1,12,-1
 0 -50 l 1,0,-1
89 638 m 1,13,14
 106 655 106 655 123 671 c 0,15,16
 136 683 136 683 152.5 694 c 128,-1,17
 169 705 169 705 183 709 c 0,18,19
 197 710 197 710 205.5 701 c 128,-1,20
 214 692 214 692 222 680 c 128,-1,21
 230 668 230 668 237 659.5 c 128,-1,22
 244 651 244 651 253 651 c 0,23,24
 260 651 260 651 264.5 662.5 c 128,-1,25
 269 674 269 674 272 690 c 0,26,27
 277 705 277 705 278 728 c 1,28,-1
 305 722 l 1,29,30
 297 694 297 694 289 674 c 0,31,32
 283 655 283 655 274.5 640.5 c 128,-1,33
 266 626 266 626 257 626 c 0,34,35
 241 625 241 625 233 633 c 128,-1,36
 225 641 225 641 219 652.5 c 128,-1,37
 213 664 213 664 206 675 c 128,-1,38
 199 686 199 686 186 686 c 0,39,40
 172 686 172 686 160.5 675 c 128,-1,41
 149 664 149 664 138 651 c 0,42,43
 125 638 125 638 114 618 c 1,44,-1
 89 638 l 1,13,14
EndSplineSet
Validated: 5
EndChar

StartChar: Adieresis
Encoding: 196 196 112
Width: 505
VWidth: 950
GlyphClass: 2
Flags: W
LayerCount: 2
Fore
SplineSet
0 -50 m 1,0,-1
 206 618 l 1,1,-1
 480 -41 l 1,2,-1
 365 -48 l 1,3,-1
 388 -19 l 1,4,-1
 200 452 l 1,5,-1
 140 229 l 1,6,-1
 303 240 l 1,7,-1
 314 190 l 1,8,-1
 129 179 l 1,9,-1
 65 -24 l 1,10,-1
 90 -50 l 1,11,-1
 1 -49 l 1,12,-1
 0 -50 l 1,0,-1
183 669 m 0,13,14
 175 657 175 657 163 656.5 c 128,-1,15
 151 656 151 656 141 663 c 0,16,17
 132 671 132 671 130.5 683.5 c 128,-1,18
 129 696 129 696 136 707 c 0,19,20
 143 716 143 716 154.5 718 c 128,-1,21
 166 720 166 720 175 713 c 0,22,23
 185 704 185 704 186.5 691.5 c 128,-1,24
 188 679 188 679 183 669 c 0,13,14
249 694 m 0,25,26
 256 704 256 704 265.5 704.5 c 128,-1,27
 275 705 275 705 283 699 c 0,28,29
 291 691 291 691 292.5 680.5 c 128,-1,30
 294 670 294 670 289 660 c 0,31,32
 282 651 282 651 272.5 649.5 c 128,-1,33
 263 648 263 648 253 656 c 0,34,35
 246 662 246 662 244.5 673.5 c 128,-1,36
 243 685 243 685 249 694 c 0,25,26
EndSplineSet
Validated: 5
EndChar

StartChar: Aring
Encoding: 197 197 113
Width: 505
VWidth: 950
GlyphClass: 2
Flags: W
LayerCount: 2
Fore
SplineSet
209 715 m 260,0,1
 217 715 217 715 226.5 713 c 132,-1,2
 236 711 236 711 245.5 705.5 c 132,-1,3
 255 700 255 700 261.5 690 c 132,-1,4
 268 680 268 680 269 663 c 4,5,6
 268 648 268 648 262.5 638 c 132,-1,7
 257 628 257 628 244 619 c 132,-1,8
 231 610 231 610 205.5 611 c 132,-1,9
 180 612 180 612 169 618.5 c 132,-1,10
 158 625 158 625 152 635.5 c 132,-1,11
 146 646 146 646 147 662 c 4,12,13
 148 679 148 679 155 689.5 c 132,-1,14
 162 700 162 700 171.5 705.5 c 132,-1,15
 181 711 181 711 191 713 c 132,-1,16
 201 715 201 715 209 715 c 260,0,1
207 622 m 260,17,18
 214 622 214 622 222 624 c 132,-1,19
 230 626 230 626 237.5 631.5 c 132,-1,20
 245 637 245 637 249 645 c 132,-1,21
 253 653 253 653 253 665 c 4,22,23
 252 677 252 677 247 683.5 c 132,-1,24
 242 690 242 690 235.5 694.5 c 132,-1,25
 229 699 229 699 222 700.5 c 132,-1,26
 215 702 215 702 212 702 c 4,27,28
 192 703 192 703 177.5 691 c 132,-1,29
 163 679 163 679 163 657 c 4,30,31
 163 648 163 648 167.5 641.5 c 132,-1,32
 172 635 172 635 178.5 630.5 c 132,-1,33
 185 626 185 626 192.5 624 c 132,-1,34
 200 622 200 622 207 622 c 260,17,18
0 -50 m 1,35,-1
 206 618 l 5,36,-1
 480 -41 l 1,37,-1
 365 -48 l 1,38,-1
 388 -19 l 1,39,-1
 200 452 l 1,40,-1
 140 229 l 1,41,-1
 303 240 l 1,42,-1
 314 190 l 1,43,-1
 129 179 l 1,44,-1
 65 -24 l 1,45,-1
 90 -50 l 1,46,-1
 1 -49 l 1,47,-1
 0 -50 l 1,35,-1
EndSplineSet
Validated: 37
EndChar

StartChar: AE
Encoding: 198 198 114
Width: 740
VWidth: 950
GlyphClass: 2
Flags: W
LayerCount: 2
Fore
SplineSet
277 651 m 1,0,-1
 692 642 l 1,1,2
 691 513 691 513 691 514 c 256,3,4
 691 515 691 515 678.5 527.5 c 128,-1,5
 666 540 666 540 650 555 c 128,-1,6
 634 570 634 570 620.5 582 c 128,-1,7
 607 594 607 594 603 595 c 0,8,9
 601 595 601 595 388 586 c 1,10,-1
 395 315 l 1,11,-1
 566 331 l 1,12,-1
 566 265 l 1,13,-1
 395 265 l 1,14,-1
 400 5 l 1,15,16
 588 10 588 10 590 11 c 0,17,18
 592 13 592 13 604 21.5 c 128,-1,19
 616 30 616 30 628 39 c 2,20,-1
 663 64 l 1,21,-1
 663 -49 l 1,22,-1
 320 -49 l 1,23,-1
 320 6 l 1,24,-1
 346 5 l 1,25,-1
 347 584 l 1,26,-1
 278 584 l 1,27,-1
 277 651 l 1,0,-1
-1 -49 m 1,28,-1
 325 615 l 1,29,-1
 368 587 l 1,30,-1
 365 -49 l 1,31,-1
 261 -49 l 1,32,-1
 289 -35 l 2,33,34
 299 -30 299 -30 308 -25 c 128,-1,35
 317 -20 317 -20 318 -18 c 2,36,37
 318 -18 318 -18 318.5 6.5 c 128,-1,38
 319 31 319 31 321 70 c 128,-1,39
 323 109 323 109 325 160 c 128,-1,40
 327 211 327 211 329.5 262.5 c 128,-1,41
 332 314 332 314 334 361.5 c 128,-1,42
 336 409 336 409 338 444.5 c 128,-1,43
 340 480 340 480 340.5 497 c 128,-1,44
 341 514 341 514 341 505 c 1,45,-1
 233 296 l 1,46,-1
 342 302 l 1,47,-1
 356 267 l 1,48,-1
 220 266 l 1,49,-1
 152 124 l 2,50,51
 139 98 139 98 126.5 72.5 c 128,-1,52
 114 47 114 47 105 26.5 c 128,-1,53
 96 6 96 6 90.5 -7 c 128,-1,54
 85 -20 85 -20 85 -20 c 2,55,56
 85 -23 85 -23 92.5 -27 c 128,-1,57
 100 -31 100 -31 111 -36 c 0,58,59
 123 -42 123 -42 138 -49 c 1,60,-1
 -1 -49 l 1,28,-1
EndSplineSet
Validated: 37
EndChar

StartChar: Egrave
Encoding: 200 200 116
Width: 508
VWidth: 950
GlyphClass: 2
Flags: W
LayerCount: 2
Fore
SplineSet
0 615 m 1,0,-1
 462 608 l 1,1,-1
 461 496 l 1,2,3
 440 512 440 512 422 526.5 c 128,-1,4
 404 541 404 541 384 556 c 1,5,-1
 114 559 l 1,6,-1
 116 331 l 1,7,-1
 304 340 l 1,8,-1
 304 279 l 1,9,-1
 117 279 l 1,10,-1
 124 4 l 1,11,12
 348 8 348 8 349 9 c 0,13,14
 352 10 352 10 432 60 c 1,15,-1
 432 -48 l 1,16,-1
 24 -48 l 1,17,-1
 24 4 l 1,18,-1
 53 2 l 1,19,-1
 53 561 l 1,20,-1
 0 561 l 1,21,-1
 0 615 l 1,0,-1
260 644 m 1,22,-1
 245 632 l 1,23,-1
 159 718 l 1,24,-1
 185 742 l 1,25,-1
 260 644 l 1,22,-1
260 644 m 1,26,-1
 245 632 l 1,27,-1
 159 718 l 1,28,-1
 185 742 l 1,29,-1
 260 644 l 1,26,-1
EndSplineSet
Validated: 5
EndChar

StartChar: Eacute
Encoding: 201 201 117
Width: 508
VWidth: 950
GlyphClass: 2
Flags: W
LayerCount: 2
Fore
SplineSet
0 615 m 1,0,-1
 462 608 l 1,1,-1
 461 496 l 1,2,3
 440 512 440 512 422 526.5 c 128,-1,4
 404 541 404 541 384 556 c 1,5,-1
 114 559 l 1,6,-1
 116 331 l 1,7,-1
 304 340 l 1,8,-1
 304 279 l 1,9,-1
 117 279 l 1,10,-1
 124 4 l 1,11,12
 348 8 348 8 349 9 c 0,13,14
 352 10 352 10 432 60 c 1,15,-1
 432 -48 l 1,16,-1
 24 -48 l 1,17,-1
 24 4 l 1,18,-1
 53 2 l 1,19,-1
 53 561 l 1,20,-1
 0 561 l 1,21,-1
 0 615 l 1,0,-1
265 747 m 5,22,-1
 290 723 l 5,23,-1
 205 637 l 5,24,-1
 190 649 l 5,25,-1
 265 747 l 5,22,-1
265 747 m 5,26,-1
 290 723 l 5,27,-1
 205 637 l 5,28,-1
 190 649 l 5,29,-1
 265 747 l 5,26,-1
EndSplineSet
Validated: 5
EndChar

StartChar: Ecircumflex
Encoding: 202 202 118
Width: 508
VWidth: 950
GlyphClass: 2
Flags: W
LayerCount: 2
Fore
SplineSet
208 743 m 5,0,-1
 315 667 l 5,1,-1
 293 660 l 5,2,-1
 212 722 l 5,3,-1
 169 634 l 5,4,-1
 133 642 l 5,5,-1
 208 743 l 5,0,-1
0 615 m 1,6,-1
 462 608 l 1,7,-1
 461 496 l 1,8,9
 440 512 440 512 422 526.5 c 128,-1,10
 404 541 404 541 384 556 c 1,11,-1
 114 559 l 1,12,-1
 116 331 l 1,13,-1
 304 340 l 1,14,-1
 304 279 l 1,15,-1
 117 279 l 1,16,-1
 124 4 l 1,17,18
 348 8 348 8 349 9 c 0,19,20
 352 10 352 10 432 60 c 1,21,-1
 432 -48 l 1,22,-1
 24 -48 l 1,23,-1
 24 4 l 1,24,-1
 53 2 l 1,25,-1
 53 561 l 1,26,-1
 0 561 l 1,27,-1
 0 615 l 1,6,-1
EndSplineSet
Validated: 1
EndChar

StartChar: Edieresis
Encoding: 203 203 119
Width: 508
VWidth: 950
GlyphClass: 2
Flags: W
LayerCount: 2
Fore
SplineSet
0 615 m 1,0,-1
 462 608 l 1,1,-1
 461 496 l 1,2,3
 440 512 440 512 422 526.5 c 128,-1,4
 404 541 404 541 384 556 c 1,5,-1
 114 559 l 1,6,-1
 116 331 l 1,7,-1
 304 340 l 1,8,-1
 304 279 l 1,9,-1
 117 279 l 1,10,-1
 124 4 l 1,11,12
 348 8 348 8 349 9 c 0,13,14
 352 10 352 10 432 60 c 1,15,-1
 432 -48 l 1,16,-1
 24 -48 l 1,17,-1
 24 4 l 1,18,-1
 53 2 l 1,19,-1
 53 561 l 1,20,-1
 0 561 l 1,21,-1
 0 615 l 1,0,-1
205 660 m 0,22,23
 197 648 197 648 185 647.5 c 128,-1,24
 173 647 173 647 163 654 c 0,25,26
 154 662 154 662 152.5 674.5 c 128,-1,27
 151 687 151 687 158 698 c 0,28,29
 165 707 165 707 176.5 709 c 128,-1,30
 188 711 188 711 197 704 c 0,31,32
 207 695 207 695 208.5 682.5 c 128,-1,33
 210 670 210 670 205 660 c 0,22,23
271 685 m 0,34,35
 278 695 278 695 287.5 695.5 c 128,-1,36
 297 696 297 696 305 690 c 0,37,38
 313 682 313 682 314.5 671.5 c 128,-1,39
 316 661 316 661 311 651 c 0,40,41
 304 642 304 642 294.5 640.5 c 128,-1,42
 285 639 285 639 275 647 c 0,43,44
 268 653 268 653 266.5 664.5 c 128,-1,45
 265 676 265 676 271 685 c 0,34,35
EndSplineSet
Validated: 1
EndChar

StartChar: Icircumflex
Encoding: 206 206 122
Width: 208
VWidth: 950
GlyphClass: 2
Flags: W
LayerCount: 2
Fore
SplineSet
61 723 m 1,0,-1
 143 664 l 1,1,-1
 126 659 l 1,2,-1
 64 707 l 1,3,-1
 30 639 l 1,4,-1
 3 646 l 1,5,-1
 61 723 l 1,0,-1
0 625 m 1,6,-1
 134 625 l 1,7,8
 125 617 125 617 118 611 c 0,9,10
 114 605 114 605 108 599 c 128,-1,11
 102 593 102 593 101 589 c 0,12,13
 101 588 101 588 103 296.5 c 128,-1,14
 105 5 105 5 106 4 c 0,15,16
 108 1 108 1 165 -48 c 1,17,-1
 2 -50 l 1,18,19
 30 -24 30 -24 35 -14 c 0,20,21
 37 -10 37 -10 39 284 c 128,-1,22
 41 578 41 578 41 581 c 0,23,24
 38 586 38 586 32.5 593 c 128,-1,25
 27 600 27 600 0 625 c 1,6,-1
EndSplineSet
Validated: 1
EndChar

StartChar: Eth
Encoding: 208 208 124
Width: 578
VWidth: 950
GlyphClass: 2
Flags: W
LayerCount: 2
Fore
SplineSet
2 637 m 1,0,1
 129 660 129 660 236 641 c 0,2,3
 281 633 281 633 327 615 c 128,-1,4
 373 597 373 597 412 564.5 c 128,-1,5
 451 532 451 532 481.5 483 c 128,-1,6
 512 434 512 434 526 365 c 0,7,8
 542 273 542 273 529.5 206.5 c 128,-1,9
 517 140 517 140 485.5 94 c 128,-1,10
 454 48 454 48 407.5 20 c 128,-1,11
 361 -8 361 -8 311 -23 c 0,12,13
 193 -59 193 -59 32 -42 c 1,14,-1
 31 15 l 1,15,16
 153 -5 153 -5 246 16 c 0,17,18
 286 25 286 25 323.5 45 c 128,-1,19
 361 65 361 65 389.5 99.5 c 128,-1,20
 418 134 418 134 434 185.5 c 128,-1,21
 450 237 450 237 447 311 c 0,22,23
 442 376 442 376 425.5 423.5 c 128,-1,24
 409 471 409 471 384.5 503.5 c 128,-1,25
 360 536 360 536 330.5 556 c 128,-1,26
 301 576 301 576 270 587 c 0,27,28
 199 613 199 613 112 602 c 1,29,-1
 137 -10 l 1,30,-1
 70 0 l 1,31,-1
 68 595 l 1,32,-1
 8 578 l 1,33,-1
 2 637 l 1,0,1
0 324 m 5,34,-1
 248 343 l 5,35,-1
 245 278 l 5,36,-1
 3 286 l 5,37,-1
 0 324 l 5,34,-1
EndSplineSet
Validated: 37
EndChar

StartChar: Ocircumflex
Encoding: 212 212 128
Width: 630
VWidth: 950
GlyphClass: 2
Flags: W
LayerCount: 2
Fore
SplineSet
266 733 m 1,0,-1
 373 657 l 1,1,-1
 351 650 l 1,2,-1
 270 712 l 1,3,-1
 227 624 l 1,4,-1
 191 632 l 1,5,-1
 266 733 l 1,0,-1
296 618 m 0,6,7
 377 617 377 617 442 588 c 0,8,9
 471 577 471 577 498 557 c 128,-1,10
 525 537 525 537 547.5 506 c 128,-1,11
 570 475 570 475 584 431.5 c 128,-1,12
 598 388 598 388 601 332 c 0,13,14
 602 238 602 238 577 167.5 c 128,-1,15
 552 97 552 97 510 49 c 128,-1,16
 468 1 468 1 415 -23.5 c 128,-1,17
 362 -48 362 -48 306 -49 c 256,18,19
 250 -50 250 -50 195 -30 c 128,-1,20
 140 -10 140 -10 96.5 33.5 c 128,-1,21
 53 77 53 77 28 144.5 c 128,-1,22
 3 212 3 212 9 305 c 0,23,24
 13 393 13 393 39.5 450 c 128,-1,25
 66 507 66 507 101 541.5 c 128,-1,26
 136 576 136 576 183 596.5 c 128,-1,27
 230 617 230 617 296 618 c 0,6,7
517 278 m 0,28,29
 522 345 522 345 509.5 393.5 c 128,-1,30
 497 442 497 442 474.5 476.5 c 128,-1,31
 452 511 452 511 425.5 532.5 c 128,-1,32
 399 554 399 554 368 566 c 128,-1,33
 337 578 337 578 299 579 c 0,34,35
 294 579 294 579 278.5 578.5 c 128,-1,36
 263 578 263 578 242.5 573.5 c 128,-1,37
 222 569 222 569 200.5 558 c 128,-1,38
 179 547 179 547 156.5 526.5 c 128,-1,39
 134 506 134 506 117 466 c 128,-1,40
 100 426 100 426 93 368 c 0,41,42
 82 281 82 281 99 210 c 128,-1,43
 116 139 116 139 148.5 89 c 128,-1,44
 181 39 181 39 225 12.5 c 128,-1,45
 269 -14 269 -14 312 -12 c 0,46,47
 334 -12 334 -12 366 -4 c 128,-1,48
 398 4 398 4 428.5 32.5 c 128,-1,49
 459 61 459 61 484 119 c 128,-1,50
 509 177 509 177 517 278 c 0,28,29
EndSplineSet
Validated: 33
EndChar

StartChar: Odieresis
Encoding: 214 214 130
Width: 630
VWidth: 950
GlyphClass: 2
Flags: W
LayerCount: 2
Fore
SplineSet
255 646 m 0,0,1
 249 636 249 636 239 634 c 128,-1,2
 229 632 229 632 221 639 c 0,3,4
 213 647 213 647 211.5 658.5 c 128,-1,5
 210 670 210 670 216 680 c 256,6,7
 222 690 222 690 232.5 692 c 128,-1,8
 243 694 243 694 251 686 c 0,9,10
 259 679 259 679 260.5 667.5 c 128,-1,11
 262 656 262 656 255 646 c 0,0,1
357 668 m 256,12,13
 362 676 362 676 371 678 c 128,-1,14
 380 680 380 680 387 674 c 0,15,16
 395 667 395 667 396 657 c 128,-1,17
 397 647 397 647 392 638 c 0,18,19
 387 630 387 630 378 628.5 c 128,-1,20
 369 627 369 627 361 633 c 0,21,22
 354 639 354 639 353 649.5 c 128,-1,23
 352 660 352 660 357 668 c 256,12,13
296 618 m 0,24,25
 377 617 377 617 442 588 c 0,26,27
 471 577 471 577 498 557 c 128,-1,28
 525 537 525 537 547.5 506 c 128,-1,29
 570 475 570 475 584 431.5 c 128,-1,30
 598 388 598 388 601 332 c 0,31,32
 602 238 602 238 577 167.5 c 128,-1,33
 552 97 552 97 510 49 c 128,-1,34
 468 1 468 1 415 -23.5 c 128,-1,35
 362 -48 362 -48 306 -49 c 256,36,37
 250 -50 250 -50 195 -30 c 128,-1,38
 140 -10 140 -10 96.5 33.5 c 128,-1,39
 53 77 53 77 28 144.5 c 128,-1,40
 3 212 3 212 9 305 c 0,41,42
 13 393 13 393 39.5 450 c 128,-1,43
 66 507 66 507 101 541.5 c 128,-1,44
 136 576 136 576 183 596.5 c 128,-1,45
 230 617 230 617 296 618 c 0,24,25
517 278 m 0,46,47
 522 345 522 345 509.5 393.5 c 128,-1,48
 497 442 497 442 474.5 476.5 c 128,-1,49
 452 511 452 511 425.5 532.5 c 128,-1,50
 399 554 399 554 368 566 c 128,-1,51
 337 578 337 578 299 579 c 0,52,53
 294 579 294 579 278.5 578.5 c 128,-1,54
 263 578 263 578 242.5 573.5 c 128,-1,55
 222 569 222 569 200.5 558 c 128,-1,56
 179 547 179 547 156.5 526.5 c 128,-1,57
 134 506 134 506 117 466 c 128,-1,58
 100 426 100 426 93 368 c 0,59,60
 82 281 82 281 99 210 c 128,-1,61
 116 139 116 139 148.5 89 c 128,-1,62
 181 39 181 39 225 12.5 c 128,-1,63
 269 -14 269 -14 312 -12 c 0,64,65
 334 -12 334 -12 366 -4 c 128,-1,66
 398 4 398 4 428.5 32.5 c 128,-1,67
 459 61 459 61 484 119 c 128,-1,68
 509 177 509 177 517 278 c 0,46,47
EndSplineSet
Validated: 33
EndChar

StartChar: multiply
Encoding: 215 215 131
Width: 439
VWidth: 950
GlyphClass: 2
Flags: W
LayerCount: 2
Fore
SplineSet
399 112 m 1,0,-1
 340 110 l 1,1,-1
 194 259 l 1,2,-1
 87 116 l 1,3,-1
 11 117 l 1,4,-1
 158 298 l 1,5,-1
 4 456 l 1,6,-1
 67 457 l 1,7,-1
 187 332 l 1,8,-1
 278 445 l 1,9,-1
 334 443 l 1,10,-1
 223 296 l 1,11,-1
 399 112 l 1,0,-1
EndSplineSet
Validated: 1
EndChar

StartChar: Oslash
Encoding: 216 216 132
Width: 621
VWidth: 950
GlyphClass: 2
Flags: W
LayerCount: 2
Fore
SplineSet
515 557 m 1,0,1
 546 525 546 525 567.5 473.5 c 128,-1,2
 589 422 589 422 592 347 c 0,3,4
 592 249 592 249 567.5 176 c 128,-1,5
 543 103 543 103 502 53.5 c 128,-1,6
 461 4 461 4 408 -21.5 c 128,-1,7
 355 -47 355 -47 300 -48 c 0,8,9
 247 -49 247 -49 195.5 -30 c 128,-1,10
 144 -11 144 -11 101 29 c 1,11,-1
 59 -24 l 1,12,-1
 6 27 l 1,13,-1
 56 86 l 1,14,15
 29 129 29 129 15.5 187 c 128,-1,16
 2 245 2 245 6 319 c 0,17,18
 11 402 11 402 32.5 457.5 c 128,-1,19
 54 513 54 513 85 548.5 c 128,-1,20
 116 584 116 584 150.5 603 c 128,-1,21
 185 622 185 622 215 630 c 128,-1,22
 245 638 245 638 291 642 c 0,23,24
 298 642 298 642 317 641 c 128,-1,25
 336 640 336 640 363 635 c 128,-1,26
 390 630 390 630 421.5 618.5 c 128,-1,27
 453 607 453 607 482 585 c 1,28,-1
 541 655 l 1,29,-1
 577 637 l 1,30,-1
 515 557 l 1,0,1
89 384 m 0,31,32
 80 316 80 316 87.5 258.5 c 128,-1,33
 95 201 95 201 114 153 c 1,34,-1
 438 535 l 1,35,36
 417 558 417 558 394 572 c 128,-1,37
 371 586 371 586 350.5 594.5 c 128,-1,38
 330 603 330 603 315.5 606.5 c 128,-1,39
 301 610 301 610 297 610 c 0,40,41
 291 610 291 610 275.5 610.5 c 128,-1,42
 260 611 260 611 239 606 c 128,-1,43
 218 601 218 601 195 588.5 c 128,-1,44
 172 576 172 576 150.5 551.5 c 128,-1,45
 129 527 129 527 112 486 c 128,-1,46
 95 445 95 445 89 384 c 0,31,32
306 -11 m 0,47,48
 320 -10 320 -10 339 -6.5 c 128,-1,49
 358 -3 358 -3 379 7 c 128,-1,50
 400 17 400 17 421 36.5 c 128,-1,51
 442 56 442 56 460 89 c 128,-1,52
 478 122 478 122 491 171.5 c 128,-1,53
 504 221 504 221 509 291 c 0,54,55
 514 360 514 360 501.5 410 c 128,-1,56
 489 460 489 460 466 496 c 1,57,-1
 148 88 l 1,58,59
 181 40 181 40 222.5 13.5 c 128,-1,60
 264 -13 264 -13 306 -11 c 0,47,48
EndSplineSet
Validated: 33
EndChar

StartChar: Ucircumflex
Encoding: 219 219 135
Width: 540
VWidth: 950
GlyphClass: 2
Flags: W
LayerCount: 2
Fore
SplineSet
240 760 m 1,0,-1
 347 684 l 1,1,-1
 325 677 l 1,2,-1
 244 739 l 1,3,-1
 201 651 l 1,4,-1
 165 659 l 1,5,-1
 240 760 l 1,0,-1
1 649 m 1,6,-1
 131 646 l 1,7,8
 121 632 121 632 112 620 c 0,9,10
 104 608 104 608 97.5 597 c 128,-1,11
 91 586 91 586 90 578 c 0,12,13
 90 516 90 516 91.5 452.5 c 128,-1,14
 93 389 93 389 99 328.5 c 128,-1,15
 105 268 105 268 117 212.5 c 128,-1,16
 129 157 129 157 149 114 c 128,-1,17
 169 71 169 71 202.5 43.5 c 128,-1,18
 236 16 236 16 281 9 c 0,19,20
 324 4 324 4 353 42 c 128,-1,21
 382 80 382 80 398 141.5 c 128,-1,22
 414 203 414 203 416.5 277 c 128,-1,23
 419 351 419 351 418 417 c 128,-1,24
 417 483 417 483 409.5 532 c 128,-1,25
 402 581 402 581 392 592 c 0,26,27
 391 594 391 594 384 600.5 c 128,-1,28
 377 607 377 607 369 614 c 2,29,-1
 349 632 l 1,30,-1
 419 632 l 1,31,-1
 488 633 l 1,32,33
 489 563 489 563 491.5 482.5 c 128,-1,34
 494 402 494 402 491.5 323 c 128,-1,35
 489 244 489 244 479.5 172 c 128,-1,36
 470 100 470 100 445.5 48 c 128,-1,37
 421 -4 421 -4 380 -30 c 128,-1,38
 339 -56 339 -56 276 -45 c 0,39,40
 202 -31 202 -31 155 14 c 128,-1,41
 108 59 108 59 79.5 120.5 c 128,-1,42
 51 182 51 182 38 254.5 c 128,-1,43
 25 327 25 327 20.5 395 c 128,-1,44
 16 463 16 463 16 521 c 128,-1,45
 16 579 16 579 13 611 c 1,46,-1
 6 634 l 2,47,48
 3 641 3 641 1 649 c 1,6,-1
EndSplineSet
Validated: 33
EndChar

StartChar: Thorn
Encoding: 222 222 138
Width: 494
VWidth: 950
GlyphClass: 2
Flags: W
LayerCount: 2
Fore
SplineSet
462 359 m 0,0,1
 473 306 473 306 460.5 267.5 c 128,-1,2
 448 229 448 229 421.5 202 c 128,-1,3
 395 175 395 175 358 159 c 128,-1,4
 321 143 321 143 282 133 c 128,-1,5
 243 123 243 123 206.5 120 c 128,-1,6
 170 117 170 117 145 117 c 1,7,8
 150 69 150 69 152.5 39.5 c 128,-1,9
 155 10 155 10 156 8 c 0,10,11
 158 6 158 6 169 -1 c 128,-1,12
 180 -8 180 -8 194 -15 c 0,13,14
 210 -24 210 -24 229 -35 c 1,15,-1
 52 -48 l 1,16,17
 59 -41 59 -41 66 -35 c 0,18,19
 80 -21 80 -21 84 -11 c 0,20,21
 89 1 89 1 89.5 48.5 c 128,-1,22
 90 96 90 96 88 160 c 128,-1,23
 86 224 86 224 83.5 296.5 c 128,-1,24
 81 369 81 369 76.5 433 c 128,-1,25
 72 497 72 497 67.5 543.5 c 128,-1,26
 63 590 63 590 59 603 c 0,27,28
 57 608 57 608 48 615 c 128,-1,29
 39 622 39 622 28 630 c 0,30,31
 16 639 16 639 0 648 c 1,32,-1
 148 648 l 1,33,34
 139 640 139 640 132 634 c 0,35,36
 127 628 127 628 121 622 c 128,-1,37
 115 616 115 616 114 612 c 0,38,39
 114 611 114 611 114.5 590 c 128,-1,40
 115 569 115 569 118 535 c 1,41,42
 189 546 189 546 247.5 543 c 128,-1,43
 306 540 306 540 349 520 c 128,-1,44
 392 500 392 500 420.5 461 c 128,-1,45
 449 422 449 422 462 359 c 0,0,1
141 167 m 1,46,47
 162 166 162 166 188.5 165.5 c 128,-1,48
 215 165 215 165 243.5 169 c 128,-1,49
 272 173 272 173 299.5 183 c 128,-1,50
 327 193 327 193 349 212 c 128,-1,51
 371 231 371 231 383.5 261 c 128,-1,52
 396 291 396 291 395 334 c 0,53,54
 388 400 388 400 355 432 c 128,-1,55
 322 464 322 464 279.5 475.5 c 128,-1,56
 237 487 237 487 193.5 483.5 c 128,-1,57
 150 480 150 480 121 474 c 1,58,59
 123 441 123 441 125.5 401.5 c 128,-1,60
 128 362 128 362 130.5 322 c 128,-1,61
 133 282 133 282 136 242.5 c 128,-1,62
 139 203 139 203 141 167 c 1,46,47
EndSplineSet
Validated: 33
EndChar

StartChar: germandbls
Encoding: 223 223 139
Width: 490
VWidth: 950
GlyphClass: 2
Flags: W
LayerCount: 2
Fore
SplineSet
0 -46 m 1,0,-1
 0 472 l 2,1,2
 0 507 0 507 7.5 540.5 c 128,-1,3
 15 574 15 574 35.5 599.5 c 128,-1,4
 56 625 56 625 94 637.5 c 128,-1,5
 132 650 132 650 194 644 c 0,6,7
 245 638 245 638 278 618.5 c 128,-1,8
 311 599 311 599 330 575.5 c 128,-1,9
 349 552 349 552 356 529.5 c 128,-1,10
 363 507 363 507 363 495 c 0,11,12
 363 462 363 462 352.5 440.5 c 128,-1,13
 342 419 342 419 327.5 404.5 c 128,-1,14
 313 390 313 390 296 381.5 c 128,-1,15
 279 373 279 373 264.5 368.5 c 128,-1,16
 250 364 250 364 239.5 362.5 c 128,-1,17
 229 361 229 361 229 358 c 0,18,19
 228 356 228 356 244 354.5 c 128,-1,20
 260 353 260 353 284.5 348 c 128,-1,21
 309 343 309 343 338.5 331.5 c 128,-1,22
 368 320 368 320 394 297.5 c 128,-1,23
 420 275 420 275 437.5 240 c 128,-1,24
 455 205 455 205 458 152 c 0,25,26
 461 90 461 90 432.5 46 c 128,-1,27
 404 2 404 2 361.5 -20 c 128,-1,28
 319 -42 319 -42 270.5 -43.5 c 128,-1,29
 222 -45 222 -45 184 -22 c 0,30,31
 167 -11 167 -11 152 15.5 c 128,-1,32
 137 42 137 42 139 71 c 0,33,34
 138 72 138 72 147.5 71.5 c 128,-1,35
 157 71 157 71 169 71 c 0,36,37
 182 70 182 70 200 70 c 1,38,39
 199 45 199 45 206 26 c 0,40,41
 211 10 211 10 226.5 -2.5 c 128,-1,42
 242 -15 242 -15 271 -13 c 0,43,44
 324 -10 324 -10 349.5 35 c 128,-1,45
 375 80 375 80 376 148 c 0,46,47
 376 185 376 185 367 213 c 128,-1,48
 358 241 358 241 342.5 260.5 c 128,-1,49
 327 280 327 280 306.5 292.5 c 128,-1,50
 286 305 286 305 265 312 c 0,51,52
 216 330 216 330 152 327 c 1,53,-1
 152 386 l 1,54,55
 194 385 194 385 225 396 c 0,56,57
 252 405 252 405 273 426 c 128,-1,58
 294 447 294 447 293 488 c 0,59,60
 290 551 290 551 255 582 c 128,-1,61
 220 613 220 613 178.5 615 c 128,-1,62
 137 617 137 617 102 591 c 128,-1,63
 67 565 67 565 64 514 c 1,64,-1
 78 -8 l 1,65,-1
 123 -49 l 1,66,-1
 0 -46 l 1,0,-1
EndSplineSet
Validated: 33
EndChar

StartChar: agrave
Encoding: 224 224 140
Width: 505
VWidth: 950
GlyphClass: 2
Flags: W
LayerCount: 2
Fore
SplineSet
279 1003 m 1,0,-1
 264 991 l 1,1,-1
 178 1077 l 1,2,-1
 204 1101 l 1,3,-1
 279 1003 l 1,0,-1
279 1003 m 1,4,-1
 264 991 l 1,5,-1
 178 1077 l 1,6,-1
 204 1101 l 1,7,-1
 279 1003 l 1,4,-1
221 648 m 1,8,-1
 206 636 l 1,9,-1
 120 722 l 1,10,-1
 146 746 l 1,11,-1
 221 648 l 1,8,-1
0 -50 m 1,12,-1
 206 618 l 1,13,-1
 480 -41 l 1,14,-1
 365 -48 l 1,15,-1
 388 -19 l 1,16,-1
 200 452 l 1,17,-1
 140 229 l 1,18,-1
 303 240 l 1,19,-1
 314 190 l 1,20,-1
 129 179 l 1,21,-1
 65 -24 l 1,22,-1
 90 -50 l 1,23,-1
 1 -49 l 1,24,-1
 0 -50 l 1,12,-1
EndSplineSet
Validated: 5
EndChar

StartChar: aacute
Encoding: 225 225 141
Width: 505
VWidth: 950
GlyphClass: 2
Flags: W
LayerCount: 2
Fore
SplineSet
0 -50 m 1,0,-1
 206 618 l 1,1,-1
 480 -41 l 1,2,-1
 365 -48 l 1,3,-1
 388 -19 l 1,4,-1
 200 452 l 1,5,-1
 140 229 l 1,6,-1
 303 240 l 1,7,-1
 314 190 l 1,8,-1
 129 179 l 1,9,-1
 65 -24 l 1,10,-1
 90 -50 l 1,11,-1
 1 -49 l 1,12,-1
 0 -50 l 1,0,-1
266 741 m 1,13,-1
 291 717 l 1,14,-1
 206 631 l 1,15,-1
 191 643 l 1,16,-1
 266 741 l 1,13,-1
266 741 m 1,17,-1
 291 717 l 1,18,-1
 206 631 l 1,19,-1
 191 643 l 1,20,-1
 266 741 l 1,17,-1
EndSplineSet
Validated: 5
EndChar

StartChar: acircumflex
Encoding: 226 226 142
Width: 487
VWidth: 950
GlyphClass: 2
Flags: W
LayerCount: 2
Fore
SplineSet
190 742 m 5,0,-1
 297 666 l 5,1,-1
 275 659 l 5,2,-1
 194 721 l 5,3,-1
 151 633 l 5,4,-1
 115 641 l 5,5,-1
 190 742 l 5,0,-1
2 -50 m 1,6,-1
 197 616 l 1,7,-1
 455 -41 l 1,8,-1
 347 -48 l 1,9,-1
 369 -19 l 1,10,-1
 191 451 l 1,11,-1
 134 228 l 1,12,-1
 288 239 l 1,13,-1
 299 189 l 1,14,-1
 124 179 l 1,15,-1
 63 -24 l 1,16,-1
 87 -50 l 1,17,-1
 3 -49 l 1,18,-1
 2 -50 l 1,6,-1
EndSplineSet
Validated: 5
EndChar

StartChar: atilde
Encoding: 227 227 143
Width: 505
VWidth: 950
GlyphClass: 2
Flags: W
LayerCount: 2
Fore
SplineSet
0 -50 m 1,0,-1
 206 618 l 5,1,-1
 480 -41 l 1,2,-1
 365 -48 l 1,3,-1
 388 -19 l 1,4,-1
 200 452 l 1,5,-1
 140 229 l 1,6,-1
 303 240 l 1,7,-1
 314 190 l 1,8,-1
 129 179 l 1,9,-1
 65 -24 l 1,10,-1
 90 -50 l 1,11,-1
 1 -49 l 1,12,-1
 0 -50 l 1,0,-1
88 636 m 5,13,14
 105 653 105 653 122 669 c 4,15,16
 135 681 135 681 151.5 692 c 132,-1,17
 168 703 168 703 182 707 c 4,18,19
 196 708 196 708 204.5 699 c 132,-1,20
 213 690 213 690 221 678 c 132,-1,21
 229 666 229 666 236 657.5 c 132,-1,22
 243 649 243 649 252 649 c 4,23,24
 259 649 259 649 263.5 660.5 c 132,-1,25
 268 672 268 672 271 688 c 4,26,27
 276 703 276 703 277 726 c 5,28,-1
 304 720 l 5,29,30
 296 692 296 692 288 672 c 4,31,32
 282 653 282 653 273.5 638.5 c 132,-1,33
 265 624 265 624 256 624 c 4,34,35
 240 623 240 623 232 631 c 132,-1,36
 224 639 224 639 218 650.5 c 132,-1,37
 212 662 212 662 205 673 c 132,-1,38
 198 684 198 684 185 684 c 4,39,40
 171 684 171 684 159.5 673 c 132,-1,41
 148 662 148 662 137 649 c 4,42,43
 124 636 124 636 113 616 c 5,44,-1
 88 636 l 5,13,14
EndSplineSet
Validated: 5
EndChar

StartChar: adieresis
Encoding: 228 228 144
Width: 505
VWidth: 950
GlyphClass: 2
Flags: W
LayerCount: 2
Fore
SplineSet
0 -50 m 1,0,-1
 206 618 l 1,1,-1
 480 -41 l 1,2,-1
 365 -48 l 1,3,-1
 388 -19 l 1,4,-1
 200 452 l 1,5,-1
 140 229 l 1,6,-1
 303 240 l 1,7,-1
 314 190 l 1,8,-1
 129 179 l 1,9,-1
 65 -24 l 1,10,-1
 90 -50 l 1,11,-1
 1 -49 l 1,12,-1
 0 -50 l 1,0,-1
183 669 m 0,13,14
 175 657 175 657 163 656.5 c 128,-1,15
 151 656 151 656 141 663 c 0,16,17
 132 671 132 671 130.5 683.5 c 128,-1,18
 129 696 129 696 136 707 c 0,19,20
 143 716 143 716 154.5 718 c 128,-1,21
 166 720 166 720 175 713 c 0,22,23
 185 704 185 704 186.5 691.5 c 128,-1,24
 188 679 188 679 183 669 c 0,13,14
249 694 m 0,25,26
 256 704 256 704 265.5 704.5 c 128,-1,27
 275 705 275 705 283 699 c 0,28,29
 291 691 291 691 292.5 680.5 c 128,-1,30
 294 670 294 670 289 660 c 0,31,32
 282 651 282 651 272.5 649.5 c 128,-1,33
 263 648 263 648 253 656 c 0,34,35
 246 662 246 662 244.5 673.5 c 128,-1,36
 243 685 243 685 249 694 c 0,25,26
EndSplineSet
Validated: 5
EndChar

StartChar: aring
Encoding: 229 229 145
Width: 505
VWidth: 950
GlyphClass: 2
Flags: W
LayerCount: 2
Fore
SplineSet
209 721 m 256,0,1
 217 721 217 721 226.5 719 c 128,-1,2
 236 717 236 717 245.5 711.5 c 128,-1,3
 255 706 255 706 261.5 696 c 128,-1,4
 268 686 268 686 269 669 c 0,5,6
 268 654 268 654 262.5 644 c 128,-1,7
 257 634 257 634 244 625 c 128,-1,8
 231 616 231 616 205.5 617 c 128,-1,9
 180 618 180 618 169 624.5 c 128,-1,10
 158 631 158 631 152 641.5 c 128,-1,11
 146 652 146 652 147 668 c 0,12,13
 148 685 148 685 155 695.5 c 128,-1,14
 162 706 162 706 171.5 711.5 c 128,-1,15
 181 717 181 717 191 719 c 128,-1,16
 201 721 201 721 209 721 c 256,0,1
207 628 m 256,17,18
 214 628 214 628 222 630 c 128,-1,19
 230 632 230 632 237.5 637.5 c 128,-1,20
 245 643 245 643 249 651 c 128,-1,21
 253 659 253 659 253 671 c 0,22,23
 252 683 252 683 247 689.5 c 128,-1,24
 242 696 242 696 235.5 700.5 c 128,-1,25
 229 705 229 705 222 706.5 c 128,-1,26
 215 708 215 708 212 708 c 0,27,28
 192 709 192 709 177.5 697 c 128,-1,29
 163 685 163 685 163 663 c 0,30,31
 163 654 163 654 167.5 647.5 c 128,-1,32
 172 641 172 641 178.5 636.5 c 128,-1,33
 185 632 185 632 192.5 630 c 128,-1,34
 200 628 200 628 207 628 c 256,17,18
0 -50 m 1,35,-1
 206 618 l 1,36,-1
 480 -41 l 1,37,-1
 365 -48 l 1,38,-1
 388 -19 l 1,39,-1
 200 452 l 1,40,-1
 140 229 l 1,41,-1
 303 240 l 1,42,-1
 314 190 l 1,43,-1
 129 179 l 1,44,-1
 65 -24 l 1,45,-1
 90 -50 l 1,46,-1
 1 -49 l 1,47,-1
 0 -50 l 1,35,-1
EndSplineSet
Validated: 37
EndChar

StartChar: ae
Encoding: 230 230 146
Width: 740
VWidth: 950
GlyphClass: 2
Flags: W
LayerCount: 2
Fore
SplineSet
277 651 m 1,0,-1
 692 642 l 1,1,2
 691 513 691 513 691 514 c 256,3,4
 691 515 691 515 678.5 527.5 c 128,-1,5
 666 540 666 540 650 555 c 128,-1,6
 634 570 634 570 620.5 582 c 128,-1,7
 607 594 607 594 603 595 c 0,8,9
 601 595 601 595 388 586 c 1,10,-1
 395 315 l 1,11,-1
 566 331 l 1,12,-1
 566 265 l 1,13,-1
 395 265 l 1,14,-1
 400 5 l 1,15,16
 588 10 588 10 590 11 c 0,17,18
 592 13 592 13 604 21.5 c 128,-1,19
 616 30 616 30 628 39 c 2,20,-1
 663 64 l 1,21,-1
 663 -49 l 1,22,-1
 320 -49 l 1,23,-1
 320 6 l 1,24,-1
 346 5 l 1,25,-1
 347 584 l 1,26,-1
 278 584 l 1,27,-1
 277 651 l 1,0,-1
-1 -49 m 1,28,-1
 325 615 l 1,29,-1
 368 587 l 1,30,-1
 365 -49 l 1,31,-1
 261 -49 l 1,32,-1
 289 -35 l 2,33,34
 299 -30 299 -30 308 -25 c 128,-1,35
 317 -20 317 -20 318 -18 c 2,36,37
 318 -18 318 -18 318.5 6.5 c 128,-1,38
 319 31 319 31 321 70 c 128,-1,39
 323 109 323 109 325 160 c 128,-1,40
 327 211 327 211 329.5 262.5 c 128,-1,41
 332 314 332 314 334 361.5 c 128,-1,42
 336 409 336 409 338 444.5 c 128,-1,43
 340 480 340 480 340.5 497 c 128,-1,44
 341 514 341 514 341 505 c 1,45,-1
 233 296 l 1,46,-1
 342 302 l 1,47,-1
 356 267 l 1,48,-1
 220 266 l 1,49,-1
 152 124 l 2,50,51
 139 98 139 98 126.5 72.5 c 128,-1,52
 114 47 114 47 105 26.5 c 128,-1,53
 96 6 96 6 90.5 -7 c 128,-1,54
 85 -20 85 -20 85 -20 c 2,55,56
 85 -23 85 -23 92.5 -27 c 128,-1,57
 100 -31 100 -31 111 -36 c 0,58,59
 123 -42 123 -42 138 -49 c 1,60,-1
 -1 -49 l 1,28,-1
EndSplineSet
Validated: 37
EndChar

StartChar: egrave
Encoding: 232 232 148
Width: 508
VWidth: 950
GlyphClass: 2
Flags: W
LayerCount: 2
Fore
SplineSet
0 615 m 1,0,-1
 462 608 l 1,1,-1
 461 496 l 1,2,3
 440 512 440 512 422 526.5 c 128,-1,4
 404 541 404 541 384 556 c 1,5,-1
 114 559 l 1,6,-1
 116 331 l 1,7,-1
 304 340 l 1,8,-1
 304 279 l 1,9,-1
 117 279 l 1,10,-1
 124 4 l 1,11,12
 348 8 348 8 349 9 c 0,13,14
 352 10 352 10 432 60 c 1,15,-1
 432 -48 l 1,16,-1
 24 -48 l 1,17,-1
 24 4 l 1,18,-1
 53 2 l 1,19,-1
 53 561 l 1,20,-1
 0 561 l 1,21,-1
 0 615 l 1,0,-1
260 644 m 1,22,-1
 245 632 l 1,23,-1
 159 718 l 1,24,-1
 185 742 l 1,25,-1
 260 644 l 1,22,-1
260 644 m 1,26,-1
 245 632 l 1,27,-1
 159 718 l 1,28,-1
 185 742 l 1,29,-1
 260 644 l 1,26,-1
EndSplineSet
Validated: 5
EndChar

StartChar: eacute
Encoding: 233 233 149
Width: 508
VWidth: 950
GlyphClass: 2
Flags: W
LayerCount: 2
Fore
SplineSet
0 615 m 1,0,-1
 462 608 l 1,1,-1
 461 496 l 1,2,3
 440 512 440 512 422 526.5 c 128,-1,4
 404 541 404 541 384 556 c 1,5,-1
 114 559 l 1,6,-1
 116 331 l 1,7,-1
 304 340 l 1,8,-1
 304 279 l 1,9,-1
 117 279 l 1,10,-1
 124 4 l 1,11,12
 348 8 348 8 349 9 c 0,13,14
 352 10 352 10 432 60 c 1,15,-1
 432 -48 l 1,16,-1
 24 -48 l 1,17,-1
 24 4 l 1,18,-1
 53 2 l 1,19,-1
 53 561 l 1,20,-1
 0 561 l 1,21,-1
 0 615 l 1,0,-1
276 741 m 1,22,-1
 301 717 l 1,23,-1
 216 631 l 1,24,-1
 201 643 l 1,25,-1
 276 741 l 1,22,-1
276 741 m 1,26,-1
 301 717 l 1,27,-1
 216 631 l 1,28,-1
 201 643 l 1,29,-1
 276 741 l 1,26,-1
EndSplineSet
Validated: 5
EndChar

StartChar: ecircumflex
Encoding: 234 234 150
Width: 508
VWidth: 950
GlyphClass: 2
Flags: W
LayerCount: 2
Fore
SplineSet
207 743 m 5,0,-1
 314 667 l 5,1,-1
 292 672 l 5,2,-1
 211 722 l 5,3,-1
 168 634 l 5,4,-1
 132 642 l 5,5,-1
 207 743 l 5,0,-1
0 615 m 1,6,-1
 462 608 l 1,7,-1
 461 496 l 1,8,9
 440 512 440 512 422 526.5 c 128,-1,10
 404 541 404 541 384 556 c 1,11,-1
 114 559 l 1,12,-1
 116 331 l 1,13,-1
 304 340 l 1,14,-1
 304 279 l 1,15,-1
 117 279 l 1,16,-1
 124 4 l 1,17,18
 348 8 348 8 349 9 c 0,19,20
 352 10 352 10 432 60 c 1,21,-1
 432 -48 l 1,22,-1
 24 -48 l 1,23,-1
 24 4 l 1,24,-1
 53 2 l 1,25,-1
 53 561 l 1,26,-1
 0 561 l 1,27,-1
 0 615 l 1,6,-1
EndSplineSet
Validated: 1
EndChar

StartChar: edieresis
Encoding: 235 235 151
Width: 508
VWidth: 950
GlyphClass: 2
Flags: W
LayerCount: 2
Fore
SplineSet
0 615 m 1,0,-1
 462 608 l 1,1,-1
 461 496 l 1,2,3
 440 512 440 512 422 526.5 c 128,-1,4
 404 541 404 541 384 556 c 1,5,-1
 114 559 l 1,6,-1
 116 331 l 1,7,-1
 304 340 l 1,8,-1
 304 279 l 1,9,-1
 117 279 l 1,10,-1
 124 4 l 1,11,12
 348 8 348 8 349 9 c 0,13,14
 352 10 352 10 432 60 c 1,15,-1
 432 -48 l 1,16,-1
 24 -48 l 1,17,-1
 24 4 l 1,18,-1
 53 2 l 1,19,-1
 53 561 l 1,20,-1
 0 561 l 1,21,-1
 0 615 l 1,0,-1
207 663 m 0,22,23
 199 651 199 651 187 650.5 c 128,-1,24
 175 650 175 650 165 657 c 0,25,26
 156 665 156 665 154.5 677.5 c 128,-1,27
 153 690 153 690 160 701 c 0,28,29
 167 710 167 710 178.5 712 c 128,-1,30
 190 714 190 714 199 707 c 0,31,32
 209 698 209 698 210.5 685.5 c 128,-1,33
 212 673 212 673 207 663 c 0,22,23
273 688 m 0,34,35
 280 698 280 698 289.5 698.5 c 128,-1,36
 299 699 299 699 307 693 c 0,37,38
 315 685 315 685 316.5 674.5 c 128,-1,39
 318 664 318 664 313 654 c 0,40,41
 306 645 306 645 296.5 643.5 c 128,-1,42
 287 642 287 642 277 650 c 0,43,44
 270 656 270 656 268.5 667.5 c 128,-1,45
 267 679 267 679 273 688 c 0,34,35
EndSplineSet
Validated: 1
EndChar

StartChar: icircumflex
Encoding: 238 238 154
Width: 208
VWidth: 950
GlyphClass: 2
Flags: W
LayerCount: 2
Fore
SplineSet
61 723 m 1,0,-1
 143 664 l 1,1,-1
 126 659 l 1,2,-1
 64 707 l 1,3,-1
 30 639 l 1,4,-1
 3 646 l 1,5,-1
 61 723 l 1,0,-1
0 625 m 1,6,-1
 134 625 l 1,7,8
 125 617 125 617 118 611 c 0,9,10
 114 605 114 605 108 599 c 128,-1,11
 102 593 102 593 101 589 c 0,12,13
 101 588 101 588 103 296.5 c 128,-1,14
 105 5 105 5 106 4 c 0,15,16
 108 1 108 1 165 -48 c 1,17,-1
 2 -50 l 1,18,19
 30 -24 30 -24 35 -14 c 0,20,21
 37 -10 37 -10 39 284 c 128,-1,22
 41 578 41 578 41 581 c 0,23,24
 38 586 38 586 32.5 593 c 128,-1,25
 27 600 27 600 0 625 c 1,6,-1
EndSplineSet
Validated: 1
EndChar

StartChar: eth
Encoding: 240 240 156
Width: 578
VWidth: 950
GlyphClass: 2
Flags: W
LayerCount: 2
Fore
SplineSet
2 637 m 1,0,1
 129 660 129 660 236 641 c 0,2,3
 281 633 281 633 327 615 c 128,-1,4
 373 597 373 597 412 564.5 c 128,-1,5
 451 532 451 532 481.5 483 c 128,-1,6
 512 434 512 434 526 365 c 0,7,8
 542 273 542 273 529.5 206.5 c 128,-1,9
 517 140 517 140 485.5 94 c 128,-1,10
 454 48 454 48 407.5 20 c 128,-1,11
 361 -8 361 -8 311 -23 c 0,12,13
 193 -59 193 -59 32 -42 c 1,14,-1
 31 15 l 1,15,16
 153 -5 153 -5 246 16 c 0,17,18
 286 25 286 25 323.5 45 c 128,-1,19
 361 65 361 65 389.5 99.5 c 128,-1,20
 418 134 418 134 434 185.5 c 128,-1,21
 450 237 450 237 447 311 c 0,22,23
 442 376 442 376 425.5 423.5 c 128,-1,24
 409 471 409 471 384.5 503.5 c 128,-1,25
 360 536 360 536 330.5 556 c 128,-1,26
 301 576 301 576 270 587 c 0,27,28
 199 613 199 613 112 602 c 1,29,-1
 137 -10 l 1,30,-1
 70 0 l 1,31,-1
 68 595 l 1,32,-1
 8 578 l 1,33,-1
 2 637 l 1,0,1
0 324 m 1,34,-1
 248 343 l 1,35,-1
 245 278 l 1,36,-1
 3 286 l 1,37,-1
 0 324 l 1,34,-1
EndSplineSet
Validated: 37
EndChar

StartChar: ocircumflex
Encoding: 244 244 160
Width: 630
VWidth: 950
GlyphClass: 2
Flags: W
LayerCount: 2
Fore
SplineSet
275 740 m 1,0,-1
 382 664 l 1,1,-1
 360 657 l 1,2,-1
 279 719 l 1,3,-1
 236 631 l 1,4,-1
 200 639 l 1,5,-1
 275 740 l 1,0,-1
296 618 m 0,6,7
 377 617 377 617 442 588 c 0,8,9
 471 577 471 577 498 557 c 128,-1,10
 525 537 525 537 547.5 506 c 128,-1,11
 570 475 570 475 584 431.5 c 128,-1,12
 598 388 598 388 601 332 c 0,13,14
 602 238 602 238 577 167.5 c 128,-1,15
 552 97 552 97 510 49 c 128,-1,16
 468 1 468 1 415 -23.5 c 128,-1,17
 362 -48 362 -48 306 -49 c 256,18,19
 250 -50 250 -50 195 -30 c 128,-1,20
 140 -10 140 -10 96.5 33.5 c 128,-1,21
 53 77 53 77 28 144.5 c 128,-1,22
 3 212 3 212 9 305 c 0,23,24
 13 393 13 393 39.5 450 c 128,-1,25
 66 507 66 507 101 541.5 c 128,-1,26
 136 576 136 576 183 596.5 c 128,-1,27
 230 617 230 617 296 618 c 0,6,7
517 278 m 0,28,29
 522 345 522 345 509.5 393.5 c 128,-1,30
 497 442 497 442 474.5 476.5 c 128,-1,31
 452 511 452 511 425.5 532.5 c 128,-1,32
 399 554 399 554 368 566 c 128,-1,33
 337 578 337 578 299 579 c 0,34,35
 294 579 294 579 278.5 578.5 c 128,-1,36
 263 578 263 578 242.5 573.5 c 128,-1,37
 222 569 222 569 200.5 558 c 128,-1,38
 179 547 179 547 156.5 526.5 c 128,-1,39
 134 506 134 506 117 466 c 128,-1,40
 100 426 100 426 93 368 c 0,41,42
 82 281 82 281 99 210 c 128,-1,43
 116 139 116 139 148.5 89 c 128,-1,44
 181 39 181 39 225 12.5 c 128,-1,45
 269 -14 269 -14 312 -12 c 0,46,47
 334 -12 334 -12 366 -4 c 128,-1,48
 398 4 398 4 428.5 32.5 c 128,-1,49
 459 61 459 61 484 119 c 128,-1,50
 509 177 509 177 517 278 c 0,28,29
EndSplineSet
Validated: 33
EndChar

StartChar: divide
Encoding: 247 247 163
Width: 394
VWidth: 950
GlyphClass: 2
Flags: W
LayerCount: 2
Fore
SplineSet
1 255 m 1,0,-1
 342 273 l 1,1,-1
 339 215 l 1,2,-1
 5 222 l 1,3,-1
 1 255 l 1,0,-1
189 167 m 0,4,5
 203 157 203 157 205.5 142 c 128,-1,6
 208 127 208 127 199 113 c 0,7,8
 190 100 190 100 174.5 97.5 c 128,-1,9
 159 95 159 95 146 104 c 0,10,11
 132 114 132 114 129.5 129 c 128,-1,12
 127 144 127 144 136 158 c 0,13,14
 145 171 145 171 160.5 173.5 c 128,-1,15
 176 176 176 176 189 167 c 0,4,5
155 322 m 256,16,17
 144 330 144 330 141.5 344 c 128,-1,18
 139 358 139 358 147 369 c 256,19,20
 155 380 155 380 168.5 382.5 c 128,-1,21
 182 385 182 385 193 377 c 0,22,23
 205 369 205 369 207.5 355.5 c 128,-1,24
 210 342 210 342 202 331 c 256,25,26
 194 320 194 320 180 317 c 128,-1,27
 166 314 166 314 155 322 c 256,16,17
EndSplineSet
Validated: 1
EndChar

StartChar: oslash
Encoding: 248 248 164
Width: 621
VWidth: 950
GlyphClass: 2
Flags: W
LayerCount: 2
Fore
SplineSet
515 557 m 1,0,1
 546 525 546 525 567.5 473.5 c 128,-1,2
 589 422 589 422 592 347 c 0,3,4
 592 249 592 249 567.5 176 c 128,-1,5
 543 103 543 103 502 53.5 c 128,-1,6
 461 4 461 4 408 -21.5 c 128,-1,7
 355 -47 355 -47 300 -48 c 0,8,9
 247 -49 247 -49 195.5 -30 c 128,-1,10
 144 -11 144 -11 101 29 c 1,11,-1
 59 -24 l 1,12,-1
 6 27 l 1,13,-1
 56 86 l 1,14,15
 29 129 29 129 15.5 187 c 128,-1,16
 2 245 2 245 6 319 c 0,17,18
 11 402 11 402 32.5 457.5 c 128,-1,19
 54 513 54 513 85 548.5 c 128,-1,20
 116 584 116 584 150.5 603 c 128,-1,21
 185 622 185 622 215 630 c 128,-1,22
 245 638 245 638 291 642 c 0,23,24
 298 642 298 642 317 641 c 128,-1,25
 336 640 336 640 363 635 c 128,-1,26
 390 630 390 630 421.5 618.5 c 128,-1,27
 453 607 453 607 482 585 c 1,28,-1
 541 655 l 1,29,-1
 577 637 l 1,30,-1
 515 557 l 1,0,1
89 384 m 0,31,32
 80 316 80 316 87.5 258.5 c 128,-1,33
 95 201 95 201 114 153 c 1,34,-1
 438 535 l 1,35,36
 417 558 417 558 394 572 c 128,-1,37
 371 586 371 586 350.5 594.5 c 128,-1,38
 330 603 330 603 315.5 606.5 c 128,-1,39
 301 610 301 610 297 610 c 0,40,41
 291 610 291 610 275.5 610.5 c 128,-1,42
 260 611 260 611 239 606 c 128,-1,43
 218 601 218 601 195 588.5 c 128,-1,44
 172 576 172 576 150.5 551.5 c 128,-1,45
 129 527 129 527 112 486 c 128,-1,46
 95 445 95 445 89 384 c 0,31,32
306 -11 m 0,47,48
 320 -10 320 -10 339 -6.5 c 128,-1,49
 358 -3 358 -3 379 7 c 128,-1,50
 400 17 400 17 421 36.5 c 128,-1,51
 442 56 442 56 460 89 c 128,-1,52
 478 122 478 122 491 171.5 c 128,-1,53
 504 221 504 221 509 291 c 0,54,55
 514 360 514 360 501.5 410 c 128,-1,56
 489 460 489 460 466 496 c 1,57,-1
 148 88 l 1,58,59
 181 40 181 40 222.5 13.5 c 128,-1,60
 264 -13 264 -13 306 -11 c 0,47,48
EndSplineSet
Validated: 33
EndChar

StartChar: ucircumflex
Encoding: 251 251 167
Width: 540
VWidth: 950
GlyphClass: 2
Flags: W
LayerCount: 2
Fore
SplineSet
240 760 m 1,0,-1
 347 684 l 1,1,-1
 325 677 l 1,2,-1
 244 739 l 1,3,-1
 201 651 l 1,4,-1
 165 659 l 1,5,-1
 240 760 l 1,0,-1
1 649 m 1,6,-1
 131 646 l 1,7,8
 121 632 121 632 112 620 c 0,9,10
 104 608 104 608 97.5 597 c 128,-1,11
 91 586 91 586 90 578 c 0,12,13
 90 516 90 516 91.5 452.5 c 128,-1,14
 93 389 93 389 99 328.5 c 128,-1,15
 105 268 105 268 117 212.5 c 128,-1,16
 129 157 129 157 149 114 c 128,-1,17
 169 71 169 71 202.5 43.5 c 128,-1,18
 236 16 236 16 281 9 c 0,19,20
 324 4 324 4 353 42 c 128,-1,21
 382 80 382 80 398 141.5 c 128,-1,22
 414 203 414 203 416.5 277 c 128,-1,23
 419 351 419 351 418 417 c 128,-1,24
 417 483 417 483 409.5 532 c 128,-1,25
 402 581 402 581 392 592 c 0,26,27
 391 594 391 594 384 600.5 c 128,-1,28
 377 607 377 607 369 614 c 2,29,-1
 349 632 l 1,30,-1
 419 632 l 1,31,-1
 488 633 l 1,32,33
 489 563 489 563 491.5 482.5 c 128,-1,34
 494 402 494 402 491.5 323 c 128,-1,35
 489 244 489 244 479.5 172 c 128,-1,36
 470 100 470 100 445.5 48 c 128,-1,37
 421 -4 421 -4 380 -30 c 128,-1,38
 339 -56 339 -56 276 -45 c 0,39,40
 202 -31 202 -31 155 14 c 128,-1,41
 108 59 108 59 79.5 120.5 c 128,-1,42
 51 182 51 182 38 254.5 c 128,-1,43
 25 327 25 327 20.5 395 c 128,-1,44
 16 463 16 463 16 521 c 128,-1,45
 16 579 16 579 13 611 c 1,46,-1
 6 634 l 2,47,48
 3 641 3 641 1 649 c 1,6,-1
EndSplineSet
Validated: 33
EndChar

StartChar: thorn
Encoding: 254 254 170
Width: 493
VWidth: 950
GlyphClass: 2
Flags: W
LayerCount: 2
Fore
SplineSet
461 359 m 0,0,1
 472 306 472 306 459.5 267.5 c 128,-1,2
 447 229 447 229 420.5 202 c 128,-1,3
 394 175 394 175 357.5 159 c 128,-1,4
 321 143 321 143 282 133 c 128,-1,5
 243 123 243 123 206 120 c 128,-1,6
 169 117 169 117 145 117 c 1,7,8
 149 69 149 69 151.5 39.5 c 128,-1,9
 154 10 154 10 155 8 c 0,10,11
 157 6 157 6 168.5 -1 c 128,-1,12
 180 -8 180 -8 194 -15 c 0,13,14
 210 -24 210 -24 229 -35 c 1,15,-1
 51 -48 l 1,16,17
 58 -41 58 -41 66 -35 c 0,18,19
 80 -21 80 -21 84 -11 c 0,20,21
 89 1 89 1 89.5 48.5 c 128,-1,22
 90 96 90 96 88 160 c 128,-1,23
 86 224 86 224 83.5 296.5 c 128,-1,24
 81 369 81 369 76.5 433 c 128,-1,25
 72 497 72 497 67.5 543.5 c 128,-1,26
 63 590 63 590 58 603 c 0,27,28
 56 608 56 608 47.5 615 c 128,-1,29
 39 622 39 622 28 630 c 0,30,31
 16 639 16 639 0 648 c 1,32,-1
 148 648 l 1,33,34
 139 640 139 640 132 634 c 0,35,36
 127 628 127 628 121 622 c 128,-1,37
 115 616 115 616 114 612 c 0,38,39
 114 611 114 611 114.5 590 c 128,-1,40
 115 569 115 569 118 535 c 1,41,42
 189 546 189 546 247.5 543 c 128,-1,43
 306 540 306 540 348.5 520 c 128,-1,44
 391 500 391 500 419.5 461 c 128,-1,45
 448 422 448 422 461 359 c 0,0,1
141 167 m 1,46,47
 161 166 161 166 188 165.5 c 128,-1,48
 215 165 215 165 243 169 c 128,-1,49
 271 173 271 173 299 183 c 128,-1,50
 327 193 327 193 348.5 212 c 128,-1,51
 370 231 370 231 382.5 261 c 128,-1,52
 395 291 395 291 394 334 c 0,53,54
 387 400 387 400 354.5 432 c 128,-1,55
 322 464 322 464 279.5 475.5 c 128,-1,56
 237 487 237 487 193 483.5 c 128,-1,57
 149 480 149 480 121 474 c 1,58,59
 123 441 123 441 125.5 401.5 c 128,-1,60
 128 362 128 362 130.5 322 c 128,-1,61
 133 282 133 282 136 242.5 c 128,-1,62
 139 203 139 203 141 167 c 1,46,47
EndSplineSet
Validated: 33
EndChar

StartChar: Aogonek
Encoding: 260 260 172
Width: 505
VWidth: 950
GlyphClass: 2
Flags: W
LayerCount: 2
Fore
SplineSet
396 -45 m 1,0,1
 383 -61 383 -61 383 -75 c 0,2,3
 382 -94 382 -94 388 -108.5 c 128,-1,4
 394 -123 394 -123 404.5 -130.5 c 128,-1,5
 415 -138 415 -138 425 -140 c 0,6,7
 440 -143 440 -143 448 -140 c 1,8,-1
 448 -184 l 2,9,10
 448 -185 448 -185 439.5 -185.5 c 128,-1,11
 431 -186 431 -186 415 -181.5 c 128,-1,12
 399 -177 399 -177 381 -161 c 0,13,14
 366 -145 366 -145 362 -124.5 c 128,-1,15
 358 -104 358 -104 360 -82 c 128,-1,16
 362 -60 362 -60 365 -48 c 1,17,-1
 396 -45 l 1,0,1
0 -50 m 1,18,-1
 206 618 l 1,19,-1
 480 -41 l 1,20,-1
 365 -48 l 1,21,-1
 388 -19 l 1,22,-1
 200 452 l 1,23,-1
 140 229 l 1,24,-1
 303 240 l 1,25,-1
 314 190 l 1,26,-1
 129 179 l 1,27,-1
 65 -24 l 1,28,-1
 90 -50 l 1,29,-1
 1 -49 l 1,30,-1
 0 -50 l 1,18,-1
EndSplineSet
Validated: 37
EndChar

StartChar: aogonek
Encoding: 261 261 173
Width: 505
VWidth: 950
GlyphClass: 2
Flags: W
LayerCount: 2
Fore
SplineSet
396 -45 m 5,0,1
 383 -61 383 -61 383 -75 c 4,2,3
 382 -94 382 -94 388 -108.5 c 132,-1,4
 394 -123 394 -123 404.5 -130.5 c 132,-1,5
 415 -138 415 -138 425 -140 c 4,6,7
 440 -143 440 -143 448 -140 c 5,8,-1
 448 -184 l 6,9,10
 448 -185 448 -185 439.5 -185.5 c 132,-1,11
 431 -186 431 -186 415 -181.5 c 132,-1,12
 399 -177 399 -177 381 -161 c 4,13,14
 366 -145 366 -145 362 -124.5 c 132,-1,15
 358 -104 358 -104 360 -82 c 132,-1,16
 362 -60 362 -60 365 -48 c 5,17,-1
 396 -45 l 5,0,1
0 -50 m 1,18,-1
 206 618 l 1,19,-1
 480 -41 l 1,20,-1
 365 -48 l 5,21,-1
 388 -19 l 1,22,-1
 200 452 l 1,23,-1
 140 229 l 1,24,-1
 303 240 l 1,25,-1
 314 190 l 1,26,-1
 129 179 l 1,27,-1
 65 -24 l 1,28,-1
 90 -50 l 1,29,-1
 1 -49 l 1,30,-1
 0 -50 l 1,18,-1
EndSplineSet
Validated: 37
EndChar

StartChar: Cacute
Encoding: 262 262 174
Width: 520
VWidth: 950
GlyphClass: 2
Flags: W
LayerCount: 2
Fore
SplineSet
473 638 m 1,0,-1
 440 558 l 1,1,2
 338 584 338 584 259 567 c 0,3,4
 225 559 225 559 193.5 541.5 c 128,-1,5
 162 524 162 524 138.5 491.5 c 128,-1,6
 115 459 115 459 102 409 c 128,-1,7
 89 359 89 359 93 287 c 0,8,9
 96 210 96 210 111.5 159 c 128,-1,10
 127 108 127 108 149.5 76.5 c 128,-1,11
 172 45 172 45 200.5 29.5 c 128,-1,12
 229 14 229 14 258 10 c 0,13,14
 326 0 326 0 410 38 c 1,15,-1
 444 -39 l 1,16,17
 318 -59 318 -59 221 -31 c 0,18,19
 179 -20 179 -20 140.5 4 c 128,-1,20
 102 28 102 28 72 67 c 128,-1,21
 42 106 42 106 24.5 165 c 128,-1,22
 7 224 7 224 10 306 c 0,23,24
 14 390 14 390 52 456.5 c 128,-1,25
 90 523 90 523 153 567.5 c 128,-1,26
 216 612 216 612 299 630.5 c 128,-1,27
 382 649 382 649 473 638 c 1,0,-1
309 753 m 1,28,-1
 334 729 l 1,29,-1
 249 643 l 1,30,-1
 234 655 l 1,31,-1
 309 753 l 1,28,-1
309 753 m 1,32,-1
 334 729 l 1,33,-1
 249 643 l 1,34,-1
 234 655 l 1,35,-1
 309 753 l 1,32,-1
EndSplineSet
Validated: 37
EndChar

StartChar: cacute
Encoding: 263 263 175
Width: 520
VWidth: 950
GlyphClass: 2
Flags: W
LayerCount: 2
Fore
SplineSet
473 638 m 1,0,-1
 440 558 l 1,1,2
 338 584 338 584 259 567 c 0,3,4
 225 559 225 559 193.5 541.5 c 128,-1,5
 162 524 162 524 138.5 491.5 c 128,-1,6
 115 459 115 459 102 409 c 128,-1,7
 89 359 89 359 93 287 c 0,8,9
 96 210 96 210 111.5 159 c 128,-1,10
 127 108 127 108 149.5 76.5 c 128,-1,11
 172 45 172 45 200.5 29.5 c 128,-1,12
 229 14 229 14 258 10 c 0,13,14
 326 0 326 0 410 38 c 1,15,-1
 444 -39 l 1,16,17
 318 -59 318 -59 221 -31 c 0,18,19
 179 -20 179 -20 140.5 4 c 128,-1,20
 102 28 102 28 72 67 c 128,-1,21
 42 106 42 106 24.5 165 c 128,-1,22
 7 224 7 224 10 306 c 0,23,24
 14 390 14 390 52 456.5 c 128,-1,25
 90 523 90 523 153 567.5 c 128,-1,26
 216 612 216 612 299 630.5 c 128,-1,27
 382 649 382 649 473 638 c 1,0,-1
309 753 m 1,28,-1
 334 729 l 1,29,-1
 249 643 l 1,30,-1
 234 655 l 1,31,-1
 309 753 l 1,28,-1
309 753 m 1,32,-1
 334 729 l 1,33,-1
 249 643 l 1,34,-1
 234 655 l 1,35,-1
 309 753 l 1,32,-1
EndSplineSet
Validated: 37
EndChar

StartChar: Eogonek
Encoding: 280 280 176
Width: 508
VWidth: 950
GlyphClass: 2
Flags: W
LayerCount: 2
Fore
SplineSet
396 -48 m 1,0,1
 383 -64 383 -64 383 -75 c 0,2,3
 382 -94 382 -94 388 -108.5 c 128,-1,4
 394 -123 394 -123 404.5 -130.5 c 128,-1,5
 415 -138 415 -138 425 -140 c 0,6,7
 440 -143 440 -143 448 -140 c 1,8,-1
 448 -184 l 2,9,10
 448 -185 448 -185 439.5 -185.5 c 128,-1,11
 431 -186 431 -186 415 -181.5 c 128,-1,12
 399 -177 399 -177 381 -161 c 0,13,14
 366 -145 366 -145 362 -124.5 c 128,-1,15
 358 -104 358 -104 360 -82 c 128,-1,16
 362 -60 362 -60 365 -48 c 1,17,-1
 396 -48 l 1,0,1
365 -48 m 1024,18,-1
0 615 m 1,19,-1
 462 608 l 1,20,-1
 461 496 l 1,21,22
 440 512 440 512 422 526.5 c 128,-1,23
 404 541 404 541 384 556 c 1,24,-1
 114 559 l 1,25,-1
 116 331 l 1,26,-1
 304 340 l 1,27,-1
 304 279 l 1,28,-1
 117 279 l 1,29,-1
 124 4 l 1,30,31
 348 8 348 8 349 9 c 0,32,33
 352 10 352 10 432 60 c 1,34,-1
 432 -48 l 1,35,-1
 24 -48 l 1,36,-1
 24 4 l 1,37,-1
 53 2 l 1,38,-1
 53 561 l 1,39,-1
 0 561 l 1,40,-1
 0 615 l 1,19,-1
EndSplineSet
Validated: 37
EndChar

StartChar: eogonek
Encoding: 281 281 177
Width: 508
VWidth: 950
GlyphClass: 2
Flags: W
LayerCount: 2
Fore
SplineSet
396 -48 m 1,0,1
 383 -64 383 -64 383 -75 c 0,2,3
 382 -94 382 -94 388 -108.5 c 128,-1,4
 394 -123 394 -123 404.5 -130.5 c 128,-1,5
 415 -138 415 -138 425 -140 c 0,6,7
 440 -143 440 -143 448 -140 c 1,8,-1
 448 -184 l 2,9,10
 448 -185 448 -185 439.5 -185.5 c 128,-1,11
 431 -186 431 -186 415 -181.5 c 128,-1,12
 399 -177 399 -177 381 -161 c 0,13,14
 366 -145 366 -145 362 -124.5 c 128,-1,15
 358 -104 358 -104 360 -82 c 128,-1,16
 362 -60 362 -60 365 -48 c 1,17,-1
 396 -48 l 1,0,1
365 -48 m 1024,18,-1
0 615 m 1,19,-1
 462 608 l 1,20,-1
 461 496 l 1,21,22
 440 512 440 512 422 526.5 c 128,-1,23
 404 541 404 541 384 556 c 1,24,-1
 114 559 l 1,25,-1
 116 331 l 1,26,-1
 304 340 l 1,27,-1
 304 279 l 1,28,-1
 117 279 l 1,29,-1
 124 4 l 1,30,31
 348 8 348 8 349 9 c 0,32,33
 352 10 352 10 432 60 c 1,34,-1
 432 -48 l 1,35,-1
 24 -48 l 1,36,-1
 24 4 l 1,37,-1
 53 2 l 1,38,-1
 53 561 l 1,39,-1
 0 561 l 1,40,-1
 0 615 l 1,19,-1
EndSplineSet
Validated: 37
EndChar

StartChar: Lslash
Encoding: 321 321 178
Width: 487
VWidth: 950
GlyphClass: 2
Flags: W
LayerCount: 2
Fore
SplineSet
-70 165 m 1,0,-1
 -112 209 l 1,1,-1
 274 449 l 1,2,-1
 278 408 l 1,3,-1
 -70 165 l 1,0,-1
1 650 m 1,4,-1
 153 650 l 1,5,6
 116 626 116 626 109.5 618.5 c 128,-1,7
 103 611 103 611 102 609 c 0,8,9
 101 608 101 608 100 580.5 c 128,-1,10
 99 553 99 553 98 5 c 1,11,12
 396 12 396 12 399 15 c 0,13,14
 404 16 404 16 449 73 c 1,15,-1
 448 -49 l 1,16,-1
 33 -51 l 1,17,-1
 29 625 l 1,18,19
 16 636 16 636 1 650 c 1,4,-1
EndSplineSet
Validated: 5
EndChar

StartChar: lslash
Encoding: 322 322 179
Width: 487
VWidth: 950
GlyphClass: 2
Flags: W
LayerCount: 2
Fore
SplineSet
-70 165 m 1,0,-1
 -112 209 l 1,1,-1
 274 449 l 1,2,-1
 278 408 l 1,3,-1
 -70 165 l 1,0,-1
1 650 m 1,4,-1
 153 650 l 1,5,6
 116 626 116 626 109.5 618.5 c 128,-1,7
 103 611 103 611 102 609 c 0,8,9
 101 608 101 608 100 580.5 c 128,-1,10
 99 553 99 553 98 5 c 1,11,12
 396 12 396 12 399 15 c 0,13,14
 404 16 404 16 449 73 c 1,15,-1
 448 -49 l 1,16,-1
 33 -51 l 1,17,-1
 29 625 l 1,18,19
 16 636 16 636 1 650 c 1,4,-1
EndSplineSet
Validated: 5
EndChar

StartChar: Nacute
Encoding: 323 323 180
Width: 521
VWidth: 950
GlyphClass: 2
Flags: W
LayerCount: 2
Fore
SplineSet
0 615 m 1024,0,-1
265 747 m 1,1,-1
 290 723 l 1,2,-1
 205 637 l 1,3,-1
 190 649 l 1,4,-1
 265 747 l 1,1,-1
265 747 m 1,5,-1
 290 723 l 1,6,-1
 205 637 l 1,7,-1
 190 649 l 1,8,-1
 265 747 l 1,5,-1
4 610 m 1,9,-1
 78 613 l 1,10,-1
 421 149 l 1,11,12
 415 607 415 607 414 610 c 0,13,14
 411 613 411 613 404 620 c 128,-1,15
 397 627 397 627 389 634 c 2,16,-1
 368 648 l 1,17,-1
 469 649 l 1,18,-1
 475 -48 l 1,19,-1
 61 503 l 1,20,21
 80 -2 80 -2 81 -7 c 0,22,23
 84 -12 84 -12 92 -20 c 128,-1,24
 100 -28 100 -28 109 -34 c 0,25,26
 120 -42 120 -42 133 -49 c 1,27,-1
 -2 -49 l 1,28,-1
 26 -17 l 1,29,-1
 4 610 l 1,9,-1
EndSplineSet
Validated: 5
EndChar

StartChar: nacute
Encoding: 324 324 181
Width: 521
VWidth: 950
GlyphClass: 2
Flags: W
LayerCount: 2
Fore
SplineSet
0 615 m 1024,0,-1
265 747 m 5,1,-1
 290 723 l 5,2,-1
 205 637 l 5,3,-1
 190 649 l 5,4,-1
 265 747 l 5,1,-1
265 747 m 5,5,-1
 290 723 l 5,6,-1
 205 637 l 5,7,-1
 190 649 l 5,8,-1
 265 747 l 5,5,-1
4 610 m 1,9,-1
 78 613 l 1,10,-1
 421 149 l 1,11,12
 415 607 415 607 414 610 c 0,13,14
 411 613 411 613 404 620 c 128,-1,15
 397 627 397 627 389 634 c 2,16,-1
 368 648 l 1,17,-1
 469 649 l 1,18,-1
 475 -48 l 1,19,-1
 61 503 l 1,20,21
 80 -2 80 -2 81 -7 c 0,22,23
 84 -12 84 -12 92 -20 c 128,-1,24
 100 -28 100 -28 109 -34 c 0,25,26
 120 -42 120 -42 133 -49 c 1,27,-1
 -2 -49 l 1,28,-1
 26 -17 l 1,29,-1
 4 610 l 1,9,-1
EndSplineSet
Validated: 5
EndChar

StartChar: OE
Encoding: 338 338 182
Width: 685
VWidth: 950
GlyphClass: 2
Flags: W
LayerCount: 2
Fore
SplineSet
648 645 m 1,0,1
 647 514 647 514 647 516 c 256,2,3
 647 518 647 518 636.5 530 c 128,-1,4
 626 542 626 542 612 556 c 128,-1,5
 598 570 598 570 586 582 c 128,-1,6
 574 594 574 594 570 595 c 0,7,8
 568 595 568 595 362 588 c 1,9,-1
 369 352 l 1,10,-1
 543 361 l 1,11,-1
 543 296 l 1,12,-1
 370 296 l 1,13,-1
 376 5 l 1,14,15
 544 10 544 10 545 11 c 0,16,17
 547 12 547 12 614 64 c 1,18,-1
 614 -50 l 1,19,-1
 280 -50 l 1,20,21
 191 -43 191 -43 137.5 -4 c 128,-1,22
 84 35 84 35 54 87 c 128,-1,23
 24 139 24 139 13.5 195.5 c 128,-1,24
 3 252 3 252 2 294 c 0,25,26
 1 322 1 322 4.5 358.5 c 128,-1,27
 8 395 8 395 20 433.5 c 128,-1,28
 32 472 32 472 53 509 c 128,-1,29
 74 546 74 546 109 576.5 c 128,-1,30
 144 607 144 607 194 626.5 c 128,-1,31
 244 646 244 646 313 648 c 2,32,-1
 648 645 l 1,0,1
77 323 m 0,33,34
 77 265 77 265 88 206.5 c 128,-1,35
 99 148 99 148 126 102 c 128,-1,36
 153 56 153 56 195.5 28.5 c 128,-1,37
 238 1 238 1 307 5 c 1,38,-1
 306 588 l 1,39,40
 248 588 248 588 208 570.5 c 128,-1,41
 168 553 168 553 144.5 526.5 c 128,-1,42
 121 500 121 500 106.5 468 c 128,-1,43
 92 436 92 436 85.5 407 c 128,-1,44
 79 378 79 378 78 355 c 128,-1,45
 77 332 77 332 77 323 c 0,33,34
EndSplineSet
Validated: 33
EndChar

StartChar: oe
Encoding: 339 339 183
Width: 685
VWidth: 950
GlyphClass: 2
Flags: W
LayerCount: 2
Fore
SplineSet
648 645 m 1,0,1
 647 514 647 514 647 516 c 256,2,3
 647 518 647 518 636.5 530 c 128,-1,4
 626 542 626 542 612 556 c 128,-1,5
 598 570 598 570 586 582 c 128,-1,6
 574 594 574 594 570 595 c 0,7,8
 568 595 568 595 362 588 c 1,9,-1
 369 352 l 1,10,-1
 543 361 l 1,11,-1
 543 296 l 1,12,-1
 370 296 l 1,13,-1
 376 5 l 1,14,15
 544 10 544 10 545 11 c 0,16,17
 547 12 547 12 614 64 c 1,18,-1
 614 -50 l 1,19,-1
 280 -50 l 1,20,21
 191 -43 191 -43 137.5 -4 c 128,-1,22
 84 35 84 35 54 87 c 128,-1,23
 24 139 24 139 13.5 195.5 c 128,-1,24
 3 252 3 252 2 294 c 0,25,26
 1 322 1 322 4.5 358.5 c 128,-1,27
 8 395 8 395 20 433.5 c 128,-1,28
 32 472 32 472 53 509 c 128,-1,29
 74 546 74 546 109 576.5 c 128,-1,30
 144 607 144 607 194 626.5 c 128,-1,31
 244 646 244 646 313 648 c 2,32,-1
 648 645 l 1,0,1
77 323 m 0,33,34
 77 265 77 265 88 206.5 c 128,-1,35
 99 148 99 148 126 102 c 128,-1,36
 153 56 153 56 195.5 28.5 c 128,-1,37
 238 1 238 1 307 5 c 1,38,-1
 306 588 l 1,39,40
 248 588 248 588 208 570.5 c 128,-1,41
 168 553 168 553 144.5 526.5 c 128,-1,42
 121 500 121 500 106.5 468 c 128,-1,43
 92 436 92 436 85.5 407 c 128,-1,44
 79 378 79 378 78 355 c 128,-1,45
 77 332 77 332 77 323 c 0,33,34
EndSplineSet
Validated: 33
EndChar

StartChar: Zacute
Encoding: 377 377 189
Width: 511
VWidth: 950
GlyphClass: 2
Flags: W
LayerCount: 2
Fore
SplineSet
449 644 m 1,0,-1
 102 32 l 1,1,2
 408 26 408 26 410 27 c 0,3,4
 436 47 436 47 448 57 c 0,5,6
 461 69 461 69 474 84 c 1,7,-1
 475 -46 l 1,8,-1
 1 -31 l 1,9,-1
 353 580 l 1,10,-1
 100 564 l 1,11,12
 81 553 81 553 68 535 c 1,13,14
 50 518 50 518 32 497 c 1,15,-1
 29 626 l 1,16,-1
 449 644 l 1,0,-1
274 769 m 1,17,-1
 299 745 l 1,18,-1
 214 659 l 1,19,-1
 199 671 l 1,20,-1
 274 769 l 1,17,-1
274 769 m 1,21,-1
 299 745 l 1,22,-1
 214 659 l 1,23,-1
 199 671 l 1,24,-1
 274 769 l 1,21,-1
EndSplineSet
Validated: 37
EndChar

StartChar: Zdotaccent
Encoding: 379 379 191
Width: 511
VWidth: 950
GlyphClass: 2
Flags: W
LayerCount: 2
Fore
SplineSet
226 678 m 0,0,1
 213 687 213 687 209 701.5 c 128,-1,2
 205 716 205 716 213 729 c 0,3,4
 223 741 223 741 238 742 c 128,-1,5
 253 743 253 743 267 733 c 0,6,7
 280 724 280 724 284 709 c 128,-1,8
 288 694 288 694 279 682 c 256,9,10
 270 670 270 670 255.5 669 c 128,-1,11
 241 668 241 668 226 678 c 0,0,1
449 644 m 1,12,-1
 102 32 l 1,13,14
 408 26 408 26 410 27 c 0,15,16
 436 47 436 47 448 57 c 0,17,18
 461 69 461 69 474 84 c 1,19,-1
 475 -46 l 1,20,-1
 1 -31 l 1,21,-1
 353 580 l 1,22,-1
 100 564 l 1,23,24
 81 553 81 553 68 535 c 1,25,26
 50 518 50 518 32 497 c 1,27,-1
 29 626 l 1,28,-1
 449 644 l 1,12,-1
EndSplineSet
Validated: 33
EndChar

StartChar: zdotaccent
Encoding: 380 380 192
Width: 511
VWidth: 950
GlyphClass: 2
Flags: W
LayerCount: 2
Fore
SplineSet
226 678 m 4,0,1
 213 687 213 687 209 701.5 c 132,-1,2
 205 716 205 716 213 729 c 4,3,4
 223 741 223 741 238 742 c 132,-1,5
 253 743 253 743 267 733 c 4,6,7
 280 724 280 724 284 709 c 132,-1,8
 288 694 288 694 279 682 c 260,9,10
 270 670 270 670 255.5 669 c 132,-1,11
 241 668 241 668 226 678 c 4,0,1
449 644 m 1,12,-1
 102 32 l 1,13,14
 408 26 408 26 410 27 c 0,15,16
 436 47 436 47 448 57 c 0,17,18
 461 69 461 69 474 84 c 1,19,-1
 475 -46 l 1,20,-1
 1 -31 l 1,21,-1
 353 580 l 1,22,-1
 100 564 l 1,23,24
 81 553 81 553 68 535 c 1,25,26
 50 518 50 518 32 497 c 1,27,-1
 29 626 l 1,28,-1
 449 644 l 1,12,-1
EndSplineSet
Validated: 33
EndChar

StartChar: circumflex
Encoding: 710 710 195
Width: 215
VWidth: 950
GlyphClass: 2
Flags: W
LayerCount: 2
Fore
SplineSet
1 500 m 1,0,-1
 80 675 l 1,1,-1
 195 543 l 1,2,-1
 173 531 l 1,3,-1
 86 637 l 1,4,-1
 41 486 l 1,5,-1
 1 500 l 1,6,-1
 1 500 l 1,0,-1
EndSplineSet
Validated: 5
EndChar

StartChar: caron
Encoding: 711 711 196
Width: 200
VWidth: 950
GlyphClass: 2
Flags: W
LayerCount: 2
Fore
SplineSet
0 489 m 1,0,-1
 30 498 l 1,1,-1
 64 409 l 1,2,-1
 132 472 l 1,3,-1
 149 464 l 1,4,-1
 60 387 l 1,5,-1
 0 489 l 1,0,-1
EndSplineSet
Validated: 1
EndChar

StartChar: breve
Encoding: 728 728 197
Width: 165
VWidth: 950
GlyphClass: 2
Flags: W
LayerCount: 2
Fore
SplineSet
115 642 m 1,0,1
 107 629 107 629 98 618 c 0,2,3
 90 609 90 609 79.5 601.5 c 128,-1,4
 69 594 69 594 55 594 c 0,5,6
 38 594 38 594 27.5 601.5 c 128,-1,7
 17 609 17 609 11 618 c 0,8,9
 4 629 4 629 0 642 c 1,10,-1
 16 644 l 1,11,12
 19 635 19 635 24 627 c 0,13,14
 29 620 29 620 35.5 613.5 c 128,-1,15
 42 607 42 607 53 605 c 0,16,17
 63 603 63 603 71.5 609.5 c 128,-1,18
 80 616 80 616 85 624 c 0,19,20
 91 633 91 633 96 645 c 1,21,-1
 115 642 l 1,22,-1
 115 642 l 1,0,1
EndSplineSet
Validated: 5
EndChar

StartChar: tilde
Encoding: 732 732 199
Width: 200
VWidth: 950
GlyphClass: 2
Flags: W
LayerCount: 2
Fore
SplineSet
0 463 m 1,0,1
 11 475 11 475 22 486 c 0,2,3
 30 494 30 494 40.5 501.5 c 128,-1,4
 51 509 51 509 60 512 c 0,5,6
 69 513 69 513 74.5 506.5 c 128,-1,7
 80 500 80 500 85 492 c 128,-1,8
 90 484 90 484 94.5 478 c 128,-1,9
 99 472 99 472 105 472 c 0,10,11
 109 472 109 472 112 480 c 128,-1,12
 115 488 115 488 117 499 c 0,13,14
 120 509 120 509 121 525 c 1,15,-1
 138 521 l 1,16,17
 133 502 133 502 128 488 c 0,18,19
 124 475 124 475 118.5 465 c 128,-1,20
 113 455 113 455 107 455 c 0,21,22
 97 454 97 454 92 459.5 c 128,-1,23
 87 465 87 465 83 473 c 128,-1,24
 79 481 79 481 74.5 488.5 c 128,-1,25
 70 496 70 496 62 496 c 0,26,27
 53 496 53 496 45.5 488.5 c 128,-1,28
 38 481 38 481 31 472 c 0,29,30
 23 463 23 463 16 449 c 1,31,-1
 0 463 l 1,0,1
EndSplineSet
Validated: 1
EndChar

StartChar: afii10023
Encoding: 1025 1025 200
Width: 498
VWidth: 950
GlyphClass: 2
Flags: W
LayerCount: 2
Fore
SplineSet
0 650 m 1,0,-1
 463 643 l 1,1,-1
 462 525 l 1,2,3
 441 542 441 542 423 557 c 128,-1,4
 405 572 405 572 385 588 c 1,5,-1
 114 591 l 1,6,-1
 116 351 l 1,7,-1
 305 360 l 1,8,-1
 305 296 l 1,9,-1
 117 296 l 1,10,-1
 124 7 l 1,11,12
 349 11 349 11 350 12 c 0,13,14
 353 13 353 13 433 66 c 1,15,-1
 433 -48 l 1,16,-1
 24 -48 l 1,17,-1
 24 7 l 1,18,-1
 53 5 l 1,19,-1
 53 593 l 1,20,-1
 0 593 l 1,21,-1
 0 650 l 1,0,-1
203 711 m 0,22,23
 195 700 195 700 182.5 699 c 128,-1,24
 170 698 170 698 161 705 c 0,25,26
 151 713 151 713 149.5 725.5 c 128,-1,27
 148 738 148 738 156 749 c 0,28,29
 163 758 163 758 174.5 760 c 128,-1,30
 186 762 186 762 195 755 c 0,31,32
 205 746 205 746 206.5 733.5 c 128,-1,33
 208 721 208 721 203 711 c 0,22,23
269 736 m 0,34,35
 275 746 275 746 284.5 746.5 c 128,-1,36
 294 747 294 747 303 742 c 0,37,38
 311 733 311 733 312 722.5 c 128,-1,39
 313 712 313 712 309 702 c 0,40,41
 302 693 302 693 292.5 691.5 c 128,-1,42
 283 690 283 690 272 698 c 0,43,44
 266 704 266 704 264.5 715.5 c 128,-1,45
 263 727 263 727 269 736 c 0,34,35
EndSplineSet
Validated: 1
EndChar

StartChar: afii10017
Encoding: 1040 1040 201
Width: 496
VWidth: 950
GlyphClass: 2
Flags: W
LayerCount: 2
Fore
SplineSet
0 -50 m 1,0,-1
 206 655 l 1,1,-1
 480 -40 l 1,2,-1
 365 -48 l 1,3,-1
 388 -17 l 1,4,-1
 200 480 l 1,5,-1
 140 244 l 1,6,-1
 303 256 l 1,7,-1
 314 203 l 1,8,-1
 129 192 l 1,9,-1
 65 -23 l 1,10,-1
 90 -50 l 1,11,-1
 1 -49 l 1,12,-1
 0 -50 l 1,0,-1
EndSplineSet
Validated: 5
EndChar

StartChar: afii10018
Encoding: 1041 1041 202
Width: 493
VWidth: 950
GlyphClass: 2
Flags: W
LayerCount: 2
Fore
SplineSet
190 349 m 0,0,1
 264 346 264 346 325 327 c 0,2,3
 351 317 351 317 375.5 301.5 c 128,-1,4
 400 286 400 286 421 257 c 128,-1,5
 442 228 442 228 451 200.5 c 128,-1,6
 460 173 460 173 459 139 c 0,7,8
 458 94 458 94 438 61.5 c 128,-1,9
 418 29 418 29 385.5 7 c 128,-1,10
 353 -15 353 -15 310.5 -27.5 c 128,-1,11
 268 -40 268 -40 220 -45 c 128,-1,12
 172 -50 172 -50 123 -49 c 128,-1,13
 74 -48 74 -48 27 -43 c 1,14,15
 27 -24 27 -24 26.5 -14 c 128,-1,16
 26 -4 26 -4 26 1 c 0,17,18
 26 7 26 7 26 9 c 0,19,20
 26 10 26 10 26 12 c 1,21,22
 77 1 77 1 116 -1.5 c 128,-1,23
 155 -4 155 -4 201.5 -1 c 128,-1,24
 248 2 248 2 287.5 17 c 128,-1,25
 327 32 327 32 355 64.5 c 128,-1,26
 383 97 383 97 386 154 c 0,27,28
 386 195 386 195 367 221 c 128,-1,29
 348 247 348 247 317.5 263 c 128,-1,30
 287 279 287 279 250 284 c 128,-1,31
 213 289 213 289 182 290 c 128,-1,32
 151 291 151 291 130 289.5 c 128,-1,33
 109 288 109 288 109 288 c 1,34,35
 109 289 109 289 109 298 c 0,36,37
 109 308 109 308 110 319 c 0,38,39
 110 332 110 332 109 350 c 1,40,41
 125 352 125 352 190 349 c 0,0,1
437 516 m 1,42,-1
 395 581 l 1,43,-1
 379 593 l 1,44,45
 115 594 115 594 109 594 c 1,46,-1
 131 -26 l 1,47,-1
 57 -22 l 1,48,49
 60 592 60 592 60 592 c 1,50,51
 59 592 59 592 50 592 c 256,52,53
 41 592 41 592 29 591 c 2,54,-1
 0 589 l 1,55,-1
 1 649 l 1,56,57
 23 649 23 649 62 649 c 0,58,59
 88 650 88 650 443 645 c 1,60,-1
 437 516 l 1,42,-1
EndSplineSet
Validated: 37
EndChar

StartChar: afii10019
Encoding: 1042 1042 203
Width: 493
VWidth: 950
GlyphClass: 2
Flags: W
LayerCount: 2
Fore
SplineSet
1 649 m 1,0,1
 23 649 23 649 57.5 649.5 c 128,-1,2
 92 650 92 650 130 648.5 c 128,-1,3
 168 647 168 647 207.5 639.5 c 128,-1,4
 247 632 247 632 278.5 617.5 c 128,-1,5
 310 603 310 603 330.5 577.5 c 128,-1,6
 351 552 351 552 353 513 c 0,7,8
 355 464 355 464 329.5 428.5 c 128,-1,9
 304 393 304 393 272 371 c 0,10,11
 234 347 234 347 197 338 c 1,12,13
 264 346 264 346 325 327 c 0,14,15
 351 317 351 317 375.5 301.5 c 128,-1,16
 400 286 400 286 421 257 c 128,-1,17
 442 228 442 228 451 200.5 c 128,-1,18
 460 173 460 173 459 139 c 0,19,20
 458 94 458 94 438 61.5 c 128,-1,21
 418 29 418 29 385.5 7 c 128,-1,22
 353 -15 353 -15 310.5 -27.5 c 128,-1,23
 268 -40 268 -40 220 -45 c 128,-1,24
 172 -50 172 -50 123 -49 c 128,-1,25
 74 -48 74 -48 27 -43 c 1,26,27
 27 -24 27 -24 26.5 -14 c 128,-1,28
 26 -4 26 -4 26 1.5 c 128,-1,29
 26 7 26 7 26 8.5 c 128,-1,30
 26 10 26 10 26 12 c 1,31,32
 77 1 77 1 116 -1.5 c 128,-1,33
 155 -4 155 -4 201.5 -1 c 128,-1,34
 248 2 248 2 287.5 17 c 128,-1,35
 327 32 327 32 355 64.5 c 128,-1,36
 383 97 383 97 386 154 c 0,37,38
 386 195 386 195 367 221 c 128,-1,39
 348 247 348 247 317.5 263 c 128,-1,40
 287 279 287 279 250 284 c 128,-1,41
 213 289 213 289 182 290 c 128,-1,42
 151 291 151 291 130 289.5 c 128,-1,43
 109 288 109 288 109 288.5 c 128,-1,44
 109 289 109 289 109 298.5 c 128,-1,45
 109 308 109 308 110 319 c 0,46,47
 110 332 110 332 111 355 c 1,48,49
 163 364 163 364 204 382 c 0,50,51
 221 390 221 390 238 400.5 c 128,-1,52
 255 411 255 411 267.5 427 c 128,-1,53
 280 443 280 443 286.5 463.5 c 128,-1,54
 293 484 293 484 292 510 c 0,55,56
 291 538 291 538 277.5 554.5 c 128,-1,57
 264 571 264 571 243.5 580 c 128,-1,58
 223 589 223 589 200 592 c 128,-1,59
 177 595 177 595 156.5 595 c 128,-1,60
 136 595 136 595 109 594 c 1,61,-1
 131 -26 l 1,62,-1
 57 -22 l 1,63,64
 60 592 60 592 59.5 592 c 128,-1,65
 59 592 59 592 50 592 c 128,-1,66
 41 592 41 592 29 591 c 2,67,-1
 0 589 l 1,68,-1
 1 649 l 1,0,1
EndSplineSet
Validated: 37
EndChar

StartChar: afii10020
Encoding: 1043 1043 204
Width: 501
VWidth: 950
GlyphClass: 2
Flags: W
LayerCount: 2
Fore
SplineSet
0 648 m 1,0,-1
 471 646 l 1,1,-1
 468 513 l 1,2,3
 456 531 456 531 445 547 c 0,4,5
 436 560 436 560 426.5 572.5 c 128,-1,6
 417 585 417 585 410 587 c 0,7,8
 407 588 407 588 391 588.5 c 128,-1,9
 375 589 375 589 102 586 c 1,10,11
 117 7 117 7 118 4 c 0,12,13
 120 -1 120 -1 185 -49 c 1,14,-1
 10 -49 l 1,15,16
 48 -13 48 -13 49 -9 c 0,17,18
 49 -7 49 -7 45 293.5 c 128,-1,19
 41 594 41 594 44 589 c 1,20,-1
 2 589 l 1,21,-1
 0 648 l 1,0,-1
EndSplineSet
Validated: 37
EndChar

StartChar: afii10021
Encoding: 1044 1044 205
Width: 741
VWidth: 950
GlyphClass: 2
Flags: W
LayerCount: 2
Fore
SplineSet
500 9 m 1,0,-1
 319 479 l 1,1,-1
 194 8 l 1,2,-1
 500 9 l 1,0,-1
582 8 m 1,3,4
 606 11 606 11 705 11 c 1,5,-1
 727 -225 l 1,6,-1
 669 -228 l 1,7,-1
 654 -48 l 1,8,-1
 623 -48 l 1,9,-1
 343 -49 l 1,10,-1
 147 -49 l 1,11,-1
 147 -49 l 1,12,-1
 83 -51 l 1,13,-1
 71 -232 l 1,14,-1
 12 -229 l 1,15,-1
 34 7 l 1,16,-1
 137 11 l 1,17,-1
 325 657 l 1,18,-1
 582 8 l 1,3,4
EndSplineSet
Validated: 5
EndChar

StartChar: afii10022
Encoding: 1045 1045 206
Width: 498
VWidth: 950
GlyphClass: 2
Flags: W
LayerCount: 2
Fore
SplineSet
0 650 m 1,0,-1
 463 643 l 1,1,-1
 462 525 l 1,2,3
 441 542 441 542 423 557 c 128,-1,4
 405 572 405 572 385 588 c 1,5,-1
 114 591 l 1,6,-1
 116 351 l 1,7,-1
 305 360 l 1,8,-1
 305 296 l 1,9,-1
 117 296 l 1,10,-1
 124 7 l 1,11,12
 349 11 349 11 350 12 c 0,13,14
 353 13 353 13 433 66 c 1,15,-1
 433 -48 l 1,16,-1
 24 -48 l 1,17,-1
 24 7 l 1,18,-1
 53 5 l 1,19,-1
 53 593 l 1,20,-1
 0 593 l 1,21,-1
 0 650 l 1,0,-1
EndSplineSet
Validated: 1
EndChar

StartChar: afii10024
Encoding: 1046 1046 207
Width: 896
VWidth: 950
GlyphClass: 2
Flags: W
LayerCount: 2
Fore
SplineSet
355 648 m 1,0,-1
 528 647 l 1,1,-1
 499 627 l 2,2,3
 469 606 469 606 469 604 c 2,4,-1
 474 420 l 1,5,-1
 771 616 l 1,6,-1
 817 575 l 1,7,-1
 566 427 l 1,8,-1
 875 53 l 1,9,-1
 812 1 l 1,10,-1
 520 398 l 1,11,-1
 472 369 l 1,12,-1
 482 -7 l 2,13,14
 483 -10 483 -10 509 -28 c 2,15,-1
 536 -46 l 1,16,-1
 362 -48 l 1,17,18
 414 -9 414 -9 414 -8 c 0,19,20
 412 224 412 224 411 370 c 1,21,-1
 367 398 l 1,22,-1
 75 0 l 1,23,-1
 12 53 l 1,24,-1
 320 427 l 1,25,-1
 69 575 l 1,26,-1
 115 616 l 1,27,-1
 411 421 l 1,28,29
 410 600 410 600 410 600 c 2,30,31
 409 600 409 600 355 648 c 1,0,-1
EndSplineSet
Validated: 1
EndChar

StartChar: afii10025
Encoding: 1047 1047 208
Width: 369
VWidth: 950
GlyphClass: 2
Flags: W
LayerCount: 2
Fore
SplineSet
149 314 m 1,0,1
 116 323 116 323 92 312 c 1,2,-1
 89 350 l 1,3,4
 140 372 140 372 162 391 c 128,-1,5
 184 410 184 410 205 444 c 1,6,7
 224 486 224 486 221 514 c 128,-1,8
 218 542 218 542 202 559 c 128,-1,9
 186 576 186 576 162 584.5 c 128,-1,10
 138 593 138 593 116 595.5 c 128,-1,11
 94 598 94 598 77 596 c 128,-1,12
 60 594 60 594 57 591 c 0,13,14
 53 586 53 586 48 576 c 128,-1,15
 43 566 43 566 39 555 c 0,16,17
 35 542 35 542 29 527 c 1,18,-1
 6 643 l 1,19,20
 89 650 89 650 154 638 c 0,21,22
 181 633 181 633 206.5 623 c 128,-1,23
 232 613 232 613 252 595.5 c 128,-1,24
 272 578 272 578 284 553 c 128,-1,25
 296 528 296 528 295 494 c 0,26,27
 294 451 294 451 274.5 421.5 c 128,-1,28
 255 392 255 392 234 375.5 c 128,-1,29
 213 359 213 359 191 344 c 1,30,31
 260 313 260 313 301 274 c 0,32,33
 324 247 324 247 330 219 c 0,34,35
 348 130 348 130 290 55 c 1,36,37
 219 -18 219 -18 127 -40 c 0,38,39
 78 -52 78 -52 6 -52 c 1,40,41
 6 -30 6 -30 5 12 c 1,42,43
 58 0 58 0 76 0 c 0,44,45
 177 9 177 9 242 96 c 1,46,47
 275 174 275 174 241 230 c 0,48,49
 206 280 206 280 149 314 c 1,0,1
EndSplineSet
Validated: 33
EndChar

StartChar: afii10026
Encoding: 1048 1048 209
Width: 536
VWidth: 950
GlyphClass: 2
Flags: W
LayerCount: 2
Fore
SplineSet
377 -47 m 1,0,1
 391 -30 391 -30 404 -7 c 1,2,3
 405 73 405 73 393 434 c 1,4,-1
 85 -45 l 1,5,-1
 83 -49 l 1,6,-1
 16 -49 l 1,7,-1
 15 646 l 1,8,-1
 124 650 l 1,9,10
 122 652 122 652 93 597 c 0,11,12
 88 580 88 580 85 52 c 1,13,-1
 450 643 l 1,14,-1
 478 -48 l 1,15,-1
 377 -47 l 1,0,1
EndSplineSet
Validated: 37
EndChar

StartChar: afii10027
Encoding: 1049 1049 210
Width: 539
VWidth: 950
GlyphClass: 2
Flags: W
LayerCount: 2
Fore
SplineSet
229 789 m 1,0,-1
 277 662 l 1,1,-1
 357 755 l 1,2,-1
 394 732 l 1,3,-1
 268 600 l 1,4,-1
 161 769 l 1,5,-1
 229 789 l 1,0,-1
480 -48 m 1,6,-1
 453 643 l 1,7,-1
 87 52 l 1,8,9
 91 580 91 580 96 597 c 0,10,11
 125 652 125 652 126 650 c 1,12,-1
 18 646 l 1,13,-1
 19 -49 l 1,14,-1
 85 -49 l 1,15,-1
 87 -45 l 1,16,-1
 395 434 l 1,17,18
 408 73 408 73 407 -7 c 1,19,20
 394 -30 394 -30 379 -47 c 1,21,-1
 480 -48 l 1,6,-1
EndSplineSet
Validated: 37
EndChar

StartChar: afii10028
Encoding: 1050 1050 211
Width: 510
VWidth: 950
GlyphClass: 2
Flags: W
LayerCount: 2
Fore
SplineSet
0 649 m 1,0,-1
 141 647 l 1,1,-1
 112 627 l 2,2,3
 82 606 82 606 82 604 c 2,4,-1
 87 420 l 1,5,-1
 385 616 l 1,6,-1
 430 575 l 1,7,-1
 179 427 l 1,8,-1
 488 53 l 1,9,-1
 425 1 l 1,10,-1
 133 398 l 1,11,-1
 85 369 l 1,12,-1
 95 -7 l 2,13,14
 96 -10 96 -10 122 -28 c 2,15,-1
 149 -46 l 1,16,-1
 3 -50 l 1,17,18
 27 -9 27 -9 27 -8 c 0,19,20
 23 619 23 619 23 620 c 1,21,22
 22 620 22 620 0 649 c 1,0,-1
EndSplineSet
Validated: 1
EndChar

StartChar: afii10029
Encoding: 1051 1051 212
Width: 496
VWidth: 950
GlyphClass: 2
Flags: W
LayerCount: 2
Fore
SplineSet
0 -50 m 1,0,-1
 206 655 l 1,1,-1
 480 -40 l 1,2,-1
 365 -48 l 1,3,-1
 388 -17 l 1,4,-1
 200 480 l 1,5,-1
 65 -23 l 1,6,-1
 90 -50 l 1,7,-1
 1 -49 l 1,8,-1
 0 -50 l 1,0,-1
EndSplineSet
Validated: 1
EndChar

StartChar: afii10030
Encoding: 1052 1052 213
Width: 613
VWidth: 950
GlyphClass: 2
Flags: W
LayerCount: 2
Fore
SplineSet
10 649 m 1,0,-1
 138 646 l 1,1,-1
 318 248 l 1,2,-1
 492 606 l 1,3,-1
 555 610 l 1,4,-1
 554 -19 l 1,5,-1
 436 -20 l 1,6,7
 447 -15 447 -15 457 -10 c 0,8,9
 465 -6 465 -6 485 7 c 0,10,11
 486 8 486 8 488 495 c 1,12,-1
 298 112 l 1,13,-1
 95 556 l 1,14,15
 105 -15 105 -15 107 -16 c 0,16,17
 109 -19 109 -19 123 -25 c 128,-1,18
 137 -31 137 -31 181 -49 c 1,19,-1
 1 -49 l 1,20,21
 13 -40 13 -40 25 -31 c 0,22,23
 34 -23 34 -23 42 -15.5 c 128,-1,24
 50 -8 50 -8 51 -4 c 0,25,26
 51 -1 51 -1 48.5 299.5 c 128,-1,27
 46 600 46 600 45 601 c 0,28,29
 43 604 43 604 37.5 612 c 128,-1,30
 32 620 32 620 26 629 c 0,31,32
 19 639 19 639 10 649 c 1,0,-1
EndSplineSet
Validated: 1
EndChar

StartChar: afii10031
Encoding: 1053 1053 214
Width: 522
VWidth: 950
GlyphClass: 2
Flags: W
LayerCount: 2
Fore
SplineSet
363 -47 m 1,0,1
 377 -30 377 -30 390 -7 c 1,2,3
 391 73 391 73 386 178 c 1,4,-1
 71 165 l 1,5,-1
 69 -49 l 1,6,-1
 2 -49 l 1,7,-1
 1 646 l 1,8,-1
 110 650 l 1,9,10
 108 652 108 652 79 597 c 0,11,12
 74 580 74 580 71 217 c 1,13,-1
 383 225 l 1,14,-1
 364 639 l 1,15,-1
 436 643 l 1,16,-1
 464 -48 l 1,17,-1
 363 -47 l 1,0,1
EndSplineSet
Validated: 37
EndChar

StartChar: afii10032
Encoding: 1054 1054 215
Width: 639
VWidth: 950
GlyphClass: 2
Flags: W
LayerCount: 2
Fore
SplineSet
297 651 m 0,0,1
 378 650 378 650 444 620 c 0,2,3
 473 608 473 608 500 587 c 128,-1,4
 527 566 527 566 549.5 533.5 c 128,-1,5
 572 501 572 501 586 455.5 c 128,-1,6
 600 410 600 410 603 351 c 0,7,8
 604 252 604 252 579 178 c 128,-1,9
 554 104 554 104 512 54 c 128,-1,10
 470 4 470 4 416.5 -22 c 128,-1,11
 363 -48 363 -48 307 -49 c 256,12,13
 251 -50 251 -50 195.5 -29 c 128,-1,14
 140 -8 140 -8 96.5 37.5 c 128,-1,15
 53 83 53 83 28 154 c 128,-1,16
 3 225 3 225 9 323 c 0,17,18
 13 415 13 415 39.5 475 c 128,-1,19
 66 535 66 535 101 571 c 128,-1,20
 136 607 136 607 183.5 628.5 c 128,-1,21
 231 650 231 650 297 651 c 0,0,1
519 294 m 0,22,23
 524 365 524 365 511.5 416 c 128,-1,24
 499 467 499 467 476.5 503 c 128,-1,25
 454 539 454 539 427 561.5 c 128,-1,26
 400 584 400 584 369 596.5 c 128,-1,27
 338 609 338 609 300 610 c 0,28,29
 295 610 295 610 279.5 609.5 c 128,-1,30
 264 609 264 609 243.5 604.5 c 128,-1,31
 223 600 223 600 201.5 588.5 c 128,-1,32
 180 577 180 577 157 555.5 c 128,-1,33
 134 534 134 534 117 492 c 128,-1,34
 100 450 100 450 93 389 c 0,35,36
 82 297 82 297 99 222.5 c 128,-1,37
 116 148 116 148 149 95.5 c 128,-1,38
 182 43 182 43 226 15.5 c 128,-1,39
 270 -12 270 -12 313 -10 c 0,40,41
 335 -10 335 -10 367 -1.5 c 128,-1,42
 399 7 399 7 430 37 c 128,-1,43
 461 67 461 67 486 127.5 c 128,-1,44
 511 188 511 188 519 294 c 0,22,23
EndSplineSet
Validated: 33
EndChar

StartChar: afii10033
Encoding: 1055 1055 216
Width: 522
VWidth: 950
GlyphClass: 2
Flags: W
LayerCount: 2
Fore
SplineSet
4 634 m 1,0,-1
 450 649 l 1,1,-1
 476 -49 l 1,2,-1
 391 -50 l 1,3,-1
 414 -10 l 1,4,-1
 396 596 l 1,5,-1
 62 586 l 1,6,7
 81 -3 81 -3 82 -8 c 0,8,9
 84 -12 84 -12 92.5 -20.5 c 128,-1,10
 101 -29 101 -29 109 -34 c 0,11,12
 121 -43 121 -43 133 -50 c 1,13,-1
 -1 -50 l 1,14,-1
 26 -17 l 1,15,-1
 4 634 l 1,0,-1
EndSplineSet
Validated: 1
EndChar

StartChar: afii10034
Encoding: 1056 1056 217
Width: 484
VWidth: 950
GlyphClass: 2
Flags: W
LayerCount: 2
Fore
SplineSet
1 639 m 1,0,1
 124 652 124 652 222 645 c 0,2,3
 264 641 264 641 303.5 631.5 c 128,-1,4
 343 622 343 622 374.5 606.5 c 128,-1,5
 406 591 406 591 425.5 567 c 128,-1,6
 445 543 445 543 445 509 c 0,7,8
 445 464 445 464 427.5 434 c 128,-1,9
 410 404 410 404 381 385 c 128,-1,10
 352 366 352 366 316 357 c 128,-1,11
 280 348 280 348 243 344 c 128,-1,12
 206 340 206 340 118 336 c 0,13,14
 85 336 85 336 80 341 c 128,-1,15
 75 346 75 346 84 353 c 0,16,17
 93 361 93 361 117 376 c 1,18,19
 194 374 194 374 252 388 c 0,20,21
 277 394 277 394 300.5 403 c 128,-1,22
 324 412 324 412 341.5 425 c 128,-1,23
 359 438 359 438 367.5 455.5 c 128,-1,24
 376 473 376 473 373 497 c 0,25,26
 365 542 365 542 333 564 c 128,-1,27
 301 586 301 586 260.5 594 c 128,-1,28
 220 602 220 602 178.5 599.5 c 128,-1,29
 137 597 137 597 111 594 c 1,30,31
 132 15 132 15 132 14 c 0,32,33
 134 12 134 12 142.5 3 c 128,-1,34
 151 -6 151 -6 161 -15 c 0,35,36
 173 -27 173 -27 187 -40 c 1,37,-1
 30 -47 l 1,38,39
 38 -40 38 -40 44 -35 c 0,40,41
 50 -29 50 -29 54.5 -24.5 c 128,-1,42
 59 -20 59 -20 60 -18 c 0,43,44
 60 -16 60 -16 55 588 c 1,45,-1
 4 582 l 1,46,-1
 1 639 l 1,0,1
EndSplineSet
Validated: 37
EndChar

StartChar: afii10035
Encoding: 1057 1057 218
Width: 520
VWidth: 950
GlyphClass: 2
Flags: W
LayerCount: 2
Fore
SplineSet
473 638 m 1,0,-1
 440 558 l 1,1,2
 338 584 338 584 259 567 c 0,3,4
 225 559 225 559 193.5 541.5 c 128,-1,5
 162 524 162 524 138.5 491.5 c 128,-1,6
 115 459 115 459 102 409 c 128,-1,7
 89 359 89 359 93 287 c 0,8,9
 96 210 96 210 111.5 159 c 128,-1,10
 127 108 127 108 149.5 76.5 c 128,-1,11
 172 45 172 45 200.5 29.5 c 128,-1,12
 229 14 229 14 258 10 c 0,13,14
 326 0 326 0 410 38 c 1,15,-1
 444 -39 l 1,16,17
 318 -59 318 -59 221 -31 c 0,18,19
 179 -20 179 -20 140.5 4 c 128,-1,20
 102 28 102 28 72 67 c 128,-1,21
 42 106 42 106 24.5 165 c 128,-1,22
 7 224 7 224 10 306 c 0,23,24
 14 390 14 390 52 456.5 c 128,-1,25
 90 523 90 523 153 567.5 c 128,-1,26
 216 612 216 612 299 630.5 c 128,-1,27
 382 649 382 649 473 638 c 1,0,-1
EndSplineSet
Validated: 33
EndChar

StartChar: afii10036
Encoding: 1058 1058 219
Width: 550
VWidth: 950
GlyphClass: 2
Flags: W
LayerCount: 2
Fore
SplineSet
513 648 m 1,0,-1
 515 534 l 1,1,2
 508 545 508 545 501 557 c 0,3,4
 496 566 496 566 489.5 574.5 c 128,-1,5
 483 583 483 583 478 586 c 0,6,7
 472 590 472 590 269 585 c 1,8,9
 288 13 288 13 288 11 c 0,10,11
 289 5 289 5 310 -19 c 2,12,-1
 335 -50 l 1,13,-1
 146 -49 l 1,14,15
 188 -23 188 -23 198 -15 c 128,-1,16
 208 -7 208 -7 213 -3 c 0,17,18
 217 2 217 2 204 584 c 1,19,20
 52 583 52 583 48 582 c 2,21,-1
 27 560 l 2,22,23
 15 546 15 546 1 530 c 1,24,-1
 2 628 l 1,25,-1
 513 648 l 1,0,-1
EndSplineSet
Validated: 33
EndChar

StartChar: afii10037
Encoding: 1059 1059 220
Width: 550
VWidth: 950
GlyphClass: 2
Flags: W
LayerCount: 2
Fore
SplineSet
0 649 m 1,0,-1
 117 644 l 1,1,-1
 103 633 l 2,2,3
 98 629 98 629 94 624 c 128,-1,4
 90 619 90 619 89 617 c 0,5,6
 89 615 89 615 335 349 c 1,7,8
 419 599 419 599 418 601 c 0,9,10
 416 605 416 605 410 611 c 128,-1,11
 404 617 404 617 397 624 c 0,12,13
 389 632 389 632 379 641 c 1,14,-1
 536 635 l 1,15,-1
 490 593 l 1,16,-1
 276 -15 l 1,17,-1
 319 -49 l 1,18,-1
 139 -49 l 1,19,20
 180 -25 180 -25 190 -17 c 128,-1,21
 200 -9 200 -9 202 -4 c 0,22,23
 203 -1 203 -1 308 299 c 1,24,25
 88 525 88 525 63.5 559.5 c 128,-1,26
 39 594 39 594 21 619 c 128,-1,27
 3 644 3 644 0 649 c 1,0,-1
EndSplineSet
Validated: 33
EndChar

StartChar: afii10038
Encoding: 1060 1060 221
Width: 639
VWidth: 950
GlyphClass: 2
Flags: W
LayerCount: 2
Fore
SplineSet
232 650 m 1,0,1
 302 647 302 647 371 649 c 1,2,3
 326 608 326 608 340 606 c 0,4,5
 396 601 396 601 444 584 c 0,6,7
 473 574 473 574 500 557.5 c 128,-1,8
 527 541 527 541 549.5 514.5 c 128,-1,9
 572 488 572 488 586 452 c 128,-1,10
 600 416 600 416 603 368 c 0,11,12
 604 289 604 289 579 230 c 128,-1,13
 554 171 554 171 512 131 c 128,-1,14
 470 91 470 91 424.5 73 c 128,-1,15
 379 55 379 55 340 51 c 1,16,17
 341 24 341 24 341 4 c 1,18,19
 354 -12 354 -12 401 -49 c 1,20,21
 312 -49 312 -49 226 -51 c 1,22,23
 256 -31 256 -31 273 3 c 1,24,25
 273 33 273 33 273 50 c 1,26,27
 234 53 234 53 187 67 c 128,-1,28
 140 81 140 81 96.5 117.5 c 128,-1,29
 53 154 53 154 28 210.5 c 128,-1,30
 3 267 3 267 9 346 c 0,31,32
 13 420 13 420 39.5 467.5 c 128,-1,33
 66 515 66 515 101 544.5 c 128,-1,34
 136 574 136 574 178.5 589 c 128,-1,35
 221 604 221 604 274 607 c 1,36,37
 269 618 269 618 232 650 c 1,0,1
337 82 m 2,38,39
 337 81 337 81 344.5 81.5 c 128,-1,40
 352 82 352 82 364.5 85.5 c 128,-1,41
 377 89 377 89 393.5 96 c 128,-1,42
 410 103 410 103 427 116.5 c 128,-1,43
 444 130 444 130 461 150 c 128,-1,44
 478 170 478 170 491 200 c 0,45,46
 519 280 519 280 521.5 346 c 128,-1,47
 524 412 524 412 497 459 c 0,48,49
 476 493 476 493 455 513.5 c 128,-1,50
 434 534 434 534 414.5 545.5 c 128,-1,51
 395 557 395 557 376 562.5 c 128,-1,52
 357 568 357 568 340 572 c 1,53,-1
 338 327 l 2,54,55
 338 282 338 282 337.5 238 c 128,-1,56
 337 194 337 194 337 159.5 c 128,-1,57
 337 125 337 125 337 103 c 0,58,59
 337 82 337 82 337 82 c 2,38,39
274 84 m 1,60,61
 274 85 274 85 274 106 c 128,-1,62
 274 127 274 127 273.5 161.5 c 128,-1,63
 273 196 273 196 273 240 c 128,-1,64
 273 284 273 284 272 330 c 0,65,66
 271 437 271 437 271 574 c 1,67,68
 249 571 249 571 227 566.5 c 128,-1,69
 205 562 205 562 184 551 c 128,-1,70
 163 540 163 540 144.5 519.5 c 128,-1,71
 126 499 126 499 110 464 c 0,72,73
 98 431 98 431 93 402 c 128,-1,74
 88 373 88 373 89 343.5 c 128,-1,75
 90 314 90 314 97.5 281 c 128,-1,76
 105 248 105 248 118 208 c 1,77,78
 132 181 132 181 149.5 161.5 c 128,-1,79
 167 142 167 142 184 128.5 c 128,-1,80
 201 115 201 115 217.5 107 c 128,-1,81
 234 99 234 99 246.5 94.5 c 128,-1,82
 259 90 259 90 266.5 88 c 128,-1,83
 274 86 274 86 274 84 c 1,60,61
EndSplineSet
Validated: 33
EndChar

StartChar: afii10039
Encoding: 1061 1061 222
Width: 561
VWidth: 950
GlyphClass: 2
Flags: W
LayerCount: 2
Fore
SplineSet
471 -48 m 1,0,-1
 258 267 l 1,1,-1
 55 -24 l 1,2,-1
 1 8 l 1,3,-1
 225 319 l 1,4,-1
 29 611 l 1,5,-1
 102 650 l 1,6,-1
 273 377 l 1,7,-1
 432 620 l 1,8,-1
 489 600 l 1,9,-1
 307 328 l 1,10,-1
 538 -3 l 1,11,-1
 471 -48 l 1,0,-1
EndSplineSet
Validated: 1
EndChar

StartChar: afii10040
Encoding: 1062 1062 223
Width: 631
VWidth: 950
GlyphClass: 2
Flags: W
LayerCount: 2
Fore
SplineSet
396 -47 m 1,0,-1
 95 -50 l 1,1,-1
 93 -49 l 1,2,-1
 26 -49 l 1,3,-1
 20 641 l 1,4,-1
 133 642 l 1,5,6
 117 637 117 637 92 607 c 1,7,8
 98 590 98 590 95 2 c 1,9,-1
 392 10 l 1,10,-1
 381 558 l 1,11,-1
 383 596 l 1,12,13
 372 611 372 611 358 622.5 c 128,-1,14
 344 634 344 634 329 644 c 1,15,-1
 479 647 l 1,16,-1
 455 597 l 1,17,-1
 471 19 l 1,18,-1
 584 15 l 1,19,-1
 606 -221 l 1,20,-1
 547 -224 l 1,21,-1
 535 -43 l 1,22,-1
 396 -47 l 1,0,-1
EndSplineSet
Validated: 33
EndChar

StartChar: afii10041
Encoding: 1063 1063 224
Width: 527
VWidth: 950
GlyphClass: 2
Flags: W
LayerCount: 2
Fore
SplineSet
371 640 m 1,0,-1
 528 633 l 1,1,-1
 475 592 l 1,2,3
 483 -1 483 -1 483 -3 c 256,4,5
 483 -5 483 -5 487.5 -11.5 c 128,-1,6
 492 -18 492 -18 498 -27 c 0,7,8
 505 -38 505 -38 514 -49 c 1,9,-1
 363 -43 l 1,10,11
 377 -28 377 -28 389 -14 c 0,12,13
 400 -1 400 -1 408.5 9.5 c 128,-1,14
 417 20 417 20 417 23 c 0,15,16
 416 25 416 25 417 258 c 1,17,18
 371 261 371 261 329 267 c 0,19,20
 294 272 294 272 266.5 277 c 128,-1,21
 239 282 239 282 231 284 c 2,22,-1
 185 297 l 2,23,24
 143 310 143 310 110 328 c 0,25,26
 66 358 66 358 45 423.5 c 128,-1,27
 24 489 24 489 40 640 c 1,28,-1
 160 637 l 1,29,-1
 105 602 l 1,30,-1
 93 587 l 1,31,32
 86 472 86 472 108 429 c 128,-1,33
 130 386 130 386 151 367.5 c 128,-1,34
 172 349 172 349 204.5 336.5 c 128,-1,35
 237 324 237 324 266 317 c 0,36,37
 334 302 334 302 419 300 c 1,38,-1
 420 596 l 1,39,-1
 371 640 l 1,0,-1
EndSplineSet
Validated: 33
EndChar

StartChar: afii10042
Encoding: 1064 1064 225
Width: 703
VWidth: 950
GlyphClass: 2
Flags: W
LayerCount: 2
Fore
SplineSet
577 -47 m 1,0,-1
 90 -50 l 1,1,-1
 88 -49 l 1,2,-1
 21 -49 l 1,3,-1
 15 637 l 1,4,-1
 128 637 l 1,5,6
 112 632 112 632 87 602 c 1,7,8
 93 585 93 585 90 2 c 1,9,-1
 312 5 l 1,10,-1
 324 575 l 1,11,-1
 372 577 l 1,12,-1
 387 7 l 1,13,-1
 573 10 l 1,14,-1
 562 557 l 1,15,-1
 564 595 l 1,16,17
 553 611 553 611 539 622.5 c 128,-1,18
 525 634 525 634 510 643 c 1,19,-1
 659 647 l 1,20,-1
 635 597 l 1,21,-1
 654 -48 l 1,22,-1
 577 -47 l 1,0,-1
EndSplineSet
Validated: 33
EndChar

StartChar: afii10043
Encoding: 1065 1065 226
Width: 809
VWidth: 950
GlyphClass: 2
Flags: W
LayerCount: 2
Fore
SplineSet
579 -47 m 1,0,-1
 92 -50 l 1,1,-1
 90 -49 l 1,2,-1
 23 -49 l 1,3,-1
 17 637 l 1,4,-1
 130 637 l 1,5,6
 115 632 115 632 90 602 c 1,7,8
 96 585 96 585 92 2 c 1,9,-1
 314 5 l 1,10,-1
 327 575 l 1,11,-1
 374 577 l 1,12,-1
 390 7 l 1,13,-1
 575 10 l 1,14,-1
 564 557 l 1,15,-1
 566 595 l 1,16,17
 555 611 555 611 541 622.5 c 128,-1,18
 527 634 527 634 512 643 c 1,19,-1
 662 647 l 1,20,-1
 638 597 l 1,21,-1
 654 19 l 1,22,-1
 767 15 l 1,23,-1
 789 -221 l 1,24,-1
 730 -224 l 1,25,-1
 718 -43 l 1,26,-1
 579 -47 l 1,0,-1
EndSplineSet
Validated: 33
EndChar

StartChar: afii10044
Encoding: 1066 1066 227
Width: 522
VWidth: 950
GlyphClass: 2
Flags: W
LayerCount: 2
Fore
SplineSet
233 349 m 0,0,1
 307 346 307 346 368 327 c 0,2,3
 394 317 394 317 418.5 301.5 c 128,-1,4
 443 286 443 286 464 257 c 128,-1,5
 485 228 485 228 494 200.5 c 128,-1,6
 503 173 503 173 502 139 c 0,7,8
 501 94 501 94 481 61.5 c 128,-1,9
 461 29 461 29 428.5 7 c 128,-1,10
 396 -15 396 -15 353.5 -27.5 c 128,-1,11
 311 -40 311 -40 263 -45 c 128,-1,12
 215 -50 215 -50 166 -49 c 128,-1,13
 117 -48 117 -48 70 -43 c 1,14,15
 70 -24 70 -24 69.5 -14 c 128,-1,16
 69 -4 69 -4 69 1 c 0,17,18
 69 7 69 7 69 9 c 0,19,20
 69 10 69 10 69 12 c 1,21,22
 120 1 120 1 159 -1.5 c 128,-1,23
 198 -4 198 -4 244.5 -1 c 128,-1,24
 291 2 291 2 330.5 17 c 128,-1,25
 370 32 370 32 398 64.5 c 128,-1,26
 426 97 426 97 429 154 c 0,27,28
 429 195 429 195 410 221 c 128,-1,29
 391 247 391 247 360.5 263 c 128,-1,30
 330 279 330 279 293 284 c 128,-1,31
 256 289 256 289 225 290 c 128,-1,32
 194 291 194 291 173 289.5 c 128,-1,33
 152 288 152 288 152 288 c 1,34,35
 152 289 152 289 152 298 c 0,36,37
 152 308 152 308 153 319 c 0,38,39
 153 332 153 332 152 350 c 1,40,41
 167 352 167 352 233 349 c 0,0,1
195 650 m 1,42,43
 195 619 195 619 196 591 c 1,44,45
 167 589 167 589 156 590 c 1,46,-1
 174 -26 l 1,47,-1
 100 -22 l 1,48,49
 103 592 103 592 103 592 c 1,50,51
 102 592 102 592 62.5 591.5 c 128,-1,52
 23 591 23 591 2 590 c 1,53,-1
 2 649 l 1,54,55
 12 649 12 649 100 650 c 0,56,57
 131 650 131 650 165 650 c 2,58,-1
 195 650 l 1,42,43
EndSplineSet
Validated: 37
EndChar

StartChar: afii10045
Encoding: 1067 1067 228
Width: 644
VWidth: 950
GlyphClass: 2
Flags: W
LayerCount: 2
Fore
SplineSet
190 349 m 0,0,1
 264 346 264 346 325 327 c 0,2,3
 351 317 351 317 375.5 301.5 c 128,-1,4
 400 286 400 286 421 257 c 128,-1,5
 442 228 442 228 451 200.5 c 128,-1,6
 460 173 460 173 459 139 c 0,7,8
 458 94 458 94 438 61.5 c 128,-1,9
 418 29 418 29 385.5 7 c 128,-1,10
 353 -15 353 -15 310.5 -27.5 c 128,-1,11
 268 -40 268 -40 220 -45 c 128,-1,12
 172 -50 172 -50 123 -49 c 128,-1,13
 74 -48 74 -48 27 -43 c 1,14,15
 27 -24 27 -24 26.5 -14 c 128,-1,16
 26 -4 26 -4 26 1 c 0,17,18
 26 7 26 7 26 9 c 0,19,20
 26 10 26 10 26 12 c 1,21,22
 77 1 77 1 116 -1.5 c 128,-1,23
 155 -4 155 -4 201.5 -1 c 128,-1,24
 248 2 248 2 287.5 17 c 128,-1,25
 327 32 327 32 355 64.5 c 128,-1,26
 383 97 383 97 386 154 c 0,27,28
 386 195 386 195 367 221 c 128,-1,29
 348 247 348 247 317.5 263 c 128,-1,30
 287 279 287 279 250 284 c 128,-1,31
 213 289 213 289 182 290 c 128,-1,32
 151 291 151 291 130 289.5 c 128,-1,33
 109 288 109 288 109 288 c 1,34,35
 109 289 109 289 109 298 c 0,36,37
 109 308 109 308 110 319 c 0,38,39
 110 332 110 332 109 350 c 1,40,41
 125 352 125 352 190 349 c 0,0,1
148 651 m 1,42,43
 129 631 129 631 113 614 c 1,44,-1
 131 -26 l 1,45,-1
 57 -22 l 1,46,47
 60 592 60 592 60 592 c 1,48,49
 59 592 59 592 54 603 c 128,-1,50
 49 614 49 614 38 626 c 2,51,-1
 13 649 l 1,52,53
 23 649 23 649 57 650 c 0,54,55
 88 650 88 650 122 649 c 2,56,-1
 148 651 l 1,42,43
445 647 m 1,57,-1
 582 647 l 1,58,59
 572 638 572 638 565 632 c 0,60,61
 561 626 561 626 554.5 620 c 128,-1,62
 548 614 548 614 547 610 c 0,63,64
 547 609 547 609 549 307 c 128,-1,65
 551 5 551 5 552 4 c 0,66,67
 554 1 554 1 612 -50 c 1,68,-1
 447 -52 l 1,69,70
 476 -26 476 -26 480 -15 c 0,71,72
 482 -11 482 -11 484.5 293 c 128,-1,73
 487 597 487 597 487 600 c 0,74,75
 484 606 484 606 478 613 c 128,-1,76
 472 620 472 620 445 647 c 1,57,-1
EndSplineSet
Validated: 37
EndChar

StartChar: afii10046
Encoding: 1068 1068 229
Width: 477
VWidth: 950
GlyphClass: 2
Flags: W
LayerCount: 2
Fore
SplineSet
190 349 m 0,0,1
 264 346 264 346 325 327 c 0,2,3
 351 317 351 317 375.5 301.5 c 128,-1,4
 400 286 400 286 421 257 c 128,-1,5
 442 228 442 228 451 200.5 c 128,-1,6
 460 173 460 173 459 139 c 0,7,8
 458 94 458 94 438 61.5 c 128,-1,9
 418 29 418 29 385.5 7 c 128,-1,10
 353 -15 353 -15 310.5 -27.5 c 128,-1,11
 268 -40 268 -40 220 -45 c 128,-1,12
 172 -50 172 -50 123 -49 c 128,-1,13
 74 -48 74 -48 27 -43 c 1,14,15
 27 -24 27 -24 26.5 -14 c 128,-1,16
 26 -4 26 -4 26 1 c 0,17,18
 26 7 26 7 26 9 c 0,19,20
 26 10 26 10 26 12 c 1,21,22
 77 1 77 1 116 -1.5 c 128,-1,23
 155 -4 155 -4 201.5 -1 c 128,-1,24
 248 2 248 2 287.5 17 c 128,-1,25
 327 32 327 32 355 64.5 c 128,-1,26
 383 97 383 97 386 154 c 0,27,28
 386 195 386 195 367 221 c 128,-1,29
 348 247 348 247 317.5 263 c 128,-1,30
 287 279 287 279 250 284 c 128,-1,31
 213 289 213 289 182 290 c 128,-1,32
 151 291 151 291 130 289.5 c 128,-1,33
 109 288 109 288 109 288 c 1,34,35
 109 289 109 289 109 298 c 0,36,37
 109 308 109 308 110 319 c 0,38,39
 110 332 110 332 109 350 c 1,40,41
 125 352 125 352 190 349 c 0,0,1
148 651 m 1,42,43
 129 631 129 631 113 614 c 1,44,-1
 131 -26 l 1,45,-1
 57 -22 l 1,46,47
 60 592 60 592 60 592 c 1,48,49
 59 592 59 592 54 603 c 128,-1,50
 49 614 49 614 38 626 c 2,51,-1
 13 649 l 1,52,53
 23 649 23 649 57 650 c 0,54,55
 88 650 88 650 122 649 c 2,56,-1
 148 651 l 1,42,43
EndSplineSet
Validated: 37
EndChar

StartChar: afii10047
Encoding: 1069 1069 230
Width: 572
VWidth: 950
GlyphClass: 2
Flags: W
LayerCount: 2
Fore
SplineSet
2 629 m 1,0,1
 127 652 127 652 233 633 c 0,2,3
 278 625 278 625 323 607.5 c 128,-1,4
 368 590 368 590 407 558 c 128,-1,5
 446 526 446 526 475.5 477.5 c 128,-1,6
 505 429 505 429 520 360 c 0,7,8
 536 269 536 269 523.5 204 c 128,-1,9
 511 139 511 139 479.5 93 c 128,-1,10
 448 47 448 47 402.5 19.5 c 128,-1,11
 357 -8 357 -8 308 -23 c 0,12,13
 190 -59 190 -59 32 -42 c 1,14,-1
 30 14 l 1,15,16
 151 -6 151 -6 243 15 c 0,17,18
 283 24 283 24 320 44 c 128,-1,19
 357 64 357 64 385 98 c 128,-1,20
 413 132 413 132 428 180 c 128,-1,21
 443 228 443 228 442 290 c 0,22,23
 442 293 442 293 119 286 c 1,24,25
 117 313 117 313 118 354 c 1,26,27
 388 349 388 349 438 349 c 1,28,29
 433 383 433 383 420 418 c 128,-1,30
 407 453 407 453 383.5 484 c 128,-1,31
 360 515 360 515 331.5 533.5 c 128,-1,32
 303 552 303 552 272 563 c 0,33,34
 203 588 203 588 118 582 c 2,35,-1
 69 579 l 1,36,-1
 8 570 l 1,37,-1
 2 629 l 1,0,1
EndSplineSet
Validated: 33
EndChar

StartChar: afii10048
Encoding: 1070 1070 231
Width: 887
VWidth: 950
GlyphClass: 2
Flags: W
LayerCount: 2
Fore
SplineSet
761 293 m 0,0,1
 766 364 766 364 753.5 415 c 128,-1,2
 741 466 741 466 718.5 501.5 c 128,-1,3
 696 537 696 537 669 559.5 c 128,-1,4
 642 582 642 582 611 595 c 128,-1,5
 580 608 580 608 542 609 c 0,6,7
 537 609 537 609 521 608.5 c 128,-1,8
 505 608 505 608 484.5 603 c 128,-1,9
 464 598 464 598 442.5 586.5 c 128,-1,10
 421 575 421 575 398 554 c 128,-1,11
 375 533 375 533 358.5 491 c 128,-1,12
 342 449 342 449 334 387 c 0,13,14
 324 296 324 296 340.5 221.5 c 128,-1,15
 357 147 357 147 390 94 c 128,-1,16
 423 41 423 41 467.5 14 c 128,-1,17
 512 -13 512 -13 555 -11 c 0,18,19
 577 -11 577 -11 609 -2.5 c 128,-1,20
 641 6 641 6 672 36 c 128,-1,21
 703 66 703 66 727.5 126 c 128,-1,22
 752 186 752 186 761 293 c 0,0,1
539 650 m 0,23,24
 620 649 620 649 686 618 c 0,25,26
 714 607 714 607 741.5 586 c 128,-1,27
 769 565 769 565 791 532 c 128,-1,28
 813 499 813 499 827.5 453.5 c 128,-1,29
 842 408 842 408 845 349 c 0,30,31
 846 250 846 250 820.5 176 c 128,-1,32
 795 102 795 102 753 52.5 c 128,-1,33
 711 3 711 3 657.5 -23.5 c 128,-1,34
 604 -50 604 -50 548 -50 c 0,35,36
 493 -51 493 -51 437 -30 c 128,-1,37
 381 -9 381 -9 337.5 36 c 128,-1,38
 294 81 294 81 270 152 c 0,39,40
 249 212 249 212 249 291 c 1,41,-1
 111 291 l 1,42,43
 117 7 117 7 118 4 c 0,44,45
 120 -1 120 -1 185 -49 c 1,46,-1
 10 -49 l 1,47,48
 48 -13 48 -13 49 -9 c 0,49,50
 49 -7 49 -7 49 278 c 128,-1,51
 49 563 49 563 51 593 c 1,52,-1
 47 607 l 1,53,-1
 7 649 l 1,54,-1
 143 649 l 1,55,56
 128 632 128 632 110 606 c 1,57,-1
 110 347 l 1,58,-1
 252 353 l 1,59,60
 259 424 259 424 281 473 c 0,61,62
 308 533 308 533 342.5 569.5 c 128,-1,63
 377 606 377 606 425 627.5 c 128,-1,64
 473 649 473 649 539 650 c 0,23,24
EndSplineSet
Validated: 33
EndChar

StartChar: afii10049
Encoding: 1071 1071 232
Width: 584
VWidth: 950
GlyphClass: 2
Flags: W
LayerCount: 2
Fore
SplineSet
460 596 m 1,0,1
 380 606 380 606 312 600 c 0,2,3
 275 595 275 595 246.5 587 c 128,-1,4
 218 579 218 579 196.5 564 c 128,-1,5
 175 549 175 549 160 525.5 c 128,-1,6
 145 502 145 502 142 469 c 0,7,8
 142 435 142 435 156 410.5 c 128,-1,9
 170 386 170 386 191 367.5 c 128,-1,10
 212 349 212 349 244.5 336.5 c 128,-1,11
 277 324 277 324 306 317 c 0,12,13
 375 302 375 302 460 300 c 1,14,-1
 460 596 l 1,0,1
226 297 m 1,15,16
 184 310 184 310 149 330 c 0,17,18
 121 348 121 348 95.5 380 c 128,-1,19
 70 412 70 412 67 465 c 0,20,21
 67 519 67 519 89.5 553.5 c 128,-1,22
 112 588 112 588 151 609 c 128,-1,23
 190 630 190 630 241 638.5 c 128,-1,24
 292 647 292 647 347.5 649 c 128,-1,25
 403 651 403 651 459 650 c 128,-1,26
 515 649 515 649 564 647 c 1,27,-1
 561 588 l 1,28,-1
 516 592 l 1,29,30
 523 -1 523 -1 523 -3 c 0,31,32
 524 -5 524 -5 528.5 -11.5 c 128,-1,33
 533 -18 533 -18 539 -27 c 0,34,35
 545 -38 545 -38 554 -49 c 1,36,-1
 403 -43 l 1,37,38
 418 -28 418 -28 430 -14 c 0,39,40
 440 -1 440 -1 449 9.5 c 128,-1,41
 458 20 458 20 458 23 c 0,42,43
 457 25 457 25 458 258 c 1,44,45
 412 261 412 261 370 267 c 0,46,47
 334 272 334 272 307 277 c 128,-1,48
 280 282 280 282 272 284 c 1,49,50
 258 266 258 266 244 241 c 0,51,52
 230 219 230 219 213 192 c 128,-1,53
 196 165 196 165 177 135 c 0,54,55
 137 68 137 68 85 -17 c 1,56,-1
 20 34 l 1,57,-1
 226 297 l 1,15,16
EndSplineSet
Validated: 33
EndChar

StartChar: afii10065
Encoding: 1072 1072 233
Width: 496
VWidth: 950
GlyphClass: 2
Flags: W
LayerCount: 2
Fore
SplineSet
0 -50 m 1,0,-1
 206 655 l 1,1,-1
 480 -40 l 1,2,-1
 365 -48 l 1,3,-1
 388 -17 l 1,4,-1
 200 480 l 1,5,-1
 140 244 l 1,6,-1
 303 256 l 1,7,-1
 314 203 l 1,8,-1
 129 192 l 1,9,-1
 65 -23 l 1,10,-1
 90 -50 l 1,11,-1
 1 -49 l 1,12,-1
 0 -50 l 1,0,-1
EndSplineSet
Validated: 5
EndChar

StartChar: afii10066
Encoding: 1073 1073 234
Width: 493
VWidth: 950
GlyphClass: 2
Flags: W
LayerCount: 2
Fore
SplineSet
190 349 m 0,0,1
 264 346 264 346 325 327 c 0,2,3
 351 317 351 317 375.5 301.5 c 128,-1,4
 400 286 400 286 421 257 c 128,-1,5
 442 228 442 228 451 200.5 c 128,-1,6
 460 173 460 173 459 139 c 0,7,8
 458 94 458 94 438 61.5 c 128,-1,9
 418 29 418 29 385.5 7 c 128,-1,10
 353 -15 353 -15 310.5 -27.5 c 128,-1,11
 268 -40 268 -40 220 -45 c 128,-1,12
 172 -50 172 -50 123 -49 c 128,-1,13
 74 -48 74 -48 27 -43 c 1,14,15
 27 -24 27 -24 26.5 -14 c 128,-1,16
 26 -4 26 -4 26 1 c 0,17,18
 26 7 26 7 26 9 c 0,19,20
 26 10 26 10 26 12 c 1,21,22
 77 1 77 1 116 -1.5 c 128,-1,23
 155 -4 155 -4 201.5 -1 c 128,-1,24
 248 2 248 2 287.5 17 c 128,-1,25
 327 32 327 32 355 64.5 c 128,-1,26
 383 97 383 97 386 154 c 0,27,28
 386 195 386 195 367 221 c 128,-1,29
 348 247 348 247 317.5 263 c 128,-1,30
 287 279 287 279 250 284 c 128,-1,31
 213 289 213 289 182 290 c 128,-1,32
 151 291 151 291 130 289.5 c 128,-1,33
 109 288 109 288 109 288 c 1,34,35
 109 289 109 289 109 298 c 0,36,37
 109 308 109 308 110 319 c 0,38,39
 110 332 110 332 109 350 c 1,40,41
 125 352 125 352 190 349 c 0,0,1
437 516 m 1,42,-1
 395 581 l 1,43,-1
 379 593 l 1,44,45
 115 594 115 594 109 594 c 1,46,-1
 131 -26 l 1,47,-1
 57 -22 l 1,48,49
 60 592 60 592 60 592 c 1,50,51
 59 592 59 592 50 592 c 256,52,53
 41 592 41 592 29 591 c 2,54,-1
 0 589 l 1,55,-1
 1 649 l 1,56,57
 23 649 23 649 62 649 c 0,58,59
 88 650 88 650 443 645 c 1,60,-1
 437 516 l 1,42,-1
EndSplineSet
Validated: 37
EndChar

StartChar: afii10067
Encoding: 1074 1074 235
Width: 493
VWidth: 950
GlyphClass: 2
Flags: W
LayerCount: 2
Fore
SplineSet
1 649 m 1,0,1
 23 649 23 649 57.5 649.5 c 128,-1,2
 92 650 92 650 130 648.5 c 128,-1,3
 168 647 168 647 207.5 639.5 c 128,-1,4
 247 632 247 632 278.5 617.5 c 128,-1,5
 310 603 310 603 330.5 577.5 c 128,-1,6
 351 552 351 552 353 513 c 0,7,8
 355 464 355 464 329.5 428.5 c 128,-1,9
 304 393 304 393 272 371 c 0,10,11
 234 347 234 347 197 338 c 1,12,13
 264 346 264 346 325 327 c 0,14,15
 351 317 351 317 375.5 301.5 c 128,-1,16
 400 286 400 286 421 257 c 128,-1,17
 442 228 442 228 451 200.5 c 128,-1,18
 460 173 460 173 459 139 c 0,19,20
 458 94 458 94 438 61.5 c 128,-1,21
 418 29 418 29 385.5 7 c 128,-1,22
 353 -15 353 -15 310.5 -27.5 c 128,-1,23
 268 -40 268 -40 220 -45 c 128,-1,24
 172 -50 172 -50 123 -49 c 128,-1,25
 74 -48 74 -48 27 -43 c 1,26,27
 27 -24 27 -24 26.5 -14 c 128,-1,28
 26 -4 26 -4 26 1.5 c 128,-1,29
 26 7 26 7 26 8.5 c 128,-1,30
 26 10 26 10 26 12 c 1,31,32
 77 1 77 1 116 -1.5 c 128,-1,33
 155 -4 155 -4 201.5 -1 c 128,-1,34
 248 2 248 2 287.5 17 c 128,-1,35
 327 32 327 32 355 64.5 c 128,-1,36
 383 97 383 97 386 154 c 0,37,38
 386 195 386 195 367 221 c 128,-1,39
 348 247 348 247 317.5 263 c 128,-1,40
 287 279 287 279 250 284 c 128,-1,41
 213 289 213 289 182 290 c 128,-1,42
 151 291 151 291 130 289.5 c 128,-1,43
 109 288 109 288 109 288.5 c 128,-1,44
 109 289 109 289 109 298.5 c 128,-1,45
 109 308 109 308 110 319 c 0,46,47
 110 332 110 332 111 355 c 1,48,49
 163 364 163 364 204 382 c 0,50,51
 221 390 221 390 238 400.5 c 128,-1,52
 255 411 255 411 267.5 427 c 128,-1,53
 280 443 280 443 286.5 463.5 c 128,-1,54
 293 484 293 484 292 510 c 0,55,56
 291 538 291 538 277.5 554.5 c 128,-1,57
 264 571 264 571 243.5 580 c 128,-1,58
 223 589 223 589 200 592 c 128,-1,59
 177 595 177 595 156.5 595 c 128,-1,60
 136 595 136 595 109 594 c 1,61,-1
 131 -26 l 1,62,-1
 57 -22 l 1,63,64
 60 592 60 592 59.5 592 c 128,-1,65
 59 592 59 592 50 592 c 128,-1,66
 41 592 41 592 29 591 c 2,67,-1
 0 589 l 1,68,-1
 1 649 l 1,0,1
EndSplineSet
Validated: 37
EndChar

StartChar: afii10068
Encoding: 1075 1075 236
Width: 501
VWidth: 950
GlyphClass: 2
Flags: W
LayerCount: 2
Fore
SplineSet
0 648 m 1,0,-1
 471 646 l 1,1,-1
 468 513 l 1,2,3
 456 531 456 531 445 547 c 0,4,5
 436 560 436 560 426.5 572.5 c 128,-1,6
 417 585 417 585 410 587 c 0,7,8
 407 588 407 588 391 588.5 c 128,-1,9
 375 589 375 589 102 586 c 1,10,11
 117 7 117 7 118 4 c 0,12,13
 120 -1 120 -1 185 -49 c 1,14,-1
 10 -49 l 1,15,16
 48 -13 48 -13 49 -9 c 0,17,18
 49 -7 49 -7 45 293.5 c 128,-1,19
 41 594 41 594 44 589 c 1,20,-1
 2 589 l 1,21,-1
 0 648 l 1,0,-1
EndSplineSet
Validated: 37
EndChar

StartChar: afii10069
Encoding: 1076 1076 237
Width: 741
VWidth: 950
GlyphClass: 2
Flags: W
LayerCount: 2
Fore
SplineSet
500 9 m 1,0,-1
 319 479 l 1,1,-1
 194 8 l 1,2,-1
 500 9 l 1,0,-1
582 8 m 1,3,4
 606 11 606 11 705 11 c 1,5,-1
 727 -225 l 1,6,-1
 669 -228 l 1,7,-1
 654 -48 l 1,8,-1
 623 -48 l 1,9,-1
 343 -49 l 1,10,-1
 147 -49 l 1,11,-1
 147 -49 l 1,12,-1
 83 -51 l 1,13,-1
 71 -232 l 1,14,-1
 12 -229 l 1,15,-1
 34 7 l 1,16,-1
 137 11 l 1,17,-1
 325 657 l 1,18,-1
 582 8 l 1,3,4
EndSplineSet
Validated: 5
EndChar

StartChar: afii10070
Encoding: 1077 1077 238
Width: 498
VWidth: 950
GlyphClass: 2
Flags: W
LayerCount: 2
Fore
SplineSet
0 650 m 1,0,-1
 463 643 l 1,1,-1
 462 525 l 1,2,3
 441 542 441 542 423 557 c 128,-1,4
 405 572 405 572 385 588 c 1,5,-1
 114 591 l 1,6,-1
 116 351 l 1,7,-1
 305 360 l 1,8,-1
 305 296 l 1,9,-1
 117 296 l 1,10,-1
 124 7 l 1,11,12
 349 11 349 11 350 12 c 0,13,14
 353 13 353 13 433 66 c 1,15,-1
 433 -48 l 1,16,-1
 24 -48 l 1,17,-1
 24 7 l 1,18,-1
 53 5 l 1,19,-1
 53 593 l 1,20,-1
 0 593 l 1,21,-1
 0 650 l 1,0,-1
EndSplineSet
Validated: 1
EndChar

StartChar: afii10072
Encoding: 1078 1078 239
Width: 896
VWidth: 950
GlyphClass: 2
Flags: W
LayerCount: 2
Fore
SplineSet
355 648 m 1,0,-1
 528 647 l 1,1,-1
 499 627 l 2,2,3
 469 606 469 606 469 604 c 2,4,-1
 474 420 l 1,5,-1
 771 616 l 1,6,-1
 817 575 l 1,7,-1
 566 427 l 1,8,-1
 875 53 l 1,9,-1
 812 1 l 1,10,-1
 520 398 l 1,11,-1
 472 369 l 1,12,-1
 482 -7 l 2,13,14
 483 -10 483 -10 509 -28 c 2,15,-1
 536 -46 l 1,16,-1
 362 -48 l 1,17,18
 414 -9 414 -9 414 -8 c 0,19,20
 412 224 412 224 411 370 c 1,21,-1
 367 398 l 1,22,-1
 75 0 l 1,23,-1
 12 53 l 1,24,-1
 320 427 l 1,25,-1
 69 575 l 1,26,-1
 115 616 l 1,27,-1
 411 421 l 1,28,29
 410 600 410 600 410 600 c 2,30,31
 409 600 409 600 355 648 c 1,0,-1
EndSplineSet
Validated: 1
EndChar

StartChar: afii10073
Encoding: 1079 1079 240
Width: 369
VWidth: 950
GlyphClass: 2
Flags: W
LayerCount: 2
Fore
SplineSet
149 314 m 1,0,1
 116 323 116 323 92 312 c 1,2,-1
 89 350 l 1,3,4
 140 372 140 372 162 391 c 128,-1,5
 184 410 184 410 205 444 c 1,6,7
 224 486 224 486 221 514 c 128,-1,8
 218 542 218 542 202 559 c 128,-1,9
 186 576 186 576 162 584.5 c 128,-1,10
 138 593 138 593 116 595.5 c 128,-1,11
 94 598 94 598 77 596 c 128,-1,12
 60 594 60 594 57 591 c 0,13,14
 53 586 53 586 48 576 c 128,-1,15
 43 566 43 566 39 555 c 0,16,17
 35 542 35 542 29 527 c 1,18,-1
 6 643 l 1,19,20
 89 650 89 650 154 638 c 0,21,22
 181 633 181 633 206.5 623 c 128,-1,23
 232 613 232 613 252 595.5 c 128,-1,24
 272 578 272 578 284 553 c 128,-1,25
 296 528 296 528 295 494 c 0,26,27
 294 451 294 451 274.5 421.5 c 128,-1,28
 255 392 255 392 234 375.5 c 128,-1,29
 213 359 213 359 191 344 c 1,30,31
 260 313 260 313 301 274 c 0,32,33
 324 247 324 247 330 219 c 0,34,35
 348 130 348 130 290 55 c 1,36,37
 219 -18 219 -18 127 -40 c 0,38,39
 78 -52 78 -52 6 -52 c 1,40,41
 6 -30 6 -30 5 12 c 1,42,43
 58 0 58 0 76 0 c 0,44,45
 177 9 177 9 242 96 c 1,46,47
 275 174 275 174 241 230 c 0,48,49
 206 280 206 280 149 314 c 1,0,1
EndSplineSet
Validated: 33
EndChar

StartChar: afii10074
Encoding: 1080 1080 241
Width: 536
VWidth: 950
GlyphClass: 2
Flags: W
LayerCount: 2
Fore
SplineSet
377 -47 m 1,0,1
 391 -30 391 -30 404 -7 c 1,2,3
 405 73 405 73 393 434 c 1,4,-1
 85 -45 l 1,5,-1
 83 -49 l 1,6,-1
 16 -49 l 1,7,-1
 15 646 l 1,8,-1
 124 650 l 1,9,10
 122 652 122 652 93 597 c 0,11,12
 88 580 88 580 85 52 c 1,13,-1
 450 643 l 1,14,-1
 478 -48 l 1,15,-1
 377 -47 l 1,0,1
EndSplineSet
Validated: 37
EndChar

StartChar: afii10075
Encoding: 1081 1081 242
Width: 539
VWidth: 950
GlyphClass: 2
Flags: W
LayerCount: 2
Fore
SplineSet
229 789 m 1,0,-1
 277 662 l 1,1,-1
 357 755 l 1,2,-1
 394 732 l 1,3,-1
 268 600 l 1,4,-1
 161 769 l 1,5,-1
 229 789 l 1,0,-1
480 -48 m 1,6,-1
 453 643 l 1,7,-1
 87 52 l 1,8,9
 91 580 91 580 96 597 c 0,10,11
 125 652 125 652 126 650 c 1,12,-1
 18 646 l 1,13,-1
 19 -49 l 1,14,-1
 85 -49 l 1,15,-1
 87 -45 l 1,16,-1
 395 434 l 1,17,18
 408 73 408 73 407 -7 c 1,19,20
 394 -30 394 -30 379 -47 c 1,21,-1
 480 -48 l 1,6,-1
EndSplineSet
Validated: 37
EndChar

StartChar: afii10076
Encoding: 1082 1082 243
Width: 510
VWidth: 950
GlyphClass: 2
Flags: W
LayerCount: 2
Fore
SplineSet
0 649 m 1,0,-1
 141 647 l 1,1,-1
 112 627 l 2,2,3
 82 606 82 606 82 604 c 2,4,-1
 87 420 l 1,5,-1
 385 616 l 1,6,-1
 430 575 l 1,7,-1
 179 427 l 1,8,-1
 488 53 l 1,9,-1
 425 1 l 1,10,-1
 133 398 l 1,11,-1
 85 369 l 1,12,-1
 95 -7 l 2,13,14
 96 -10 96 -10 122 -28 c 2,15,-1
 149 -46 l 1,16,-1
 3 -50 l 1,17,18
 27 -9 27 -9 27 -8 c 0,19,20
 23 619 23 619 23 620 c 1,21,22
 22 620 22 620 0 649 c 1,0,-1
EndSplineSet
Validated: 1
EndChar

StartChar: afii10077
Encoding: 1083 1083 244
Width: 496
VWidth: 950
GlyphClass: 2
Flags: W
LayerCount: 2
Fore
SplineSet
0 -50 m 1,0,-1
 206 655 l 1,1,-1
 480 -40 l 1,2,-1
 365 -48 l 1,3,-1
 388 -17 l 1,4,-1
 200 480 l 1,5,-1
 65 -23 l 1,6,-1
 90 -50 l 1,7,-1
 1 -49 l 1,8,-1
 0 -50 l 1,0,-1
EndSplineSet
Validated: 1
EndChar

StartChar: afii10078
Encoding: 1084 1084 245
Width: 613
VWidth: 950
GlyphClass: 2
Flags: W
LayerCount: 2
Fore
SplineSet
10 649 m 1,0,-1
 138 646 l 1,1,-1
 318 248 l 1,2,-1
 492 606 l 1,3,-1
 555 610 l 1,4,-1
 554 -19 l 1,5,-1
 436 -20 l 1,6,7
 447 -15 447 -15 457 -10 c 0,8,9
 465 -6 465 -6 485 7 c 0,10,11
 486 8 486 8 488 495 c 1,12,-1
 298 112 l 1,13,-1
 95 556 l 1,14,15
 105 -15 105 -15 107 -16 c 0,16,17
 109 -19 109 -19 123 -25 c 128,-1,18
 137 -31 137 -31 181 -49 c 1,19,-1
 1 -49 l 1,20,21
 13 -40 13 -40 25 -31 c 0,22,23
 34 -23 34 -23 42 -15.5 c 128,-1,24
 50 -8 50 -8 51 -4 c 0,25,26
 51 -1 51 -1 48.5 299.5 c 128,-1,27
 46 600 46 600 45 601 c 0,28,29
 43 604 43 604 37.5 612 c 128,-1,30
 32 620 32 620 26 629 c 0,31,32
 19 639 19 639 10 649 c 1,0,-1
EndSplineSet
Validated: 1
EndChar

StartChar: afii10079
Encoding: 1085 1085 246
Width: 522
VWidth: 950
GlyphClass: 2
Flags: W
LayerCount: 2
Fore
SplineSet
363 -47 m 1,0,1
 377 -30 377 -30 390 -7 c 1,2,3
 391 73 391 73 386 178 c 1,4,-1
 71 165 l 1,5,-1
 69 -49 l 1,6,-1
 2 -49 l 1,7,-1
 1 646 l 1,8,-1
 110 650 l 1,9,10
 108 652 108 652 79 597 c 0,11,12
 74 580 74 580 71 217 c 1,13,-1
 383 225 l 1,14,-1
 364 639 l 1,15,-1
 436 643 l 1,16,-1
 464 -48 l 1,17,-1
 363 -47 l 1,0,1
EndSplineSet
Validated: 37
EndChar

StartChar: afii10080
Encoding: 1086 1086 247
Width: 639
VWidth: 950
GlyphClass: 2
Flags: W
LayerCount: 2
Fore
SplineSet
297 651 m 0,0,1
 378 650 378 650 444 620 c 0,2,3
 473 608 473 608 500 587 c 128,-1,4
 527 566 527 566 549.5 533.5 c 128,-1,5
 572 501 572 501 586 455.5 c 128,-1,6
 600 410 600 410 603 351 c 0,7,8
 604 252 604 252 579 178 c 128,-1,9
 554 104 554 104 512 54 c 128,-1,10
 470 4 470 4 416.5 -22 c 128,-1,11
 363 -48 363 -48 307 -49 c 256,12,13
 251 -50 251 -50 195.5 -29 c 128,-1,14
 140 -8 140 -8 96.5 37.5 c 128,-1,15
 53 83 53 83 28 154 c 128,-1,16
 3 225 3 225 9 323 c 0,17,18
 13 415 13 415 39.5 475 c 128,-1,19
 66 535 66 535 101 571 c 128,-1,20
 136 607 136 607 183.5 628.5 c 128,-1,21
 231 650 231 650 297 651 c 0,0,1
519 294 m 0,22,23
 524 365 524 365 511.5 416 c 128,-1,24
 499 467 499 467 476.5 503 c 128,-1,25
 454 539 454 539 427 561.5 c 128,-1,26
 400 584 400 584 369 596.5 c 128,-1,27
 338 609 338 609 300 610 c 0,28,29
 295 610 295 610 279.5 609.5 c 128,-1,30
 264 609 264 609 243.5 604.5 c 128,-1,31
 223 600 223 600 201.5 588.5 c 128,-1,32
 180 577 180 577 157 555.5 c 128,-1,33
 134 534 134 534 117 492 c 128,-1,34
 100 450 100 450 93 389 c 0,35,36
 82 297 82 297 99 222.5 c 128,-1,37
 116 148 116 148 149 95.5 c 128,-1,38
 182 43 182 43 226 15.5 c 128,-1,39
 270 -12 270 -12 313 -10 c 0,40,41
 335 -10 335 -10 367 -1.5 c 128,-1,42
 399 7 399 7 430 37 c 128,-1,43
 461 67 461 67 486 127.5 c 128,-1,44
 511 188 511 188 519 294 c 0,22,23
EndSplineSet
Validated: 33
EndChar

StartChar: afii10081
Encoding: 1087 1087 248
Width: 522
VWidth: 950
GlyphClass: 2
Flags: W
LayerCount: 2
Fore
SplineSet
4 634 m 1,0,-1
 450 649 l 1,1,-1
 476 -49 l 1,2,-1
 391 -50 l 1,3,-1
 414 -10 l 1,4,-1
 396 596 l 1,5,-1
 62 586 l 1,6,7
 81 -3 81 -3 82 -8 c 0,8,9
 84 -12 84 -12 92.5 -20.5 c 128,-1,10
 101 -29 101 -29 109 -34 c 0,11,12
 121 -43 121 -43 133 -50 c 1,13,-1
 -1 -50 l 1,14,-1
 26 -17 l 1,15,-1
 4 634 l 1,0,-1
EndSplineSet
Validated: 1
EndChar

StartChar: afii10082
Encoding: 1088 1088 249
Width: 484
VWidth: 950
GlyphClass: 2
Flags: W
LayerCount: 2
Fore
SplineSet
1 639 m 1,0,1
 124 652 124 652 222 645 c 0,2,3
 264 641 264 641 303.5 631.5 c 128,-1,4
 343 622 343 622 374.5 606.5 c 128,-1,5
 406 591 406 591 425.5 567 c 128,-1,6
 445 543 445 543 445 509 c 0,7,8
 445 464 445 464 427.5 434 c 128,-1,9
 410 404 410 404 381 385 c 128,-1,10
 352 366 352 366 316 357 c 128,-1,11
 280 348 280 348 243 344 c 128,-1,12
 206 340 206 340 118 336 c 0,13,14
 85 336 85 336 80 341 c 128,-1,15
 75 346 75 346 84 353 c 0,16,17
 93 361 93 361 117 376 c 1,18,19
 194 374 194 374 252 388 c 0,20,21
 277 394 277 394 300.5 403 c 128,-1,22
 324 412 324 412 341.5 425 c 128,-1,23
 359 438 359 438 367.5 455.5 c 128,-1,24
 376 473 376 473 373 497 c 0,25,26
 365 542 365 542 333 564 c 128,-1,27
 301 586 301 586 260.5 594 c 128,-1,28
 220 602 220 602 178.5 599.5 c 128,-1,29
 137 597 137 597 111 594 c 1,30,31
 132 15 132 15 132 14 c 0,32,33
 134 12 134 12 142.5 3 c 128,-1,34
 151 -6 151 -6 161 -15 c 0,35,36
 173 -27 173 -27 187 -40 c 1,37,-1
 30 -47 l 1,38,39
 38 -40 38 -40 44 -35 c 0,40,41
 50 -29 50 -29 54.5 -24.5 c 128,-1,42
 59 -20 59 -20 60 -18 c 0,43,44
 60 -16 60 -16 55 588 c 1,45,-1
 4 582 l 1,46,-1
 1 639 l 1,0,1
EndSplineSet
Validated: 37
EndChar

